<svg width="49" height="71" viewBox="0 0 49 71" fill="none" xmlns="http://www.w3.org/2000/svg">
<g clip-path="url(#clip0_171_5329)">
<path d="M48.5786 44.8283C48.1183 43.3825 47.5467 41.9775 46.7865 40.6722C46.7823 40.5992 46.7767 40.5261 46.7682 40.4516C46.4304 37.6641 43.7627 35.808 41.1161 36.1129C41.0682 36.1073 41.0203 36.1017 40.9725 36.1003C40.6177 35.9668 40.2573 35.8417 39.8913 35.7265C38.5694 35.3092 37.2588 34.892 36.027 34.2456C35.9088 34.1838 35.7201 34.1065 35.6103 34.0194C35.6174 34.0251 35.6216 34.0279 35.6272 34.0335C35.5737 33.9927 35.5259 33.9576 35.4963 33.9379C35.2302 33.7665 34.9698 33.5867 34.715 33.3998C34.0773 32.9305 33.4804 32.4107 32.9173 31.8557C32.5836 31.5269 32.5752 31.5255 32.0374 31.444C32.0698 30.084 31.639 28.5258 31.8375 27.1784C32.8933 25.6441 33.6409 23.9286 34.0646 22.1301C35.8482 22.48 37.5347 21.2211 38.171 19.5884C38.7271 18.1652 38.2414 16.5831 36.9857 15.7752C38.171 13.7618 38.3653 11.2637 37.5854 9.02689C37.8782 8.65597 38.0204 8.15578 37.8768 7.56426C37.4812 5.94146 36.7393 4.40577 35.7145 3.08927C35.6399 2.86727 35.5244 2.66355 35.3668 2.49494C35.1697 2.05236 34.7994 1.71937 34.287 1.56341C34.2223 1.50581 34.1575 1.44539 34.0899 1.38919C33.4283 0.828586 32.4921 0.702134 31.7925 1.22621C31.4645 1.17422 31.1364 1.13769 30.807 1.11381C29.4443 0.585517 27.893 0.534936 26.4514 0.858091C26.0854 0.939582 25.7306 1.04917 25.3843 1.17844C25.1478 1.20373 24.9127 1.23464 24.6748 1.27538C22.207 1.69829 20.0757 3.01761 18.5116 4.92985C17.9725 5.35276 17.46 5.8108 16.987 6.30255C16.4436 6.86878 16.3873 7.53616 16.6112 8.09958C16.5309 8.25413 16.4563 8.41149 16.3873 8.57307C15.7623 10.0441 15.6328 11.6332 15.9382 13.197C15.9889 13.4583 16.0635 13.7464 16.1593 14.0414C16.2156 14.6723 16.3296 15.3003 16.507 15.9171C15.2977 16.0885 14.1419 16.9077 13.8505 18.1933C13.6014 19.292 13.8139 20.7476 14.4882 21.6609C15.3329 22.8059 16.7632 22.7497 17.8176 22.0697C17.8824 22.3409 17.9499 22.6106 18.0203 22.8804C18.0302 22.976 18.0386 23.0715 18.0457 23.167C18.0555 23.4256 18.0682 23.6827 18.0865 23.9412C18.1245 24.4639 18.3737 24.8601 18.727 25.1242C18.9185 25.6343 19.131 26.1344 19.369 26.622C19.3844 27.7193 19.1972 28.7351 18.7101 29.6892C18.0893 30.9045 17.2841 31.7503 16.2831 32.7324C15.3864 33.612 14.4798 34.4831 13.5718 35.3528C12.8961 35.6155 12.2203 35.8783 11.5446 36.1424C11.1645 36.2619 10.7915 36.4038 10.4268 36.5752C8.64321 37.2524 6.84268 37.9001 5.92201 39.7365C5.5391 40.5008 5.38987 41.3691 5.19701 42.1967L4.59167 44.7805C3.82726 48.043 3.06284 51.3068 2.29843 54.5693C1.81697 56.622 1.33692 58.6734 0.855469 60.7261C1.72406 62.88 2.50537 65.0732 3.51473 67.1611H44.3399C44.4243 67.0895 44.5102 67.0178 44.5947 66.9461C45.1169 66.1326 45.5533 65.2615 45.9306 64.4536C47.6537 60.7542 48.4942 56.712 48.7419 52.6543C48.8996 50.0634 48.8588 47.4332 48.5786 44.8353V44.8283Z" fill="white"/>
<path d="M48.8116 48.2468C48.5962 47.4249 48.3794 46.6029 48.164 45.781L47.2729 42.3907C47.0012 41.3552 46.8182 40.2298 46.3029 39.2814C46.0805 38.8725 45.8229 38.5241 45.5301 38.222C45.3104 37.8763 44.9979 37.5953 44.6249 37.445C44.0252 36.7874 43.0791 36.4306 42.2021 36.0863C40.3593 35.3642 38.5152 34.642 36.6724 33.9212C36.1755 33.7301 35.8193 34.0196 35.6997 34.4116C35.1647 34.6139 34.6931 35.0312 34.4214 35.5384C31.8227 40.4082 28.9185 45.1052 25.744 49.6195C24.6741 47.8295 23.6267 46.0255 22.6075 44.2074C22.5005 43.9053 22.3949 43.6032 22.2879 43.3011C21.7135 42.2165 21.1983 41.1023 20.7056 39.9768C20.1974 39.0341 19.7215 38.073 19.2105 37.1331C18.4447 35.818 17.7127 34.486 17.0327 33.126C15.4025 32.6342 13.5921 33.5418 12.0704 34.0434C9.19289 34.9918 5.84241 35.6859 4.38819 38.6617C3.73358 40.0007 3.34504 41.4676 2.97339 42.9049C2.59189 44.376 2.27936 45.8639 2.0316 47.3631C1.72752 49.2092 1.48116 51.0878 1.36854 52.9691C1.02505 54.9979 0.720969 57.031 0.691406 59.0711C1.56 62.5429 2.16815 66.9224 5.34688 68.652C5.51018 68.6576 5.67489 68.725 5.81566 68.8782C6.15775 69.0257 6.52517 69.1451 6.92357 69.2336C6.9827 69.2463 7.03619 69.2659 7.08546 69.2884C8.4158 69.5624 9.77851 69.6931 11.13 69.7788C13.8019 69.9502 16.4752 70.0092 19.1514 69.9741C22.0415 69.9361 24.9303 69.8111 27.8176 69.7057C29.2113 69.6537 30.5979 69.6341 31.9916 69.6439C33.374 69.6537 34.7719 69.5975 36.0769 69.103C36.3965 68.9821 36.6809 69.0889 36.8667 69.2842C37.4692 69.0159 38.0562 68.6843 38.6208 68.2754C38.7981 68.1475 38.9572 67.9986 39.0938 67.837H43.5212C43.8816 67.542 44.2391 67.2427 44.5953 66.9406C45.1176 66.1271 45.554 65.256 45.9313 64.4481C47.6544 60.7487 48.4948 56.7064 48.7426 52.6487C48.8313 51.1889 48.8566 49.7165 48.813 48.244L48.8116 48.2468Z" fill="#C3C3C3"/>
<path d="M27.3423 37.1237C27.2663 36.7036 27.6168 36.424 27.942 36.417C28.0194 35.5023 28.1687 34.5947 28.1827 33.6744C28.1841 33.576 28.2081 33.4917 28.2447 33.4201C28.0926 33.1587 27.8871 32.9227 27.6928 32.7737C27.2973 32.4689 26.6863 32.2778 26.1851 32.3649C25.6643 32.4548 25.1434 32.6965 24.8295 33.1405C24.7408 33.2908 24.6535 33.4397 24.5648 33.5901C24.4226 33.9287 24.3733 34.2799 24.4198 34.6452V36.2231C24.4198 36.2919 24.4296 36.3636 24.4451 36.4366C24.5226 36.5167 24.5676 36.6291 24.5634 36.7753C24.5986 36.8511 24.6394 36.9256 24.6845 36.9972C24.631 37.0408 24.5803 37.0872 24.5324 37.1377C24.4508 37.9695 24.3705 38.8027 24.2903 39.6345C24.3353 39.7061 24.3846 39.7736 24.4381 39.8382C24.4311 39.8846 24.424 39.9323 24.4212 39.9801C24.2861 42.4768 24.0735 44.9679 23.7835 47.4506C23.6568 48.5423 24.4057 49.5989 25.5164 49.7549C26.5892 49.9066 27.6985 49.1226 27.8252 48.0253C28.0532 46.0723 28.2306 44.1151 28.3629 42.1551C28.2841 42.089 28.2264 41.9921 28.201 41.8572C27.9139 40.2794 27.6253 38.7001 27.3381 37.1223L27.3423 37.1237Z" fill="#EF5407"/>
<path d="M17.8974 15.567C17.1795 15.213 16.3461 14.8449 15.538 15.1188C14.7046 15.4012 14.0641 16.0293 13.753 16.847C13.3785 17.8291 13.4067 18.9953 13.6235 20.0083C13.8065 20.864 14.1809 21.7098 14.8229 22.3224C15.5605 23.0249 16.5516 23.3312 17.561 23.2427C17.9016 23.2132 18.1945 22.9729 18.1945 22.6104C18.1945 22.2915 17.9031 21.9487 17.561 21.9782C16.7642 22.0484 16.0364 21.8405 15.5127 21.211C14.9777 20.5675 14.7722 19.6528 14.744 18.8379C14.7159 18.0132 14.7933 16.9819 15.5676 16.507C15.6337 16.4663 15.7013 16.4269 15.7703 16.3904C15.89 16.3258 15.7801 16.3721 15.8745 16.3398C15.9322 16.3201 15.9899 16.3033 16.049 16.2906C15.928 16.3145 16.1011 16.2878 16.1307 16.2878C16.4587 16.285 16.9064 16.4887 17.2569 16.6616C17.9861 17.0198 18.6281 15.9295 17.896 15.5699L17.8974 15.567Z" fill="#101841"/>
<path d="M17.1356 19.6824C17.1427 21.5159 17.6861 23.3523 18.5012 24.9835C19.4064 26.7946 20.7846 28.4581 22.5879 29.4318C23.6916 30.0276 24.9121 30.3381 26.1636 30.3704V29.1059H26.1087V30.3704C28.3203 30.3577 30.37 29.4445 31.8904 27.8484C33.277 26.3942 34.2146 24.5213 34.7242 22.5894C34.9748 21.6438 35.1282 20.6603 35.1325 19.681C35.1353 18.8675 33.8683 18.8661 33.8655 19.681C33.8599 21.2462 33.4417 22.8844 32.7449 24.3442C31.9692 25.9698 30.8247 27.455 29.2241 28.3317C28.2654 28.8572 27.1969 29.1002 26.1073 29.1073C25.2922 29.1115 25.2908 30.3718 26.1073 30.3718H26.1622C26.9787 30.3718 26.9773 29.1283 26.1622 29.1073C22.3162 29.0061 19.7301 25.6397 18.7785 22.2128C18.5307 21.322 18.404 20.5844 18.3998 19.6824C18.397 18.8689 17.13 18.8675 17.1328 19.6824H17.1356Z" fill="#101841"/>
<path d="M35.1797 16.7953C35.8188 16.385 36.7197 16.1335 37.2392 16.8641C37.7249 17.5442 37.715 18.6246 37.5869 19.41C37.4701 20.1308 37.2294 20.8628 36.6972 21.3855C36.1862 21.8885 35.5217 22.0262 34.8249 21.9644C34.4842 21.9349 34.1914 22.2763 34.1914 22.5966C34.1914 22.9633 34.4828 23.1994 34.8249 23.2289C35.8737 23.3216 36.9197 22.9844 37.6545 22.2187C38.433 21.4066 38.7737 20.298 38.8835 19.2021C38.9975 18.0612 38.8511 16.6112 37.9656 15.7781C36.99 14.8606 35.5992 15.0222 34.5405 15.7022C33.8578 16.142 34.4913 17.2365 35.1797 16.7939V16.7953Z" fill="#101841"/>
<path d="M36.8048 68.0354C30.8148 69.4531 24.6178 69.9168 18.4729 69.6611C15.4758 69.536 12.4646 69.2634 9.5083 68.745C8.16529 68.5089 6.80117 68.1956 5.58627 67.5591C4.3953 66.9353 3.44506 66.0164 2.75808 64.8629C1.25318 62.3325 1.08847 59.247 1.38269 56.3864C1.66424 53.655 2.36813 50.9658 2.92842 48.2808C3.4507 45.7757 4.01098 43.2607 4.91055 40.8581C5.33147 39.7341 5.83967 38.6382 6.47739 37.6195C6.7702 37.1516 7.05457 36.6121 7.56136 36.3592C8.17092 36.0557 8.81568 35.8197 9.46044 35.6019C12.1704 34.6886 15.0112 34.1519 17.4636 32.605C18.2674 32.0978 19.0853 31.5035 19.5738 30.6675C20.0032 29.9326 20.113 29.0798 20.1496 28.2424C20.1721 27.7141 20.1679 27.1858 20.1679 26.6575C20.1679 25.844 18.9009 25.8426 18.9009 26.6575C18.9009 27.1985 18.9051 27.7408 18.8798 28.2817C18.8587 28.744 18.8432 29.0025 18.7235 29.4353C18.6996 29.5224 18.6714 29.6095 18.6419 29.6952C18.6292 29.7331 18.6137 29.7697 18.5996 29.8062C18.6419 29.7078 18.5996 29.8006 18.5912 29.8174C18.5067 29.9888 18.4096 30.1546 18.2941 30.3078C18.2224 30.4019 18.3885 30.1982 18.2547 30.3541C18.2266 30.3879 18.197 30.4202 18.1674 30.4525C18.1055 30.5199 18.0408 30.586 17.976 30.6492C17.8085 30.8108 17.6297 30.9597 17.4425 31.096C15.1351 32.7722 12.3661 33.3511 9.69694 34.1941C8.99306 34.4161 8.29762 34.6634 7.61908 34.9514C7.30656 35.0835 6.97573 35.2099 6.68714 35.3926C6.36758 35.5935 6.15642 35.8646 5.9368 36.1639C5.20477 37.1573 4.62899 38.2546 4.14472 39.387C3.11424 41.7966 2.47793 44.3468 1.9275 46.9011C1.66284 48.1291 1.41929 49.3627 1.15604 50.5921C0.840703 52.0688 0.50284 53.5398 0.286044 55.0362C-0.154586 58.0696 -0.203857 61.2745 0.996964 64.152C1.53051 65.4305 2.2907 66.6332 3.3423 67.5521C4.43613 68.5075 5.76647 69.1187 7.15593 69.5149C8.5482 69.9111 9.99257 70.1107 11.4243 70.3032C12.9686 70.5111 14.5171 70.6741 16.0713 70.7879C22.3499 71.2473 28.7144 70.9565 34.8973 69.7425C35.6476 69.595 36.3966 69.432 37.1413 69.2564C37.9338 69.0681 37.5988 67.8486 36.8048 68.0368V68.0354Z" fill="#101841"/>
<path d="M8.06426 45.2513C8.06426 48.2018 8.03892 51.1524 8.02907 54.1015C8.02485 55.3112 8.02344 56.5196 8.02344 57.7293C8.02344 58.5428 9.29042 58.5442 9.29042 57.7293C9.29042 54.7787 9.31576 51.8282 9.32562 48.8791C9.32984 47.6693 9.33125 46.461 9.33125 45.2513C9.33125 44.4378 8.06426 44.4364 8.06426 45.2513Z" fill="#101841"/>
<path d="M6.83814 58.888C13.1294 59.9516 19.4911 60.6007 25.8683 60.8129C27.6674 60.8733 29.4679 60.8972 31.2685 60.8888C32.0835 60.8846 32.085 59.62 31.2685 59.6242C24.9673 59.6538 18.6648 59.266 12.4157 58.4553C10.663 58.2277 8.91599 57.9635 7.17459 57.6685C6.83814 57.6109 6.49183 57.757 6.39469 58.1096C6.31163 58.4131 6.49746 58.8304 6.83673 58.888H6.83814Z" fill="#101841"/>
<path d="M16.4374 33.9708C17.4369 35.8858 18.4364 37.8023 19.4345 39.7173C21.0267 42.769 22.6189 45.8221 24.211 48.8738C24.5757 49.5735 24.9403 50.2718 25.3049 50.9715C25.6822 51.6937 26.776 51.0544 26.3987 50.3336C25.3992 48.4186 24.3997 46.5022 23.4016 44.5871C21.8094 41.5354 20.2172 38.4823 18.625 35.4306C18.2604 34.7309 17.8958 34.0326 17.5312 33.3329C17.1539 32.6107 16.0601 33.25 16.4374 33.9708Z" fill="#101841"/>
<path d="M34.8375 33.2641C33.7648 35.1847 32.6921 37.1054 31.6194 39.0261C29.9089 42.089 28.1971 45.152 26.4867 48.2149C26.0925 48.9202 25.6983 49.6256 25.3041 50.3309C24.9072 51.0418 26.001 51.6811 26.398 50.9688C27.4707 49.0481 28.5434 47.1274 29.6161 45.2068C31.3266 42.1438 33.0384 39.0809 34.7488 36.0179C35.143 35.3126 35.5372 34.6073 35.9314 33.902C36.3283 33.191 35.2345 32.5517 34.8375 33.2641Z" fill="#101841"/>
<path d="M35.764 33.0413C34.7687 32.44 33.8494 31.6461 33.4017 30.5811C32.9287 29.4557 32.909 28.1855 32.9076 26.9857C32.9076 26.1722 31.6392 26.1707 31.6406 26.9857C31.642 28.3738 31.7054 29.8069 32.2572 31.101C32.826 32.4329 33.9029 33.3968 35.1248 34.1344C35.8245 34.5573 36.4622 33.4642 35.764 33.0427V33.0413Z" fill="#101841"/>
<path d="M25.6209 18.3097C26.0869 18.8394 25.9912 19.5335 25.6181 20.0744C25.3563 20.4552 25.1845 20.864 25.2887 21.3333C25.3844 21.7647 25.6984 22.1131 26.0123 22.4068C26.6064 22.9631 27.5045 22.071 26.9076 21.5132C26.7936 21.4064 26.6064 21.2715 26.5515 21.1184C26.5036 20.9863 26.5698 20.9202 26.65 20.8008C26.8752 20.4636 27.0723 20.1334 27.1512 19.7288C27.3145 18.8886 27.0794 18.0568 26.5163 17.4161C25.9771 16.8035 25.0846 17.6999 25.6209 18.3097Z" fill="#101841"/>
<path d="M23.4279 35.9128L18.3867 32.1249L18.8513 29.6562L25.4734 31.9942L23.4279 35.9128Z" fill="white"/>
<path d="M23.7464 35.3712C22.2781 34.2682 20.8098 33.1653 19.3415 32.061C19.1289 31.9022 18.9178 31.742 18.7052 31.5832C18.8023 31.8207 18.8995 32.0595 18.9966 32.297C19.1515 31.4737 19.3077 30.6503 19.4626 29.8284C19.2021 29.9759 18.9431 30.1234 18.6827 30.2696C20.6169 30.9524 22.5498 31.6352 24.4841 32.3181C24.7572 32.415 25.0317 32.5106 25.3048 32.6075C25.1781 32.2984 25.0528 31.9879 24.9261 31.6788C24.2447 32.9855 23.562 34.2921 22.8806 35.5974C22.5047 36.3182 23.5972 36.9589 23.9745 36.2353C24.6558 34.9286 25.3386 33.6219 26.0199 32.3167C26.2184 31.9359 26.0382 31.5285 25.6412 31.3879C23.707 30.7051 21.7741 30.0223 19.8399 29.3394C19.5667 29.2425 19.2922 29.1469 19.0191 29.05C18.715 28.9432 18.2998 29.1722 18.2392 29.4912C18.0844 30.3145 17.9281 31.1379 17.7733 31.9598C17.7155 32.2675 17.8211 32.4909 18.0647 32.6735C19.533 33.7765 21.0013 34.8794 22.4696 35.9838C22.6821 36.1425 22.8933 36.3027 23.1059 36.4615C23.379 36.6666 23.814 36.505 23.973 36.2353C24.1631 35.9121 24.0195 35.5763 23.7464 35.3698V35.3712Z" fill="#101841"/>
<path d="M28.9789 35.9225L33.6428 32.1107L33.1768 29.6406L26.5547 31.9786L28.9789 35.9225Z" fill="white"/>
<path d="M29.4271 36.365C30.787 35.2522 32.1483 34.1408 33.5082 33.0281C33.7025 32.8693 33.8968 32.7105 34.0911 32.5518C34.2713 32.4042 34.2938 32.1457 34.2544 31.9364C34.0995 31.113 33.9432 30.2911 33.7884 29.4677C33.7279 29.1488 33.3126 28.9198 33.0085 29.0266C31.0742 29.7094 29.1414 30.3922 27.2071 31.0751C26.934 31.172 26.6595 31.2676 26.3864 31.3645C26.0119 31.4966 25.781 31.9237 26.0077 32.2932C26.8157 33.6083 27.6238 34.922 28.4319 36.2371C28.857 36.9298 29.9536 36.2947 29.5257 35.5992C28.7176 34.2841 27.9096 32.9705 27.1015 31.6554C26.9748 31.9645 26.8495 32.275 26.7228 32.5841C28.6571 31.9012 30.59 31.2184 32.5242 30.5355C32.7973 30.4386 33.0718 30.3431 33.3449 30.2461C33.0845 30.0986 32.8255 29.9511 32.565 29.8049C32.7199 30.6283 32.8762 31.4516 33.031 32.2736C33.0859 32.0684 33.1394 31.8633 33.1943 31.6582C31.8344 32.7709 30.4731 33.8823 29.1132 34.9951C28.9189 35.1539 28.7247 35.3126 28.5304 35.4714C28.2657 35.6878 28.3052 36.1416 28.5304 36.365C28.7922 36.6263 29.1611 36.5828 29.4257 36.365H29.4271Z" fill="#101841"/>
<path d="M27.5193 35.0202C27.1984 36.0571 26.8774 37.0926 26.5564 38.1295C26.7605 37.9749 26.9633 37.8204 27.1674 37.6658H25.0149C25.219 37.8204 25.4218 37.9749 25.6259 38.1295C25.2669 37.0926 24.9079 36.0571 24.549 35.0202C24.2843 34.2558 23.0595 34.5846 23.327 35.356C23.686 36.3929 24.045 37.4284 24.404 38.4653C24.4955 38.7308 24.7235 38.9289 25.0149 38.9289H27.1674C27.4532 38.9289 27.6953 38.7308 27.7784 38.4653C28.0993 37.4284 28.4203 36.3929 28.7413 35.356C28.982 34.5762 27.7601 34.2432 27.5193 35.0202Z" fill="#101841"/>
<path d="M24.2088 46.0462C24.5227 43.9724 24.8366 41.8986 25.1492 39.8248L25.2829 38.9382C25.3336 38.601 25.1984 38.2582 24.8409 38.1598C24.541 38.0783 24.113 38.2624 24.061 38.601C23.747 40.6748 23.4331 42.7486 23.1206 44.8224C23.0755 45.1175 23.0319 45.4139 22.9868 45.709C22.9362 46.0462 23.0713 46.389 23.4289 46.4874C23.7287 46.5689 24.1567 46.3848 24.2088 46.0462Z" fill="#101841"/>
<path d="M26.7602 38.6948C26.977 40.7967 27.1938 42.8986 27.4106 45.0005C27.4416 45.2956 27.4712 45.592 27.5021 45.8871C27.5373 46.2271 27.7682 46.5193 28.1356 46.5193C28.451 46.5193 28.8043 46.2285 28.7691 45.8871C28.5523 43.7852 28.3355 41.6832 28.1187 39.5813C28.0878 39.2863 28.0582 38.9898 28.0272 38.6948C27.992 38.3547 27.7612 38.0625 27.3937 38.0625C27.0784 38.0625 26.7251 38.3533 26.7602 38.6948Z" fill="#101841"/>
<path d="M23.836 9.64526C24.3597 8.56339 25.3409 7.44218 26.615 7.31011C27.2752 7.24126 27.8749 7.51384 28.4605 7.78079C29.1602 8.09973 29.8711 8.40462 30.658 8.36528C31.4689 8.32453 31.4745 7.06001 30.658 7.10076C29.8852 7.1401 29.2024 6.72 28.5126 6.42775C27.7454 6.10319 26.9782 5.95286 26.1504 6.10881C24.6328 6.39403 23.3912 7.66417 22.7408 9.00597C22.5916 9.31367 22.6563 9.68881 22.9674 9.87146C23.2448 10.033 23.6854 9.95296 23.8346 9.64526H23.836Z" fill="#101841"/>
<path d="M26.7702 9.77904C27.7824 9.65681 28.7805 9.71582 29.7659 9.97856C30.5543 10.1893 30.8907 8.96975 30.1024 8.759C29.0156 8.46956 27.8866 8.37964 26.7702 8.51452C26.4309 8.55527 26.1367 8.77586 26.1367 9.14678C26.1367 9.45589 26.4281 9.82119 26.7702 9.77904Z" fill="#101841"/>
<path d="M31.0255 11.5065C31.6674 12.7991 32.8317 13.7616 34.2028 14.2C34.9813 14.4486 35.3149 13.2277 34.5393 12.9804C33.4666 12.6376 32.6163 11.8704 32.1193 10.8686C31.7575 10.1394 30.6637 10.7787 31.0255 11.5065Z" fill="#101841"/>
<path d="M20.3416 11.3311C20.0714 11.7695 19.711 12.1263 19.2703 12.3919C18.5735 12.8134 19.2098 13.9065 19.9095 13.4836C20.5359 13.1056 21.0526 12.5914 21.4355 11.969C21.8634 11.2735 20.7682 10.637 20.3416 11.3311Z" fill="#101841"/>
<path d="M22.809 2.43945C22.7963 2.59401 22.7864 2.47458 22.8371 2.4802C22.8976 2.48582 23.0849 2.34813 23.1496 2.31862C23.365 2.22167 23.586 2.13597 23.8085 2.05448C24.297 1.87604 24.7953 1.7257 25.3007 1.60627C26.2805 1.37304 27.28 1.26064 28.2866 1.26345C29.2973 1.26485 30.2954 1.38709 31.2766 1.62735C32.3789 1.89711 33.4516 2.20481 34.5919 1.98142C35.3915 1.82405 35.0523 0.605898 34.2555 0.761856C33.1293 0.982444 31.9679 0.452751 30.874 0.247617C29.7351 0.0340541 28.5695 -0.0460322 27.4123 0.0256239C26.2777 0.0972801 25.1458 0.295388 24.0605 0.635404C23.5142 0.806817 22.9694 1.00773 22.4514 1.25221C21.9418 1.49247 21.5856 1.86339 21.5406 2.43945C21.5138 2.78087 21.8503 3.07171 22.1741 3.07171C22.5387 3.07171 22.7808 2.78087 22.8075 2.43945H22.809Z" fill="#101841"/>
<path d="M33.3781 5.04623C34.2214 5.29773 35.1012 5.41575 35.9811 5.39046C36.7948 5.36798 36.7976 4.10346 35.9811 4.12594C35.2054 4.14702 34.4579 4.04867 33.7146 3.82667C32.9319 3.59203 32.5968 4.813 33.3781 5.04623Z" fill="#101841"/>
<path d="M36.5155 8.47716C37.4657 10.2953 37.553 12.4407 36.8238 14.3502C36.7013 14.6691 36.959 15.0442 37.2658 15.1285C37.622 15.2269 37.9233 15.0077 38.0457 14.6874C38.8946 12.4646 38.7088 9.9412 37.6093 7.84069C37.2321 7.11851 36.1382 7.75779 36.5155 8.47857V8.47716Z" fill="#101841"/>
<path d="M18.2743 4.21777C16.6934 5.38956 15.7037 7.10088 15.4756 9.05245C15.4362 9.39247 15.7952 9.68471 16.1091 9.68471C16.485 9.68471 16.7032 9.39247 16.7426 9.05245C16.913 7.59123 17.7295 6.18621 18.9134 5.30947C19.1879 5.10575 19.3273 4.76151 19.14 4.44398C18.9824 4.17422 18.5502 4.01264 18.2729 4.21777H18.2743Z" fill="#101841"/>
<path d="M15.2516 12.2415C15.3206 12.7515 15.4937 13.2334 15.7401 13.6844C16.13 14.3996 17.2253 13.7617 16.8339 13.0465C16.6382 12.6883 16.5284 12.3103 16.4735 11.9057C16.4271 11.5671 15.9921 11.383 15.6936 11.4645C15.3276 11.5657 15.2051 11.9029 15.2516 12.2429V12.2415Z" fill="#101841"/>
<path d="M24.2039 18.0974C24.1842 18.9418 23.5155 19.6429 22.6554 19.6429C21.7953 19.6429 21.1266 18.9418 21.1069 18.0974C21.09 17.3752 19.9638 17.3724 19.9807 18.0974C20.013 19.5502 21.1758 20.7641 22.6554 20.7669C24.135 20.7697 25.2978 19.5474 25.3302 18.0974C25.347 17.3738 24.2208 17.3738 24.2039 18.0974Z" fill="#C3C3C3"/>
<path d="M27.3478 18.0974C27.3802 19.5502 28.543 20.7641 30.0226 20.7669C31.5022 20.7697 32.665 19.5474 32.6973 18.0974C32.7142 17.3738 31.588 17.3738 31.5711 18.0974C31.5514 18.9418 30.8827 19.6429 30.0226 19.6429C29.1625 19.6429 28.4938 18.9418 28.4741 18.0974C28.4572 17.3752 27.331 17.3724 27.3478 18.0974Z" fill="#C3C3C3"/>
<path d="M24.8802 18.6162H27.8999C28.6249 18.6162 28.6263 17.4922 27.8999 17.4922H24.8802C24.1552 17.4922 24.1538 18.6162 24.8802 18.6162Z" fill="#C3C3C3"/>
<path d="M20.1533 4.02233H20.349C20.5109 4.02233 20.6826 3.95208 20.7967 3.83687C20.8586 3.77926 20.9022 3.71182 20.9276 3.63314C20.967 3.55727 20.9853 3.47718 20.9825 3.39007C20.9754 3.22709 20.9219 3.05708 20.7967 2.94328C20.6728 2.82947 20.5207 2.75781 20.349 2.75781H20.1533C19.9914 2.75781 19.8197 2.82806 19.7056 2.94328C19.6437 3.00088 19.6001 3.06832 19.5747 3.147C19.5353 3.22288 19.517 3.30296 19.5198 3.39007C19.5269 3.55306 19.5803 3.72306 19.7056 3.83687C19.8295 3.95068 19.9816 4.02233 20.1533 4.02233Z" fill="#101841"/>
<path d="M33.4227 35.3844C33.3509 35.0964 33.2199 34.866 33.051 34.6861C32.8779 33.7616 32.5667 32.8779 32.0515 32.0939C31.3842 31.0766 30.5114 30.2898 29.6062 29.5283C29.3979 29.3541 29.16 29.2332 28.9122 29.163C28.5391 28.7457 28.1041 28.3888 27.6311 28.0938C26.8723 27.6189 25.2745 27.9097 25.0986 29.0393C24.8043 30.9431 24.5031 32.8441 24.2159 34.7494C23.9442 36.5576 24.2257 38.3518 25.8292 39.3241C25.9545 39.4 26.1009 39.4562 26.2571 39.4927C26.1544 39.792 26.0544 40.0941 25.9559 40.3947C26.0178 40.479 26.0558 40.5872 26.0544 40.7207C26.0544 40.7586 26.0544 40.798 26.0544 40.8373C26.167 40.8991 26.2614 40.9989 26.3149 41.1492C26.6203 42.0218 26.9315 42.8915 27.2904 43.7401C27.579 43.5673 28.0239 43.6235 28.1478 44.0422C28.3632 44.7742 28.7165 45.4528 29.1107 46.1062C29.343 46.071 29.5724 46.0345 29.7906 46.0078C30.7366 45.8912 31.6179 45.4893 32.1303 44.5845C32.5935 43.7654 32.6245 42.6807 32.7737 41.7604L33.272 38.675C33.4508 37.565 33.6986 36.5014 33.4198 35.3872L33.4227 35.3844Z" fill="white"/>
<path d="M29.0711 44.5835C28.0082 43.0394 26.8764 41.404 26.996 39.444C27.0453 38.6319 25.7783 38.6347 25.7291 39.444C25.5953 41.6316 26.7863 43.4918 27.9773 45.2214C28.4362 45.8874 29.5342 45.2565 29.0711 44.5835Z" fill="#101841"/>
<path d="M25.3091 29.9015C25.4949 29.4618 25.6005 28.9672 25.8426 28.5555C25.9327 28.4038 25.9553 28.3785 26.0777 28.3504C26.2565 28.3096 26.3227 28.3785 26.5705 28.4895C27.8262 29.0501 28.9988 29.761 30.073 30.6237C30.5685 31.0227 31.0063 31.4302 31.3836 31.943C31.7144 32.394 32.0143 32.876 32.2353 33.3916C32.7688 34.6365 32.8533 36.0555 32.7604 37.3917C32.7041 38.2108 32.5675 39.0187 32.4197 39.8266C32.3437 40.2369 32.2226 40.6598 32.1945 41.0757C32.1649 41.5056 32.1917 41.9426 32.1719 42.3739C32.1339 43.1874 33.4009 43.186 33.4389 42.3739C33.4572 41.9847 33.4361 41.5899 33.4615 41.2021C33.4896 40.768 33.6135 40.3268 33.6909 39.8983C33.8359 39.0904 33.9626 38.2769 34.0231 37.4577C34.1372 35.9192 33.995 34.3133 33.384 32.8844C33.1236 32.2732 32.7829 31.7084 32.3817 31.1787C32.1762 30.9061 31.9664 30.6167 31.7257 30.3736C31.4385 30.0828 31.095 29.8299 30.774 29.5784C29.5591 28.6244 28.2696 27.8895 26.8731 27.239C26.2424 26.9454 25.4527 27.0465 24.9797 27.6015C24.5672 28.0834 24.456 28.7031 24.2167 29.2679C24.0829 29.5826 24.1224 29.9451 24.4433 30.1334C24.7094 30.2879 25.1754 30.2233 25.3105 29.9072L25.3091 29.9015Z" fill="#101841"/>
<path d="M30.0339 31.2C28.6993 30.6507 27.3042 30.2586 25.8768 30.0465C25.3024 29.9608 24.2705 29.6461 23.8904 30.2671C23.7144 30.5551 23.7074 30.9471 23.6497 31.2717C23.5849 31.6426 23.5188 32.0135 23.454 32.3844C23.3949 32.7202 23.5441 33.0659 23.896 33.1628C24.2015 33.2471 24.6154 33.0589 24.6759 32.7217C24.7337 32.3943 24.7914 32.0669 24.8491 31.7395C24.8885 31.5147 24.911 31.0427 24.9842 30.905C24.9082 30.9808 24.8322 31.0567 24.7576 31.1312C24.6154 31.2225 24.7491 31.1719 24.8632 31.1832C24.9716 31.1944 25.08 31.2056 25.1884 31.2183C25.3925 31.2422 25.5952 31.2717 25.7993 31.3054C26.2526 31.3799 26.7017 31.4712 27.148 31.5808C28.0194 31.7943 28.8697 32.0767 29.6988 32.4182C30.0156 32.5488 30.3957 32.2777 30.4787 31.977C30.5787 31.6145 30.3535 31.3293 30.0367 31.1986L30.0339 31.2Z" fill="#101841"/>
<path d="M28.4306 33.1222C27.1889 32.8524 25.936 32.6473 24.6733 32.504C24.3762 32.4703 24.0651 32.4197 23.7906 32.5785C23.533 32.7288 23.4246 33 23.3429 33.2697C23.1684 33.8472 23.105 34.4668 23.1304 35.0682C23.1642 35.8788 24.4325 35.8831 24.3974 35.0682C24.3861 34.7871 24.3861 34.5033 24.4255 34.2237C24.4438 34.0987 24.4706 33.9736 24.4987 33.85C24.5184 33.7671 24.5395 33.6856 24.5649 33.6041C24.6184 33.4552 24.617 33.4425 24.5592 33.569C24.4663 33.6238 24.3734 33.6772 24.2791 33.732C24.5114 33.6645 24.9098 33.7924 25.1505 33.8233C25.4799 33.8655 25.8093 33.9146 26.1373 33.968C26.7934 34.0734 27.4452 34.1984 28.0927 34.3389C28.8881 34.5118 29.2274 33.2922 28.4292 33.1194L28.4306 33.1222Z" fill="#101841"/>
<path d="M26.5545 35.3961C25.9773 35.3764 25.4058 35.4102 24.8342 35.4902C24.2965 35.5647 23.6095 35.6307 23.4335 36.2518C23.3012 36.721 23.5363 37.3533 23.6855 37.7973C23.8629 38.3242 24.098 38.8314 24.3809 39.3091C24.7962 40.0088 25.8929 39.3723 25.4748 38.6712C25.2664 38.3214 25.0834 37.9589 24.9454 37.5753C24.8779 37.387 24.8187 37.1945 24.7681 37.0006C24.7427 36.9037 24.7188 36.8067 24.6991 36.7084C24.6906 36.6691 24.6836 36.6297 24.6751 36.5904C24.6484 36.4471 24.6456 36.433 24.6667 36.5454C24.6118 36.6381 24.5583 36.7309 24.5034 36.825C24.4682 36.8686 24.4189 36.8405 24.5301 36.818C24.6357 36.7969 24.7427 36.7758 24.8483 36.7576C25.0271 36.7267 25.2059 36.7042 25.3875 36.6873C25.776 36.6522 26.1646 36.6452 26.5531 36.6592C27.3682 36.6873 27.3682 35.4228 26.5531 35.3947L26.5545 35.3961Z" fill="#101841"/>
<path d="M42.2925 68.215C42.4755 68.17 42.6458 68.1124 42.8077 68.045C45.4881 65.315 45.7162 60.3637 45.7274 56.7851C45.5008 56.0461 45.2164 55.3337 44.8757 54.6649C44.8082 54.5329 44.7983 54.4036 44.8222 54.287C44.7547 54.1942 44.6885 54.1015 44.6181 54.0102C44.1324 53.3723 43.3469 53.1939 42.6979 53.4018C42.3685 52.9143 42.0166 52.445 41.6393 51.994C40.2231 49.4973 38.5929 47.1284 36.7684 44.907C36.7586 43.8982 36.0237 42.5845 35.1087 42.836C33.9318 43.1592 32.3931 44.1357 31.2852 44.8832C30.9952 44.8944 30.7122 44.9562 30.4405 45.0574C30.2758 45.0504 30.1153 45.063 29.9717 45.0981C29.3101 45.2611 28.9004 45.7402 28.8244 46.336C28.6639 46.5636 28.5316 46.808 28.4331 47.0595C27.8629 48.518 28.5443 50.0045 29.1496 51.3238C29.586 52.2736 30.0562 53.2065 30.532 54.1366C30.822 55.0316 31.1557 55.914 31.5498 56.7739C32.0003 57.7574 32.5057 58.7142 33.097 59.6162C33.6474 61.0325 34.1739 62.4586 34.9397 63.7723C35.9815 65.5581 37.4343 67.1865 39.1968 68.3021C40.2189 68.385 41.2902 68.4622 42.2911 68.2164L42.2925 68.215Z" fill="#C3C3C3"/>
<path d="M41.5938 53.3012C39.8482 49.4388 38.104 45.5764 36.3583 41.7126C36.2513 41.4765 35.8839 41.336 35.6432 41.4217C34.0721 41.9823 32.5405 42.6539 31.0722 43.4435C30.343 43.8355 29.6292 44.2556 28.9338 44.7038C28.2764 45.1268 27.4782 45.5581 27.3275 46.3955C27.1896 47.1528 27.4556 48.0057 27.6049 48.7475C27.771 49.5723 27.961 50.3914 28.1736 51.2063C28.5847 52.7729 29.0816 54.317 29.6616 55.8288C30.7991 58.7892 32.2054 61.7454 34.0482 64.339C34.9224 65.5698 35.9318 66.7023 37.1819 67.565C38.4545 68.4431 40.0833 69.0712 41.6389 68.6693C43.0354 68.3082 44.1799 67.1491 45.0991 66.0939C45.9353 65.1329 46.6491 64.0679 47.2051 62.9214C48.3116 60.6354 48.8156 58.126 48.9578 55.604C49.245 50.5164 48.1455 45.4668 47.2544 40.4874C47.025 39.2032 46.7772 37.7068 45.8129 36.7402C45.1723 36.0967 44.3009 35.685 43.4774 35.3323C41.4122 34.4486 39.233 33.8767 37.0749 33.2684C36.7103 33.1658 36.3443 33.0618 35.9825 32.9466C35.204 32.7007 34.8703 33.9203 35.646 34.1662C37.4733 34.745 39.34 35.1834 41.1574 35.7988C42.0893 36.1135 43.0213 36.4564 43.8885 36.9256C44.0701 37.024 44.2488 37.128 44.4206 37.2404C44.6304 37.3781 44.636 37.3795 44.7979 37.5228C44.857 37.5762 44.9161 37.631 44.971 37.69C45.0076 37.7293 45.1118 37.8628 45.0302 37.7504C45.2357 38.03 45.399 38.3489 45.5201 38.6749C45.9593 39.8635 46.0944 41.1744 46.3225 42.4165C46.5351 43.5728 46.7462 44.7277 46.9391 45.8869C47.3333 48.2557 47.65 50.6429 47.7204 53.0469C47.8569 57.7087 46.9447 62.5266 43.5168 65.9337C43.048 66.3988 42.5539 66.8582 41.9725 67.18C41.3559 67.5214 40.6633 67.6071 39.9749 67.4624C38.6206 67.1772 37.4423 66.3061 36.4921 65.3324C35.5165 64.332 34.7366 63.1672 34.0257 61.9702C33.2444 60.6537 32.5334 59.2936 31.8957 57.9012C30.6133 55.1024 29.6405 52.1603 28.9817 49.155C28.8268 48.4496 28.648 47.7275 28.5692 47.0095C28.5368 46.7088 28.5621 46.5121 28.8029 46.314C29.0858 46.0822 29.4251 45.8925 29.7334 45.6958C31.0581 44.8542 32.4476 44.1109 33.8835 43.4745C34.5705 43.1696 35.2715 42.8956 35.9797 42.6427C35.7417 42.5457 35.5024 42.4488 35.2645 42.3518C37.0101 46.2142 38.7544 50.0781 40.5 53.9405C40.6408 54.2524 41.094 54.3268 41.3672 54.1667C41.6881 53.9798 41.736 53.6145 41.5938 53.3012Z" fill="#101841"/>
<path d="M25.7974 26.0447C26.0368 25.5908 26.69 25.4503 27.0644 25.8142C27.6486 26.3819 28.5454 25.4883 27.9598 24.9206C27.0236 24.0102 25.3216 24.2322 24.7036 25.4068C24.3249 26.1261 25.4173 26.7668 25.7974 26.0447Z" fill="#101841"/>
<path d="M27.4828 13.8887C28.1163 14.5336 28.9975 14.7738 29.8774 14.601C30.677 14.4451 30.3377 13.2255 29.5409 13.3815C29.1073 13.4658 28.6836 13.3028 28.3795 12.9937C27.808 12.412 26.9126 13.3056 27.4842 13.8873L27.4828 13.8887Z" fill="#101841"/>
<path d="M22.7525 17.3281C21.9374 17.3281 21.936 18.5926 22.7525 18.5926C23.569 18.5926 23.569 17.3281 22.7525 17.3281Z" fill="#101841"/>
<path d="M30.4506 17.6395C30.4253 17.5608 30.3817 17.4933 30.3197 17.4357C30.262 17.3739 30.1944 17.3304 30.1156 17.3051C30.0396 17.2657 29.9593 17.2475 29.8721 17.2503C29.8157 17.2573 29.7594 17.2657 29.7031 17.2728C29.5961 17.3023 29.5032 17.3571 29.423 17.4357L29.3244 17.5636C29.2667 17.662 29.2386 17.7687 29.2386 17.8825V17.9542C29.2357 18.0413 29.254 18.1228 29.2935 18.1973C29.3188 18.2759 29.3624 18.3434 29.4244 18.401C29.4821 18.4628 29.5497 18.5064 29.6285 18.5317C29.7045 18.571 29.7848 18.5893 29.8721 18.5865C29.9284 18.5794 29.9847 18.571 30.041 18.564C30.148 18.5345 30.2409 18.4797 30.3211 18.401C30.3535 18.3588 30.3873 18.3153 30.4197 18.2731C30.4774 18.1748 30.5055 18.068 30.5055 17.9542V17.8825C30.5084 17.7954 30.4901 17.7139 30.4506 17.6395Z" fill="#101841"/>
<path d="M37.8829 6.52644C37.8534 6.41966 37.7985 6.32692 37.7196 6.24684C37.6774 6.21452 37.6338 6.1808 37.5915 6.14849C37.493 6.09088 37.386 6.06278 37.272 6.06278H37.2002C37.1129 6.05997 37.0312 6.07824 36.9566 6.11758C36.8778 6.14287 36.8102 6.18642 36.7525 6.24824C36.6906 6.30585 36.6469 6.37329 36.6216 6.45197C36.5822 6.52784 36.5639 6.60793 36.5667 6.69504C36.5737 6.75124 36.5822 6.80744 36.5892 6.86364C36.6188 6.97043 36.6737 7.06316 36.7525 7.14324L36.8806 7.24159C36.9792 7.2992 37.0862 7.3273 37.2002 7.3273H37.272C37.3593 7.33011 37.4409 7.31185 37.5155 7.2725C37.5944 7.24721 37.6619 7.20366 37.7196 7.14184C37.7816 7.08423 37.8252 7.01679 37.8506 6.93811C37.89 6.86224 37.9083 6.78215 37.9055 6.69504C37.8984 6.63884 37.89 6.58264 37.8829 6.52644Z" fill="#101841"/>
<path d="M36.6642 1.29206C36.6346 1.18528 36.5797 1.09255 36.5009 1.01246C36.4587 0.980148 36.415 0.946428 36.3728 0.914112C36.2742 0.856506 36.1673 0.828406 36.0532 0.828406H35.9814C35.8941 0.825596 35.8125 0.843861 35.7379 0.883202C35.6591 0.908492 35.5915 0.952048 35.5338 1.01387C35.4718 1.07147 35.4282 1.13892 35.4028 1.2176C35.3634 1.29347 35.3451 1.37355 35.3479 1.46067C35.355 1.51687 35.3634 1.57307 35.3705 1.62927C35.4 1.73605 35.4549 1.82878 35.5338 1.90887L35.6619 2.00722C35.7604 2.06483 35.8674 2.09293 35.9814 2.09293H36.0532C36.1405 2.09574 36.2222 2.07747 36.2968 2.03813C36.3756 2.01284 36.4432 1.96928 36.5009 1.90746C36.5628 1.84986 36.6065 1.78242 36.6318 1.70374C36.6712 1.62786 36.6895 1.54778 36.6867 1.46067C36.6797 1.40447 36.6712 1.34826 36.6642 1.29206Z" fill="#101841"/>
</g>
<defs>
<clipPath id="clip0_171_5329">
<rect width="49" height="71" fill="white"/>
</clipPath>
</defs>
</svg>
