<svg width="260" height="41" viewBox="0 0 260 41" fill="none" xmlns="http://www.w3.org/2000/svg">
<path d="M33.3125 25.053V12.027L34.6657 9.21652L41.433 3.86649C42.3352 3.11115 43.6884 3.74551 43.6884 4.92374V30.4924C43.6884 31.6711 42.3051 32.306 41.4024 31.5502L33.3125 25.053Z" fill="#00AC47"/>
<path d="M10.922 0L0 10.8995H10.922V0Z" fill="#EA4335"/>
<path d="M10.922 10.8984H0V25.0678H10.922V10.8984Z" fill="#2684FC"/>
<path d="M0 25.0703V32.3365C0 34.3349 1.6383 35.9698 3.64085 35.9698H10.922V25.0703H0Z" fill="#0066DA"/>
<path d="M34.6772 3.59139C34.6772 1.6164 33.0739 0 31.1139 0H10.9219V10.8995H24.3013V17.9842L34.6772 17.6583V3.59139Z" fill="#FFBA00"/>
<path d="M24.3013 25.0691H10.9219V35.9686H31.1139C33.0739 35.9686 34.6772 34.3549 34.6772 32.3826V17.9844H24.3013V25.0691Z" fill="#00AC47"/>
<path d="M34.6767 9.26562V26.1599L24.3008 17.9852L34.6767 9.26562Z" fill="#00832D"/>
<path d="M187.914 31.1756H184.699V6.20262H187.914L196.617 21.4096H196.757L205.46 6.20262H208.675V31.1756H205.46V16.3522L205.599 12.1668H205.46L197.631 25.8741H195.743L187.914 12.1668H187.775L187.914 16.3522V31.1756ZM220.841 31.7336C218.324 31.7336 216.251 30.8731 214.62 29.1526C212.988 27.4321 212.173 25.2577 212.173 22.6304C212.173 20.0259 212.965 17.8635 214.55 16.143C216.134 14.399 218.161 13.5271 220.631 13.5271C223.171 13.5271 225.186 14.3527 226.678 16.0035C228.192 17.6313 228.949 19.9218 228.949 22.8745L228.914 23.2233H215.458C215.505 24.8975 216.064 26.2463 217.136 27.2692C218.208 28.2921 219.489 28.8038 220.981 28.8038C223.031 28.8038 224.639 27.7809 225.804 25.7345L228.67 27.1297C227.901 28.5711 226.829 29.6992 225.454 30.5129C224.103 31.3265 222.565 31.7336 220.841 31.7336ZM215.703 20.5725H225.524C225.431 19.3867 224.941 18.4101 224.056 17.6427C223.194 16.8525 222.029 16.4569 220.561 16.4569C219.349 16.4569 218.301 16.8291 217.416 17.573C216.553 18.3169 215.983 19.3169 215.703 20.5725ZM239.75 31.7336C237.233 31.7336 235.16 30.8731 233.528 29.1526C231.897 27.4321 231.082 25.2577 231.082 22.6304C231.082 20.0259 231.874 17.8635 233.459 16.143C235.043 14.399 237.07 13.5271 239.54 13.5271C242.08 13.5271 244.095 14.3527 245.587 16.0035C247.101 17.6313 247.858 19.9218 247.858 22.8745L247.823 23.2233H234.367C234.414 24.8975 234.973 26.2463 236.045 27.2692C237.117 28.2921 238.398 28.8038 239.89 28.8038C241.94 28.8038 243.548 27.7809 244.713 25.7345L247.579 27.1297C246.81 28.5711 245.738 29.6992 244.363 30.5129C243.012 31.3265 241.474 31.7336 239.75 31.7336ZM234.612 20.5725H244.433C244.34 19.3867 243.85 18.4101 242.965 17.6427C242.103 16.8525 240.938 16.4569 239.47 16.4569C238.258 16.4569 237.21 16.8291 236.325 17.573C235.462 18.3169 234.892 19.3169 234.612 20.5725ZM257.067 31.4546C255.669 31.4546 254.504 31.0241 253.572 30.1641C252.664 29.3036 252.198 28.1063 252.174 26.5716V17.0149H249.168V14.0851H252.174V8.85338H255.39V14.0851H259.584V17.0149H255.39V25.5253C255.39 26.6643 255.611 27.4436 256.054 27.8621C256.497 28.2572 256.997 28.4551 257.557 28.4551C257.813 28.4551 258.057 28.4316 258.291 28.3853C258.529 28.3216 258.763 28.24 258.99 28.1412L260.003 31.0012C259.164 31.3036 258.186 31.4546 257.067 31.4546ZM78.682 20.5943V16.7817H91.4691C91.5996 17.4536 91.6766 18.2531 91.6766 19.1191C91.6766 21.9786 90.8919 25.5182 88.3688 28.0376C85.913 30.5903 82.7762 31.9516 78.6159 31.9516C70.9087 31.9516 64.4297 25.6882 64.4297 17.9953C64.4297 10.3025 70.9087 4.03906 78.6159 4.03906C82.8783 4.03906 85.913 5.70723 88.1985 7.88605L85.504 10.5755C83.8667 9.04303 81.6506 7.85226 78.6159 7.85226C72.9894 7.85226 68.5899 12.3794 68.5899 17.9959C68.5899 23.6124 72.9894 28.1401 78.6159 28.1401C82.265 28.1401 84.3451 26.6763 85.6743 25.3487C86.7584 24.2675 87.4716 22.7154 87.749 20.5949L78.682 20.5943ZM111.162 22.9661C111.162 28.1401 107.104 31.9527 102.125 31.9527C97.1464 31.9527 93.0883 28.1401 93.0883 22.9661C93.0883 17.7577 97.1464 13.9794 102.125 13.9794C107.105 13.9794 111.162 17.7572 111.162 22.9661ZM107.207 22.9661C107.207 19.7316 104.854 17.5196 102.126 17.5196C99.398 17.5196 97.0443 19.7322 97.0443 22.9661C97.0443 26.1651 99.3969 28.412 102.126 28.412C104.854 28.412 107.207 26.1656 107.207 22.9661ZM130.876 22.9661C130.876 28.1401 126.818 31.9527 121.839 31.9527C116.86 31.9527 112.802 28.1401 112.802 22.9661C112.802 17.7577 116.86 13.9794 121.839 13.9794C126.819 13.9794 130.876 17.7572 130.876 22.9661ZM126.921 22.9661C126.921 19.7316 124.568 17.5196 121.84 17.5196C119.112 17.5196 116.758 19.7322 116.758 22.9661C116.758 26.1651 119.111 28.412 121.84 28.412C124.568 28.412 126.921 26.1656 126.921 22.9661ZM149.773 14.5233V30.6578C149.773 37.2957 145.851 40.0189 141.213 40.0189C136.848 40.0189 134.223 37.0913 133.233 34.7092L136.677 33.2792C137.291 34.743 138.791 36.4787 141.213 36.4787C144.18 36.4787 146.021 34.6405 146.021 31.2028V29.9091H145.885C144.998 30.9979 143.293 31.9511 141.145 31.9511C136.643 31.9511 132.517 28.0365 132.517 22.9988C132.517 17.9267 136.643 13.9783 141.145 13.9783C143.293 13.9783 144.998 14.9315 145.885 15.9871H146.021V14.5233H149.773ZM146.294 22.9993C146.294 19.8335 144.179 17.519 141.485 17.519C138.758 17.519 136.472 19.8335 136.472 22.9993C136.472 26.1307 138.757 28.412 141.485 28.412C144.18 28.412 146.294 26.1302 146.294 22.9993ZM156.472 5.08106V31.4077H152.517V5.08106H156.472ZM171.748 25.9264L174.817 27.9684C173.828 29.4322 171.441 31.9511 167.315 31.9511C162.199 31.9511 158.38 28.0022 158.38 22.9644C158.38 17.6204 162.233 13.9778 166.871 13.9778C171.543 13.9778 173.828 17.6885 174.578 19.6968L174.987 20.718L162.949 25.6877C163.87 27.4915 165.303 28.4109 167.315 28.4109C169.326 28.412 170.725 27.4245 171.748 25.9264ZM162.301 22.693L170.349 19.3578C169.905 18.2346 168.576 17.4515 167.007 17.4515C164.996 17.4509 162.199 19.221 162.301 22.693Z" fill="#5F6368"/>
</svg>
