<svg width="97" height="45" viewBox="0 0 97 45" fill="none" xmlns="http://www.w3.org/2000/svg">
<path d="M83.6868 27.7382H13.0723C5.87097 27.7382 0.03125 28.4279 0.03125 29.2816H96.7279C96.7279 28.4279 90.8882 27.7344 83.6831 27.7344" fill="#2D2D2D"/>
<path d="M48.381 12.2303L48.2437 11.4114L48.2808 10.5125L48.1176 9.77356L48.2697 9.12224L48.3698 10.1621L48.5331 11.1524L49.1193 9.52598L49.1675 10.7486L48.9152 11.3999L48.9264 12.6988L48.8002 13.0263L48.778 13.2282H49.2937V11.8532L49.7018 11.3085V10.4363L50.2212 9.24032V8.10527L50.6404 8.93942V9.34316H51.1339L51.375 8.88609L50.9929 8.35285V7.03879L49.8131 4.69634V4.31926H50.1321L50.1952 3.6946L50.0542 3.09661L50.5254 2.61669L50.4994 2.05679L50.2064 2.41863L50.0542 2.38054L49.776 1.90063L49.4977 2.12154L49.0785 1.90063V1.68352H48.9783V1.13885H49.3419V0.803671H49.0636L49.0673 0H48.3958L47.5091 0.700832V1.00173H47.9395V1.27597L48.1435 1.48165V1.70637H47.9766V1.93871L47.7725 2.19772H47.216L46.9377 2.52528V3.21469L46.051 4.69634H45.6578L45.3906 5.11531L45.5798 5.19149L45.988 5.10008L46.103 5.36289L47.1789 4.38401L47.5833 3.64509L47.4683 4.82584L46.3553 7.14544L46.2514 8.47093L45.936 8.69184V9.10701L46.2922 9.51075H46.6446L46.7968 8.63852L47.1789 7.59869V8.83658L47.5351 9.77356V10.2916L47.7354 10.6953L47.8875 12.0513L47.6983 12.4398V13.2282H48.381V12.2303Z" fill="#2D2D2D"/>
<path d="M50.7285 14.1401V13.5078H46.0352V14.1401" fill="#2D2D2D"/>
<path d="M51.0252 15.5379V14.4219H45.7383V15.5379" fill="#2D2D2D"/>
<path d="M50.8958 16.6278L51.6823 15.8203H45.082L45.8686 16.6278V22.9848H50.8958V16.6278Z" fill="#2D2D2D"/>
<path d="M51.6823 25.7492V24.3932L51.1295 23.8257V23.2734H45.6348V23.8257L45.082 24.3932V25.7492" fill="#2D2D2D"/>
<path d="M52.5655 26.0547H44.1992V26.592H52.5655V26.0547Z" fill="#2D2D2D"/>
<path d="M53.763 26.875H43V27.4199H53.763V26.875Z" fill="#2D2D2D"/>
<path d="M45.7383 15.5391V15.5502H51.0252V15.5391" fill="white"/>
<path d="M45.082 25.75V25.7797H51.6823V25.75" fill="white"/>
<path d="M46.0352 14.1406V14.1518H50.7285V14.1406" fill="white"/>
<path d="M48.3817 13.2266H47.6953V13.234H48.3817V13.2266Z" fill="white"/>
<path d="M49.2929 13.2266H48.7734V13.234H49.2929V13.2266Z" fill="white"/>
<path d="M86.9382 27.4257V26.1612C86.3929 26.0202 86.0144 25.4984 86.0367 24.9233C85.5989 24.6871 85.3503 24.2034 85.406 23.693C85.4134 23.6473 85.4208 23.6016 85.4282 23.5597C85.2279 23.5102 85.0721 23.4035 84.9533 23.2512C84.8124 23.0683 84.7493 22.8398 84.7752 22.6037C84.8012 22.3751 84.9088 22.1733 85.0795 22.0285C84.894 21.7771 84.8086 21.461 84.8457 21.1487C84.8903 20.7526 85.124 20.4021 85.4653 20.2117C85.3911 20.0213 85.3614 19.8118 85.3874 19.6061C85.4394 19.1566 85.7325 18.7719 86.1406 18.6082C86.1406 18.5967 86.1406 18.5815 86.1406 18.5701C86.1925 18.1282 86.5561 17.7969 86.9902 17.7969C87.0236 17.7969 87.057 17.7969 87.0904 17.8007C87.4317 17.8426 87.7137 18.094 87.8101 18.4253C87.8287 18.4253 87.8435 18.4253 87.8621 18.4253C87.8992 18.4253 87.94 18.4253 87.9808 18.433C88.5447 18.5015 88.9528 19.0195 88.9046 19.5985C89.4314 19.7851 89.7691 20.326 89.7023 20.9011C89.6874 21.0382 89.6503 21.1715 89.5873 21.2972C89.7913 21.5524 89.8841 21.8838 89.847 22.2152C89.8173 22.4856 89.6986 22.7332 89.5168 22.9274C89.6763 23.1483 89.7468 23.4188 89.7171 23.693C89.6763 24.0434 89.4722 24.3481 89.1754 24.5157C89.2051 24.6262 89.2163 24.7443 89.2014 24.8585C89.1495 25.3003 88.7859 25.6355 88.3518 25.6355C88.3184 25.6355 88.285 25.6355 88.2516 25.6279C88.2516 25.6279 88.2442 25.6279 88.2405 25.6279C88.1106 25.845 87.9177 26.0126 87.6877 26.1078V27.4257H86.9308H86.9382Z" fill="#2D2D2D"/>
<path d="M86.9892 17.9046C87.0189 17.9046 87.0486 17.9046 87.0783 17.9084C87.4159 17.9503 87.6719 18.2131 87.7276 18.5407C87.7721 18.5331 87.8166 18.5293 87.8611 18.5293C87.8945 18.5293 87.9316 18.5293 87.965 18.5369C88.4844 18.5978 88.8554 19.0815 88.7924 19.6148C88.7924 19.6338 88.7849 19.6529 88.7812 19.6719C89.3006 19.809 89.6568 20.3232 89.5937 20.887C89.5752 21.0393 89.527 21.184 89.4565 21.3097C89.6642 21.5421 89.7793 21.862 89.7384 22.201C89.705 22.4905 89.5678 22.7381 89.3674 22.9171C89.5455 23.1189 89.6383 23.3894 89.6049 23.6789C89.5641 24.0369 89.3377 24.3264 89.0372 24.4559C89.0855 24.5739 89.1077 24.7072 89.0892 24.8444C89.0446 25.2367 88.7219 25.5223 88.3471 25.5223C88.3175 25.5223 88.2878 25.5223 88.2581 25.5185C88.2321 25.5185 88.2062 25.5109 88.1802 25.5033C88.0503 25.7509 87.8314 25.9375 87.5754 26.0289V27.3125H87.0338V26.067C86.4735 25.9642 86.0766 25.4386 86.1396 24.8482C85.7167 24.6539 85.4458 24.193 85.5052 23.6979C85.5126 23.6179 85.5312 23.5379 85.5571 23.4656C85.5497 23.4656 85.5386 23.4656 85.5312 23.4656C85.1194 23.416 84.8263 23.0352 84.8745 22.6124C84.9042 22.3686 85.0414 22.1629 85.2307 22.0448C85.0229 21.8125 84.9079 21.4926 84.9487 21.1536C84.9969 20.7422 85.2566 20.4108 85.6017 20.2585C85.5052 20.068 85.4607 19.8433 85.4867 19.6148C85.5386 19.1653 85.8428 18.8111 86.2361 18.6816C86.2361 18.6473 86.2361 18.6131 86.2398 18.5788C86.2843 18.1865 86.6071 17.9008 86.9818 17.9008M86.9892 17.6875C86.5106 17.6875 86.1062 18.0493 86.0395 18.5331C85.6276 18.7235 85.3345 19.1273 85.2826 19.5957C85.2603 19.79 85.2826 19.9842 85.3382 20.1671C85.0118 20.3804 84.7891 20.7384 84.7446 21.1383C84.7075 21.4469 84.7817 21.7592 84.9413 22.0182C84.7929 22.1743 84.6964 22.3724 84.6704 22.5971C84.6185 23.0618 84.8893 23.4922 85.3049 23.6408C85.3049 23.656 85.3049 23.6674 85.3011 23.6827C85.2381 24.2159 85.4904 24.7225 85.9282 24.9891C85.9319 25.5604 86.2992 26.0708 86.8297 26.246V27.5372H87.7981V26.1813C87.9984 26.0822 88.1691 25.9337 88.2989 25.7433C88.3175 25.7433 88.336 25.7433 88.3546 25.7433C88.8406 25.7433 89.2487 25.37 89.3081 24.871C89.3192 24.7682 89.3155 24.6653 89.2969 24.5663C89.5863 24.3759 89.783 24.0597 89.8238 23.7055C89.8535 23.4351 89.7941 23.1647 89.6531 22.9361C89.8201 22.7381 89.9239 22.4905 89.9536 22.2277C89.9907 21.8925 89.9054 21.5535 89.7125 21.2831C89.7607 21.165 89.7941 21.0431 89.8089 20.9136C89.8757 20.3156 89.5455 19.7481 89.015 19.5234C89.0261 18.9216 88.5883 18.3959 87.9947 18.3236C87.9576 18.3198 87.9242 18.316 87.8871 18.316C87.7609 17.9808 87.4604 17.737 87.1043 17.6951C87.0672 17.6913 87.0301 17.6875 86.993 17.6875" fill="white"/>
<path d="M77.9067 27.4601V25.769C77.1758 25.5785 76.6712 24.8815 76.7046 24.1121C76.1221 23.796 75.7845 23.1485 75.8624 22.4705C75.8698 22.4134 75.8772 22.3524 75.8921 22.2953C75.6435 22.2343 75.4209 22.0896 75.2577 21.8801C75.0684 21.6325 74.9831 21.3278 75.0202 21.0155C75.0536 20.7108 75.202 20.4404 75.4283 20.2499C75.1797 19.9147 75.0684 19.492 75.1167 19.073C75.176 18.5435 75.4877 18.0751 75.944 17.8237C75.8439 17.5685 75.8068 17.2904 75.8364 17.0162C75.9032 16.4144 76.2965 15.9002 76.8419 15.6793C76.8419 15.664 76.8419 15.6488 76.8456 15.6298C76.9124 15.0394 77.3984 14.5938 77.9772 14.5938C78.0217 14.5938 78.0662 14.5938 78.1107 14.6014C78.5671 14.6547 78.9455 14.9899 79.0717 15.4355C79.0939 15.4355 79.1162 15.4355 79.1422 15.4355C79.1941 15.4355 79.246 15.4355 79.298 15.4431C79.669 15.4888 80.0029 15.6793 80.2366 15.9802C80.4592 16.2735 80.5668 16.6315 80.5334 17.001C81.2347 17.2485 81.6873 17.976 81.6019 18.7416C81.5797 18.9282 81.5315 19.1035 81.4498 19.271C81.7207 19.6138 81.8468 20.0557 81.7986 20.4975C81.7578 20.8555 81.6019 21.1907 81.3571 21.4497C81.5686 21.743 81.665 22.1086 81.6242 22.4743C81.5723 22.939 81.2977 23.3503 80.897 23.5713C80.9378 23.7198 80.9527 23.876 80.9341 24.0321C80.8673 24.6225 80.3813 25.0681 79.8025 25.0681C79.758 25.0681 79.7135 25.0681 79.669 25.0605C79.6653 25.0605 79.6616 25.0605 79.6579 25.0605C79.4835 25.3462 79.2238 25.5709 78.9195 25.7042V27.4677H77.9104L77.9067 27.4601Z" fill="#2D2D2D"/>
<path d="M77.9738 14.7348C78.0147 14.7348 78.0518 14.7348 78.0926 14.7424C78.5415 14.7957 78.8865 15.15 78.9607 15.588C79.0201 15.5804 79.0795 15.5765 79.1388 15.5765C79.1833 15.5765 79.2316 15.5765 79.2798 15.5842C79.9736 15.668 80.467 16.3117 80.3854 17.0239C80.3854 17.0506 80.378 17.0772 80.3743 17.1001C81.0718 17.2829 81.543 17.9685 81.4576 18.7227C81.4354 18.9284 81.3723 19.1188 81.2758 19.2902C81.5541 19.5987 81.7062 20.0291 81.6543 20.4786C81.6098 20.8633 81.4243 21.1984 81.1608 21.4346C81.3983 21.7012 81.5244 22.0669 81.4799 22.4554C81.4243 22.9353 81.1237 23.32 80.7193 23.4952C80.7861 23.6552 80.8121 23.8304 80.7898 24.0132C80.7305 24.535 80.2964 24.9197 79.7992 24.9197C79.7584 24.9197 79.7213 24.9197 79.6805 24.9121C79.6471 24.9083 79.61 24.9007 79.5766 24.893C79.4022 25.2244 79.1129 25.4758 78.7678 25.5977V27.3155H78.0406V25.651C77.2912 25.5139 76.7606 24.8092 76.8423 24.0246C76.2783 23.7656 75.9147 23.1486 75.9926 22.4858C76.0038 22.3792 76.0298 22.2725 76.0631 22.1735C76.052 22.1735 76.0409 22.1735 76.0298 22.1735C75.4807 22.1088 75.0874 21.5984 75.1542 21.0347C75.1913 20.7071 75.3768 20.4367 75.6291 20.2767C75.3508 19.9682 75.1987 19.5416 75.2506 19.0883C75.3137 18.5398 75.6587 18.0942 76.1225 17.8885C75.9927 17.6333 75.937 17.3362 75.9704 17.0277C76.0372 16.4259 76.4453 15.9536 76.9721 15.7784C76.9721 15.7327 76.9721 15.687 76.9795 15.6413C77.0389 15.1195 77.473 14.7348 77.9701 14.7348M77.9738 14.4453C77.3357 14.4453 76.794 14.929 76.705 15.5727C76.1522 15.8279 75.7626 16.365 75.6921 16.9934C75.6624 17.2524 75.6884 17.5115 75.7663 17.7552C75.3322 18.0409 75.0354 18.517 74.9724 19.0502C74.9241 19.4654 75.0206 19.8768 75.2358 20.2234C75.0354 20.429 74.9093 20.6995 74.8759 20.9966C74.8054 21.6212 75.169 22.1926 75.7255 22.3944C75.7255 22.4135 75.7218 22.4325 75.7181 22.4516C75.6365 23.1638 75.9704 23.8418 76.5566 24.196C76.5603 24.9616 77.0537 25.6434 77.7624 25.8795V27.6088H79.0535V25.7957C79.3206 25.6624 79.5506 25.4606 79.7213 25.213C79.7473 25.213 79.7733 25.213 79.7992 25.213C80.4485 25.213 80.9976 24.714 81.0718 24.0513C81.0866 23.9142 81.0829 23.777 81.057 23.6437C81.4428 23.3885 81.7062 22.9696 81.7619 22.4935C81.8027 22.1316 81.7211 21.7698 81.5356 21.4651C81.7582 21.1984 81.8991 20.8709 81.9362 20.5166C81.9882 20.0672 81.8695 19.6178 81.6135 19.2559C81.6803 19.0998 81.7211 18.9322 81.7433 18.7608C81.8361 17.9609 81.3871 17.2067 80.6822 16.902C80.6971 16.0946 80.1109 15.3937 79.3169 15.2985C79.2687 15.2947 79.2204 15.2909 79.1759 15.2871C79.0053 14.8414 78.6046 14.5139 78.1297 14.4567C78.0777 14.4491 78.0295 14.4491 77.9776 14.4491" fill="white"/>
<path d="M82.9179 27.4319V26.0188C82.3094 25.8589 81.8827 25.2799 81.9124 24.6324C81.4227 24.3696 81.1444 23.8287 81.2075 23.2574C81.2149 23.2079 81.2223 23.1546 81.2335 23.1089C80.7549 22.9832 80.4469 22.5337 80.5026 22.0462C80.5323 21.791 80.6547 21.5625 80.8439 21.4025C80.6361 21.1206 80.5434 20.7702 80.5842 20.416C80.6361 19.9742 80.8958 19.5819 81.2743 19.3724C81.1889 19.1591 81.1593 18.9267 81.1852 18.6944C81.2446 18.1916 81.5674 17.7612 82.0237 17.5784C82.0237 17.5632 82.0237 17.5517 82.0237 17.5365C82.0794 17.0413 82.4875 16.6719 82.9698 16.6719C83.0069 16.6719 83.044 16.6719 83.0811 16.6795C83.4595 16.7252 83.7786 17.0071 83.8862 17.3765C83.9047 17.3765 83.9233 17.3765 83.9456 17.3765C83.9901 17.3765 84.0309 17.3765 84.0754 17.3841C84.3871 17.4222 84.6653 17.5822 84.8582 17.8336C85.0475 18.0773 85.1328 18.3782 85.1068 18.6868C85.693 18.8924 86.0714 19.5019 85.9972 20.1418C85.9787 20.2979 85.9379 20.4465 85.8711 20.5836C86.0974 20.8692 86.205 21.2387 86.1605 21.6082C86.1271 21.9091 85.9972 22.1871 85.7932 22.4042C85.9713 22.648 86.0492 22.9565 86.0158 23.2612C85.9713 23.6497 85.7412 23.9925 85.4073 24.1792C85.4407 24.3048 85.4519 24.4344 85.437 24.5639C85.3814 25.059 84.9733 25.4285 84.4909 25.4285C84.4538 25.4285 84.4167 25.4285 84.3796 25.4208C84.3759 25.4208 84.3722 25.4208 84.3685 25.4208C84.2238 25.6608 84.0086 25.8474 83.7526 25.9579V27.4319H82.9104H82.9179Z" fill="#2D2D2D"/>
<path d="M82.976 16.7985C83.0093 16.7985 83.0427 16.7985 83.0761 16.8023C83.4546 16.848 83.7402 17.1451 83.8033 17.5107C83.8515 17.5031 83.9035 17.4993 83.9517 17.4993C83.9888 17.4993 84.0296 17.4993 84.0704 17.5069C84.6492 17.5755 85.0647 18.1163 84.9943 18.7105C84.9943 18.7334 84.9868 18.7524 84.9831 18.7753C85.5656 18.9276 85.9626 19.5028 85.8884 20.1312C85.8698 20.3026 85.8142 20.4626 85.7363 20.6035C85.97 20.8625 86.0962 21.2206 86.0516 21.5976C86.0145 21.9214 85.8587 22.1994 85.6398 22.3975C85.8364 22.6222 85.944 22.9269 85.9069 23.2507C85.8624 23.6506 85.6064 23.9744 85.2725 24.1229C85.3282 24.2562 85.3504 24.4048 85.3319 24.5571C85.2799 24.9951 84.92 25.3151 84.5008 25.3151C84.4674 25.3151 84.434 25.3151 84.4006 25.3113C84.371 25.3113 84.345 25.3037 84.3153 25.296C84.1706 25.5741 83.9257 25.7836 83.6401 25.8826V27.3186H83.0316V25.9283C82.4046 25.814 81.9631 25.2237 82.0299 24.5685C81.5587 24.3514 81.2545 23.8372 81.3212 23.2812C81.3324 23.1897 81.3509 23.1059 81.3806 23.0221C81.3732 23.0221 81.3621 23.0221 81.3509 23.0221C80.8909 22.9688 80.5644 22.5384 80.6163 22.0699C80.6497 21.7957 80.8018 21.571 81.0133 21.4377C80.7796 21.1787 80.6534 20.8206 80.6979 20.4435C80.7499 19.9827 81.0393 19.6132 81.4251 19.4418C81.3175 19.2285 81.2693 18.9809 81.299 18.7219C81.3546 18.2192 81.696 17.823 82.1375 17.6783C82.1375 17.6402 82.1375 17.6021 82.1412 17.564C82.1894 17.126 82.553 16.8061 82.9722 16.8061M82.976 16.5547C82.4417 16.5547 81.9891 16.9584 81.9149 17.4993C81.4548 17.7126 81.1283 18.162 81.069 18.6877C81.043 18.9048 81.069 19.1219 81.132 19.3237C80.7684 19.5637 80.5199 19.9598 80.4679 20.4093C80.4271 20.7559 80.5087 21.1025 80.6905 21.392C80.5236 21.5634 80.416 21.7919 80.3863 22.0395C80.3269 22.5613 80.6312 23.0412 81.0949 23.2088C81.0949 23.224 81.0912 23.2393 81.0875 23.2545C81.0207 23.8487 81.299 24.4162 81.7887 24.7133C81.7924 25.3532 82.2042 25.9245 82.7979 26.1188V27.5623H83.8775V26.0464C84.1001 25.9359 84.293 25.7683 84.4377 25.5589C84.46 25.5589 84.4823 25.5589 84.5008 25.5589C85.0462 25.5589 85.5025 25.1399 85.5656 24.5838C85.5804 24.4695 85.573 24.3553 85.5545 24.2448C85.8773 24.0315 86.0962 23.6773 86.1444 23.2812C86.1778 22.9802 86.111 22.6755 85.9552 22.4203C86.1407 22.1956 86.2594 21.9214 86.2928 21.6281C86.3373 21.251 86.2371 20.8739 86.0219 20.573C86.0776 20.4435 86.111 20.3026 86.1295 20.1617C86.2075 19.4951 85.8327 18.8591 85.2428 18.6077C85.254 17.9335 84.7642 17.3469 84.1001 17.2669C84.0593 17.2631 84.0222 17.2593 83.9814 17.2593C83.8404 16.8861 83.5028 16.6118 83.1058 16.5623C83.065 16.5585 83.0205 16.5547 82.9797 16.5547" fill="white"/>
<path d="M71.8964 27.2258V25.1576C70.9949 24.9367 70.3679 24.0759 70.4161 23.1199C69.6963 22.7428 69.2845 21.9506 69.3773 21.1202C69.3847 21.0402 69.3995 20.9564 69.4218 20.8765C68.7354 20.7279 68.2605 20.0614 68.3458 19.3339C68.3904 18.9568 68.5722 18.6216 68.8616 18.3931C68.5499 17.9817 68.4052 17.4637 68.4646 16.9419C68.5388 16.2906 68.9246 15.7193 69.4886 15.4145C69.3587 15.0984 69.3105 14.7518 69.3476 14.409C69.4329 13.6739 69.9115 13.0492 70.583 12.7864C70.583 12.7598 70.583 12.7331 70.5905 12.7064C70.6721 11.998 71.2583 11.4609 71.9521 11.4609C72.004 11.4609 72.0597 11.4609 72.1153 11.4724C72.6718 11.5409 73.1319 11.9523 73.2766 12.5008C73.3137 12.5008 73.3508 12.4969 73.3879 12.4969C73.451 12.4969 73.514 12.497 73.5771 12.5084C74.4972 12.6188 75.1613 13.472 75.0649 14.4166C75.9293 14.7099 76.4858 15.5936 76.3782 16.5305C76.3523 16.7629 76.2892 16.9838 76.1853 17.1895C76.5229 17.6085 76.6825 18.1493 76.6194 18.6902C76.5675 19.1358 76.3745 19.5434 76.0666 19.8595C76.3337 20.2175 76.4561 20.667 76.4042 21.1202C76.3374 21.6916 75.9998 22.1943 75.5064 22.4571C75.562 22.6438 75.5806 22.8418 75.5583 23.0361C75.4767 23.7445 74.8942 24.2816 74.1967 24.2816C74.1448 24.2816 74.0891 24.2816 74.0334 24.2702C74.0223 24.2702 74.0075 24.2702 73.9963 24.2664C73.7812 24.6282 73.4584 24.9101 73.0725 25.07V27.2258H71.8964Z" fill="#2D2D2D"/>
<path d="M71.9487 11.6058C71.9969 11.6058 72.0451 11.6058 72.0934 11.6134C72.6462 11.682 73.0728 12.1162 73.1619 12.6532C73.2361 12.6418 73.3066 12.638 73.3808 12.638C73.4364 12.638 73.4958 12.638 73.5514 12.6494C74.4048 12.7523 75.0132 13.5445 74.913 14.4205C74.9093 14.4548 74.9019 14.4853 74.8982 14.5158C75.7552 14.7405 76.3377 15.5861 76.2301 16.5116C76.2005 16.763 76.1225 16.9991 76.0075 17.2086C76.3489 17.5895 76.5344 18.1151 76.4713 18.6712C76.4156 19.1473 76.1893 19.5549 75.8628 19.8444C76.1522 20.1719 76.308 20.6252 76.2561 21.0975C76.1893 21.6879 75.8183 22.1602 75.3212 22.3773C75.3991 22.5715 75.4362 22.7886 75.4102 23.0133C75.336 23.657 74.8054 24.1293 74.1896 24.1293C74.1413 24.1293 74.0931 24.1293 74.0449 24.1217C74.0004 24.1179 73.9595 24.1103 73.9187 24.0989C73.7035 24.5064 73.3474 24.8149 72.9244 24.9635V27.0736H72.034V25.032C71.1102 24.8683 70.4609 23.9922 70.5611 23.0248C69.8673 22.7048 69.4221 21.9507 69.5148 21.1318C69.5297 20.9985 69.5594 20.8728 69.6002 20.7509C69.5853 20.7509 69.5742 20.7509 69.5594 20.7509C68.8841 20.6709 68.4018 20.0424 68.4797 19.3492C68.5242 18.9493 68.7506 18.6141 69.0622 18.4199C68.7209 18.039 68.5354 17.5133 68.5984 16.9572C68.6763 16.2793 69.103 15.7346 69.6707 15.4832C69.5111 15.1671 69.4406 14.8052 69.4852 14.4243C69.5705 13.6854 70.0713 13.1027 70.7169 12.8894C70.7169 12.836 70.7169 12.7789 70.7243 12.7218C70.7985 12.0781 71.3291 11.6058 71.945 11.6058M71.9487 11.3163C71.1844 11.3163 70.5388 11.9029 70.4461 12.6837C69.7708 12.9846 69.2922 13.6321 69.2032 14.3901C69.1661 14.7176 69.2032 15.0414 69.3071 15.3499C68.7654 15.6889 68.3944 16.2678 68.3165 16.923C68.2571 17.4334 68.3832 17.9476 68.6615 18.3665C68.4055 18.6141 68.2386 18.9455 68.1977 19.3149C68.1124 20.0691 68.5688 20.7623 69.2477 20.9794C69.2403 21.0213 69.2366 21.0594 69.2292 21.1013C69.1327 21.9621 69.5408 22.781 70.2643 23.2C70.2531 24.1484 70.8653 24.994 71.7446 25.2644V27.3669H73.2027V25.1615C73.5477 24.9978 73.8445 24.7426 74.056 24.415C74.0968 24.415 74.1413 24.4188 74.1822 24.4188C74.9501 24.4188 75.5957 23.8284 75.6847 23.0476C75.7033 22.8724 75.6959 22.6934 75.6588 22.522C76.1374 22.2211 76.4676 21.7107 76.5344 21.128C76.5863 20.6823 76.4787 20.2367 76.2376 19.8634C76.5195 19.5397 76.6976 19.1321 76.7496 18.6979C76.8126 18.1494 76.6642 17.6009 76.3414 17.1629C76.4268 16.9649 76.4824 16.7554 76.5084 16.5383C76.6197 15.5708 76.0669 14.6529 75.2024 14.3063C75.2432 13.3312 74.542 12.4704 73.5811 12.3561C73.5106 12.3485 73.4438 12.3447 73.3771 12.3447H73.3696C73.1804 11.7962 72.6944 11.3925 72.123 11.3239C72.0637 11.3163 72.0043 11.3125 71.945 11.3125" fill="white"/>
<path d="M60.0721 27.46V24.9271C59.6121 24.7405 59.2262 24.4053 58.9702 23.9673C58.9517 23.9673 58.9331 23.9711 58.9109 23.9749C58.8478 23.9825 58.7847 23.9863 58.7216 23.9863C57.9165 23.9863 57.2376 23.3655 57.1411 22.5428C57.1152 22.3104 57.1374 22.0743 57.2079 21.8496C56.6217 21.5449 56.221 20.9545 56.1431 20.2841C56.0838 19.7547 56.2284 19.2214 56.5512 18.8025C56.1839 18.433 55.9502 17.9493 55.8908 17.4237C55.8166 16.7876 56.0058 16.1515 56.4065 15.664C56.2841 15.4202 56.2062 15.1574 56.1765 14.8793C56.0504 13.7786 56.7108 12.7388 57.7273 12.4074C57.6049 11.3028 58.3803 10.2973 59.4562 10.1678C59.5304 10.1601 59.6047 10.1525 59.6751 10.1525C59.7234 10.1525 59.7753 10.1525 59.8235 10.1601C59.9868 9.51645 60.5248 9.0251 61.1777 8.94893C61.2408 8.94131 61.3039 8.9375 61.367 8.9375C62.172 8.9375 62.851 9.55835 62.9475 10.3811C62.9512 10.4192 62.9549 10.4534 62.9549 10.4915C63.7451 10.7924 64.3091 11.5275 64.4092 12.3883C64.4575 12.7997 64.3981 13.2072 64.2386 13.5843C64.9064 13.9347 65.3665 14.6089 65.4518 15.3745C65.5223 15.9877 65.3479 16.6048 64.9732 17.0847C65.3182 17.3513 65.5408 17.7474 65.5891 18.1931C65.6373 18.6273 65.5223 19.0539 65.2589 19.3967C65.0214 19.7052 64.6875 19.9147 64.3165 19.987C64.3425 20.0899 64.361 20.1965 64.3721 20.2994C64.4834 21.2744 63.9937 22.2 63.1478 22.6342C63.2146 23.7578 62.4726 24.7786 61.4041 25.03V27.46H60.0684H60.0721Z" fill="#2D2D2D"/>
<path d="M61.3639 9.08235C62.0874 9.08235 62.7144 9.63844 62.8034 10.3964C62.8108 10.4612 62.8108 10.5297 62.8108 10.5945C63.5751 10.8459 64.165 11.5353 64.2652 12.4037C64.3171 12.8493 64.2318 13.2797 64.0463 13.6492C64.7141 13.9463 65.2187 14.59 65.3077 15.386C65.3819 16.0412 65.163 16.662 64.7586 17.1076C65.1259 17.3362 65.3931 17.7323 65.445 18.2046C65.5378 19.0197 64.9701 19.7586 64.1762 19.8576C64.1613 19.8576 64.1428 19.8576 64.1279 19.8576C64.1762 20.0024 64.2096 20.1509 64.2281 20.3071C64.3394 21.2707 63.8163 22.162 62.9963 22.5391C63.1151 23.6779 62.3508 24.7101 61.26 24.9044V27.3078H60.2101V24.8206C59.7129 24.6454 59.2937 24.2797 59.0414 23.7998C58.9931 23.8112 58.9449 23.8189 58.893 23.8265C58.8373 23.8341 58.7779 23.8379 58.7223 23.8379C57.9988 23.8379 57.3718 23.2818 57.2828 22.5238C57.2531 22.2572 57.2939 22.002 57.3867 21.7735C56.8042 21.5183 56.3627 20.9584 56.2848 20.2652C56.2217 19.7053 56.4035 19.1758 56.7448 18.7873C56.359 18.4445 56.0918 17.9646 56.0288 17.4047C55.9546 16.7496 56.1734 16.1288 56.5741 15.6831C56.4369 15.4393 56.3441 15.1613 56.3107 14.8604C56.1846 13.7711 56.8747 12.7769 57.8801 12.5103C57.8727 12.4722 57.8653 12.4341 57.8616 12.3961C57.7428 11.3639 58.4626 10.4307 59.4643 10.3088C59.5311 10.3012 59.6016 10.2974 59.6684 10.2974C59.7574 10.2974 59.8427 10.305 59.9281 10.3164C60.0357 9.68415 60.5328 9.16995 61.1858 9.08996C61.2415 9.08235 61.3008 9.07854 61.3565 9.07854M61.3639 8.79287C61.2971 8.79287 61.2303 8.79668 61.1598 8.8043C60.4883 8.88428 59.9281 9.3642 59.7166 10.0117C59.7018 10.0117 59.6869 10.0117 59.6721 10.0117C59.5942 10.0117 59.5126 10.0155 59.4346 10.0269C58.3179 10.1603 57.5054 11.1734 57.5722 12.3085C56.5519 12.697 55.8989 13.7673 56.0288 14.8985C56.0584 15.1613 56.1289 15.4089 56.2328 15.645C55.847 16.1554 55.6689 16.7991 55.7431 17.4428C55.8024 17.9608 56.0176 18.4369 56.359 18.8178C56.0659 19.252 55.936 19.7777 55.9954 20.3033C56.0733 20.9851 56.4628 21.5831 57.0342 21.9259C56.9823 22.1315 56.9711 22.3486 56.9934 22.5619C57.0973 23.457 57.8356 24.135 58.7112 24.135C58.7705 24.135 58.8262 24.135 58.8855 24.1274C59.1378 24.5235 59.494 24.8358 59.917 25.0263V27.6087H61.5346V25.1443C62.5808 24.8434 63.308 23.8417 63.282 22.7219C64.1316 22.242 64.614 21.286 64.4989 20.2842C64.4915 20.2233 64.4804 20.1585 64.4693 20.0976C65.2744 19.8653 65.816 19.0578 65.7159 18.1779C65.6676 17.7437 65.4636 17.3476 65.1519 17.0619C65.4932 16.5668 65.6454 15.9612 65.5749 15.3556C65.4858 14.5862 65.0443 13.9044 64.3988 13.5159C64.5323 13.154 64.5769 12.7617 64.5323 12.3694C64.4322 11.4857 63.8682 10.7278 63.0743 10.3888C63.0743 10.3812 63.0743 10.3736 63.0743 10.3621C62.9704 9.46704 62.2321 8.78906 61.3565 8.78906" fill="white"/>
<path d="M66.277 27.4599V25.6964C65.9728 25.5631 65.7131 25.3422 65.5387 25.0527C65.535 25.0527 65.5313 25.0527 65.5276 25.0527C65.4831 25.0565 65.4348 25.0603 65.3903 25.0603C64.8115 25.0603 64.3255 24.6147 64.2587 24.0243C64.2402 23.872 64.255 23.7158 64.2958 23.5634C63.8989 23.3425 63.6243 22.9312 63.5687 22.4665C63.5278 22.1008 63.6243 21.7352 63.8358 21.4419C63.5909 21.1829 63.4351 20.8515 63.3943 20.4897C63.3423 20.0479 63.4685 19.606 63.7393 19.2632C63.6614 19.0956 63.6095 18.9204 63.5872 18.7338C63.4982 17.9644 63.9508 17.2407 64.6557 16.9931C64.6223 16.6275 64.7299 16.2656 64.9525 15.9724C65.1863 15.6715 65.5165 15.481 65.8912 15.4353C65.9431 15.4277 65.9951 15.4277 66.047 15.4277C66.0693 15.4277 66.0952 15.4277 66.1175 15.4277C66.2474 14.9821 66.6258 14.6507 67.0784 14.5936C67.1229 14.5897 67.1675 14.5859 67.212 14.5859C67.7908 14.5859 68.2768 15.0316 68.3436 15.622C68.3436 15.6372 68.3473 15.6562 68.3473 15.6715C68.8927 15.8924 69.2822 16.4066 69.3527 17.0084C69.3861 17.2864 69.349 17.5607 69.2451 17.8159C69.6978 18.0672 70.0094 18.5357 70.0725 19.0652C70.1207 19.488 70.0094 19.9069 69.7608 20.2421C69.9871 20.4326 70.1356 20.7068 70.1689 21.0077C70.206 21.32 70.1207 21.6247 69.9315 21.8723C69.772 22.0818 69.5494 22.2265 69.2971 22.2875C69.3119 22.3446 69.3193 22.4055 69.3267 22.4627C69.4047 23.1445 69.0708 23.792 68.4846 24.1043C68.5179 24.8737 68.0097 25.5707 67.2788 25.7612V27.4523H66.2696L66.277 27.4599Z" fill="#2D2D2D"/>
<path d="M67.2131 14.7386C67.7139 14.7386 68.1443 15.1233 68.2037 15.6451C68.2074 15.6908 68.2111 15.7365 68.2111 15.7822C68.7379 15.9574 69.146 16.4297 69.2128 17.0315C69.2499 17.3401 69.1906 17.6371 69.0607 17.8923C69.5208 18.098 69.8695 18.5398 69.9326 19.0921C69.9845 19.5454 69.8324 19.972 69.5542 20.2805C69.8064 20.4405 69.992 20.7109 70.0291 21.0385C70.0921 21.6022 69.7026 22.1126 69.1535 22.1773C69.1423 22.1773 69.1312 22.1773 69.1201 22.1773C69.1535 22.2763 69.1757 22.3792 69.1906 22.4896C69.2685 23.1562 68.9049 23.7694 68.341 24.0284C68.4226 24.8131 67.8957 25.5177 67.1426 25.6548V27.3193H66.4154V25.6015C66.0704 25.4796 65.781 25.2282 65.6066 24.8969C65.5732 24.9045 65.5398 24.9121 65.5027 24.9159C65.4619 24.9197 65.4248 24.9235 65.384 24.9235C64.8831 24.9235 64.4528 24.5388 64.3934 24.017C64.3711 23.8342 64.4008 23.659 64.4639 23.499C64.0595 23.3238 63.759 22.9353 63.7033 22.4592C63.6588 22.0745 63.7849 21.705 64.0224 21.4384C63.759 21.2022 63.5735 20.8709 63.5289 20.4824C63.477 20.0329 63.6291 19.6025 63.9074 19.294C63.8146 19.1226 63.7515 18.9322 63.7256 18.7265C63.6402 17.9761 64.1151 17.2867 64.8089 17.1039C64.8052 17.0772 64.7978 17.0544 64.7941 17.0277C64.7125 16.3155 65.2096 15.6718 65.8997 15.588C65.9479 15.5842 65.9925 15.5804 66.0407 15.5804C66.1 15.5804 66.1594 15.5842 66.2188 15.5918C66.293 15.1538 66.638 14.7995 67.0869 14.7462C67.1277 14.7424 67.1648 14.7386 67.2057 14.7386M67.2131 14.4491C67.1611 14.4491 67.1129 14.4491 67.061 14.4567C66.5861 14.5139 66.1854 14.8414 66.0147 15.2871C65.9665 15.2871 65.922 15.2909 65.8737 15.2985C65.0798 15.3937 64.4936 16.0984 64.5084 16.902C63.8035 17.2029 63.3546 17.9609 63.4473 18.7608C63.4659 18.9322 63.5104 19.0959 63.5772 19.2559C63.3175 19.6178 63.2025 20.0672 63.2544 20.5167C63.2952 20.8671 63.4362 21.1946 63.6551 21.4651C63.4696 21.7698 63.388 22.1316 63.4288 22.4935C63.4844 22.9696 63.7441 23.3923 64.1337 23.6437C64.1077 23.777 64.104 23.9142 64.1188 24.0513C64.1931 24.714 64.7421 25.213 65.3914 25.213C65.4174 25.213 65.4434 25.213 65.4693 25.213C65.64 25.4644 65.87 25.6624 66.1372 25.7957V27.6088H67.4283V25.8795C68.1369 25.6434 68.6266 24.9616 68.6341 24.196C69.224 23.838 69.5542 23.16 69.4725 22.4516C69.4725 22.4325 69.4688 22.4135 69.4651 22.3944C70.0179 22.1926 70.3852 21.6212 70.3147 20.9966C70.2813 20.6995 70.1515 20.429 69.9549 20.2234C70.17 19.8768 70.2665 19.4654 70.2183 19.0502C70.1552 18.517 69.8621 18.0409 69.4243 17.7552C69.5022 17.5115 69.5282 17.2525 69.4985 16.9934C69.428 16.3688 69.0385 15.8317 68.4857 15.5727C68.3966 14.9252 67.8549 14.4453 67.2168 14.4453" fill="white"/>
<path d="M9.06592 27.4257V26.1078C8.8359 26.0088 8.64297 25.8412 8.51312 25.6279H8.5057C8.47231 25.6317 8.43892 25.6355 8.40552 25.6355C7.97144 25.6355 7.60785 25.3003 7.55591 24.8585C7.54107 24.7443 7.5522 24.6262 7.58188 24.5157C7.28507 24.3481 7.0773 24.0434 7.0402 23.693C7.00681 23.4188 7.08101 23.1483 7.24055 22.9274C7.05504 22.7332 6.94003 22.4856 6.91035 22.2152C6.87325 21.8838 6.966 21.5562 7.17006 21.2972C7.1107 21.1715 7.07359 21.0382 7.05504 20.9011C6.98826 20.326 7.32959 19.7851 7.85272 19.5985C7.80078 19.0195 8.2126 18.5015 8.77654 18.433C8.81735 18.4291 8.85445 18.4253 8.89526 18.4253C8.91381 18.4253 8.92865 18.4253 8.9472 18.4253C9.04366 18.094 9.32563 17.8426 9.66696 17.8007C9.70035 17.8007 9.73374 17.7969 9.76714 17.7969C10.2012 17.7969 10.5648 18.1321 10.613 18.5739C10.613 18.5853 10.613 18.5967 10.613 18.612C11.0212 18.7758 11.3143 19.1604 11.3662 19.6099C11.3885 19.8156 11.3662 20.0251 11.2883 20.2155C11.6296 20.4059 11.8596 20.7526 11.9079 21.1525C11.945 21.4686 11.8596 21.781 11.6741 22.0323C11.8448 22.1771 11.9524 22.3789 11.9784 22.6075C12.0043 22.8398 11.9413 23.0683 11.8003 23.255C11.6778 23.4111 11.5146 23.5216 11.3254 23.5635C11.3365 23.6092 11.3439 23.6511 11.3476 23.693C11.407 24.2034 11.1547 24.6871 10.7169 24.9233C10.7429 25.5022 10.3608 26.0202 9.81537 26.1612V27.4257H9.06221H9.06592Z" fill="#2D2D2D"/>
<path d="M9.76727 17.9046C10.142 17.9046 10.4648 18.1941 10.5093 18.5826C10.513 18.6169 10.513 18.6511 10.513 18.6854C10.9063 18.8149 11.2105 19.1692 11.2624 19.6186C11.2884 19.8471 11.2439 20.0719 11.1474 20.2623C11.4925 20.4146 11.7522 20.746 11.8004 21.1574C11.8412 21.4964 11.7262 21.8163 11.5184 22.0487C11.7077 22.1667 11.8449 22.3724 11.8746 22.6162C11.9228 23.039 11.6297 23.4198 11.2179 23.4694C11.2105 23.4694 11.1994 23.4694 11.1919 23.4694C11.2179 23.5455 11.2365 23.6217 11.2439 23.7017C11.2995 24.2007 11.0287 24.6577 10.6095 24.852C10.6688 25.4385 10.2756 25.968 9.71162 26.0708V27.3163H9.16994V26.0327C8.91394 25.9413 8.69504 25.7547 8.56519 25.5071C8.53922 25.5147 8.51325 25.5185 8.48728 25.5223C8.4576 25.5223 8.42792 25.5262 8.39824 25.5262C8.02351 25.5262 7.70073 25.2367 7.65621 24.8482C7.64137 24.7111 7.65992 24.5777 7.70816 24.4597C7.40764 24.3264 7.18132 24.0407 7.14051 23.6827C7.10712 23.3932 7.20358 23.1189 7.37795 22.9209C7.17761 22.7457 7.04033 22.4943 7.00694 22.2048C6.96984 21.8658 7.08115 21.5459 7.28891 21.3135C7.21842 21.1879 7.17019 21.0431 7.15164 20.8908C7.08857 20.327 7.44103 19.8128 7.96415 19.6757C7.96415 19.6567 7.95673 19.6376 7.95302 19.6186C7.89366 19.0854 8.26096 18.6054 8.78038 18.5407C8.81748 18.5369 8.85087 18.5331 8.88426 18.5331C8.92878 18.5331 8.9733 18.5331 9.01782 18.5445C9.07348 18.2169 9.32947 17.9503 9.66709 17.9122C9.69677 17.9122 9.72646 17.9084 9.75614 17.9084M9.76727 17.6875C9.73017 17.6875 9.69306 17.6875 9.65596 17.6951C9.29979 17.737 8.99927 17.9846 8.87313 18.316C8.83603 18.316 8.80264 18.316 8.76554 18.3236C8.17192 18.3959 7.73413 18.9216 7.74526 19.5234C7.21842 19.7481 6.88451 20.3156 6.95129 20.9136C6.96613 21.0431 6.99952 21.165 7.04776 21.2831C6.85483 21.5535 6.76579 21.8925 6.8066 22.2277C6.83628 22.4905 6.94387 22.7381 7.10712 22.9361C6.96613 23.1647 6.90677 23.4351 6.93645 23.7055C6.97726 24.0597 7.1739 24.3759 7.46329 24.5663C7.44474 24.6653 7.44103 24.7682 7.45216 24.871C7.50781 25.3662 7.91963 25.7433 8.40566 25.7433C8.42421 25.7433 8.44276 25.7433 8.46131 25.7433C8.58745 25.9299 8.76183 26.0784 8.96217 26.1813V27.5372H9.93051V26.246C10.4611 26.0708 10.8284 25.5604 10.8321 24.9891C11.2736 24.7225 11.5221 24.2159 11.4591 23.6827C11.4591 23.6674 11.4591 23.656 11.4554 23.6408C11.8709 23.4922 12.1417 23.0618 12.0898 22.5971C12.0638 22.3762 11.9674 22.1743 11.819 22.0182C11.9822 21.7592 12.0527 21.4507 12.0156 21.1421C11.9711 20.7422 11.7485 20.3842 11.422 20.1709C11.4813 19.9881 11.4999 19.7938 11.4776 19.5996C11.4257 19.1311 11.1326 18.7273 10.7208 18.5369C10.654 18.0532 10.2496 17.6913 9.77098 17.6913" fill="white"/>
<path d="M17.8512 27.4599V25.6964C17.547 25.5631 17.2873 25.3422 17.1129 25.0527C17.1092 25.0527 17.1055 25.0527 17.1018 25.0527C17.0573 25.0565 17.009 25.0603 16.9682 25.0603C16.3895 25.0603 15.9034 24.6147 15.8366 24.0243C15.8181 23.872 15.8329 23.712 15.8737 23.5634C15.4768 23.3425 15.2022 22.9312 15.1466 22.4665C15.1058 22.1008 15.2022 21.7352 15.4137 21.4419C15.1688 21.1829 15.013 20.8515 14.9722 20.4897C14.9202 20.0479 15.0501 19.606 15.3209 19.2632C15.243 19.0956 15.1911 18.9204 15.1688 18.7338C15.0798 17.9644 15.5324 17.2407 16.2373 16.9931C16.1706 16.2199 16.7159 15.5267 17.4728 15.4353C17.5247 15.4277 17.5767 15.4277 17.6286 15.4277C17.6509 15.4277 17.6769 15.4277 17.6991 15.4277C17.8253 14.9821 18.2074 14.6507 18.66 14.5936C18.7046 14.5897 18.7491 14.5859 18.7936 14.5859C19.3724 14.5859 19.8584 15.0316 19.9252 15.622C19.9252 15.6372 19.9252 15.6562 19.9289 15.6715C20.4743 15.8924 20.8638 16.4066 20.9343 17.0084C20.964 17.2864 20.9306 17.5607 20.8267 17.8159C21.2794 18.0672 21.591 18.5357 21.6541 19.0652C21.7023 19.488 21.5873 19.9069 21.3425 20.2421C21.5688 20.4326 21.7172 20.7068 21.7506 21.0077C21.8173 21.6057 21.4352 22.1504 20.8787 22.2875C20.8935 22.3446 20.9009 22.4017 20.9084 22.4627C20.9863 23.1445 20.6487 23.792 20.0662 24.1043C20.0996 24.8737 19.5913 25.5707 18.8641 25.7612V27.4523H17.8549L17.8512 27.4599Z" fill="#2D2D2D"/>
<path d="M18.7873 14.7386C19.2882 14.7386 19.7185 15.1233 19.7779 15.6451C19.7816 15.6908 19.7853 15.7365 19.7853 15.7822C20.3122 15.9574 20.7203 16.4297 20.7871 17.0315C20.8242 17.3401 20.7648 17.6371 20.6349 17.8923C21.095 18.098 21.4437 18.5398 21.5068 19.0921C21.5588 19.5454 21.4066 19.972 21.1284 20.2805C21.3807 20.4405 21.5662 20.7109 21.6033 21.0385C21.6663 21.6022 21.2768 22.1126 20.7277 22.1773C20.7166 22.1773 20.7054 22.1773 20.6943 22.1773C20.7277 22.2763 20.7499 22.3792 20.7648 22.4896C20.8427 23.1562 20.4791 23.7694 19.9152 24.0284C19.9968 24.8131 19.47 25.5177 18.7168 25.6548V27.3193H17.9896V25.6015C17.6446 25.4796 17.3552 25.2282 17.1808 24.8969C17.1474 24.9045 17.114 24.9121 17.0769 24.9159C17.0361 24.9197 16.999 24.9235 16.9582 24.9235C16.4574 24.9235 16.027 24.5388 15.9676 24.017C15.9454 23.8342 15.975 23.659 16.0381 23.499C15.6337 23.3238 15.3332 22.9353 15.2775 22.4592C15.233 22.0745 15.3592 21.705 15.5966 21.4384C15.3332 21.2022 15.1477 20.8709 15.1032 20.4824C15.0512 20.0329 15.2033 19.6025 15.4816 19.294C15.3888 19.1226 15.3258 18.9322 15.2998 18.7265C15.2145 17.9761 15.6894 17.2867 16.3831 17.1039C16.3794 17.0772 16.372 17.0544 16.372 17.0277C16.2904 16.3155 16.7875 15.6718 17.4776 15.588C17.5259 15.5842 17.5704 15.5804 17.6186 15.5804C17.678 15.5804 17.7373 15.5842 17.7967 15.5918C17.8709 15.1538 18.2159 14.7995 18.6649 14.7462C18.7057 14.7424 18.7428 14.7386 18.7836 14.7386M18.7873 14.4491C18.7391 14.4491 18.6871 14.4491 18.6352 14.4567C18.1603 14.5139 17.7596 14.8414 17.5889 15.2871C17.5407 15.2871 17.4962 15.2909 17.448 15.2985C16.654 15.3937 16.0678 16.0984 16.0826 16.902C15.3777 17.2029 14.9288 17.9609 15.0215 18.7608C15.0401 18.9322 15.0846 19.0959 15.1514 19.2559C14.8917 19.6178 14.7767 20.0672 14.8286 20.5167C14.8694 20.8671 15.0104 21.1946 15.2293 21.4651C15.0438 21.7698 14.9622 22.1316 15.003 22.4935C15.0586 22.9696 15.3183 23.3923 15.7079 23.6437C15.6819 23.777 15.6782 23.9142 15.6931 24.0513C15.7673 24.714 16.3164 25.213 16.9656 25.213C16.9916 25.213 17.0176 25.213 17.0435 25.213C17.2142 25.4644 17.4442 25.6624 17.7114 25.7957V27.6088H19.0025V25.8795C19.7111 25.6434 20.2009 24.9616 20.2083 24.196C20.7982 23.838 21.1284 23.16 21.0468 22.4516C21.0468 22.4325 21.043 22.4135 21.0393 22.3944C21.5921 22.1926 21.9594 21.6212 21.889 20.9966C21.8556 20.6995 21.7257 20.429 21.5291 20.2234C21.7443 19.8768 21.8407 19.4654 21.7925 19.0502C21.7294 18.517 21.4363 18.0409 20.9985 17.7552C21.0764 17.5115 21.1024 17.2525 21.0727 16.9934C21.0022 16.3688 20.6127 15.8317 20.0599 15.5727C19.9708 14.9252 19.4291 14.4453 18.791 14.4453" fill="white"/>
<path d="M12.998 27.4319V25.9579C12.742 25.8474 12.5268 25.6608 12.3784 25.4208C12.3784 25.4208 12.371 25.4208 12.3673 25.4208C12.3302 25.4247 12.2894 25.4285 12.2523 25.4285C11.77 25.4285 11.3618 25.0552 11.3062 24.5639C11.2914 24.4344 11.3025 24.3048 11.3359 24.1792C11.002 23.9925 10.7719 23.6497 10.7274 23.2612C10.6903 22.9565 10.7719 22.6518 10.95 22.4042C10.746 22.1871 10.6161 21.9091 10.579 21.6082C10.5382 21.2387 10.6421 20.8692 10.8684 20.5836C10.8016 20.4427 10.7608 20.2941 10.7423 20.1418C10.6681 19.5019 11.0465 18.8924 11.6327 18.6868C11.577 18.0393 12.0334 17.4603 12.6641 17.3841C12.7086 17.3803 12.7531 17.3765 12.7939 17.3765C12.8125 17.3765 12.831 17.3765 12.8533 17.3765C12.9609 17.0071 13.2763 16.7252 13.6584 16.6795C13.6955 16.6757 13.7326 16.6719 13.7697 16.6719C14.252 16.6719 14.6601 17.0451 14.7158 17.5365C14.7158 17.5517 14.7158 17.5632 14.7195 17.5784C15.1758 17.7612 15.5023 18.1916 15.558 18.6944C15.5839 18.9267 15.5543 19.1553 15.4689 19.3724C15.8474 19.5857 16.1071 19.9742 16.159 20.416C16.1998 20.7664 16.1034 21.1206 15.8993 21.4025C16.0885 21.5625 16.211 21.791 16.2406 22.0462C16.2703 22.3052 16.1998 22.5604 16.0403 22.7661C15.9067 22.9413 15.7212 23.0632 15.5097 23.1127C15.5209 23.1622 15.5283 23.2117 15.5357 23.2574C15.6025 23.8249 15.3205 24.3696 14.8308 24.6324C14.8605 25.2761 14.4338 25.8589 13.8254 26.0188V27.4319H12.9832H12.998Z" fill="#2D2D2D"/>
<path d="M13.7845 16.7985C14.2037 16.7985 14.5636 17.1184 14.6155 17.5564C14.6192 17.5945 14.6229 17.6326 14.6192 17.6707C15.0607 17.8154 15.4021 18.2115 15.4577 18.7143C15.4874 18.9695 15.4392 19.2209 15.3316 19.4342C15.7174 19.6056 16.0068 19.9751 16.0588 20.4359C16.1033 20.813 15.9771 21.171 15.7434 21.43C15.9549 21.5634 16.107 21.7919 16.1404 22.0623C16.1923 22.5346 15.8658 22.9612 15.4058 23.0145C15.3946 23.0145 15.3872 23.0145 15.3761 23.0145C15.4021 23.0983 15.4243 23.1859 15.4355 23.2735C15.4985 23.8296 15.198 24.3438 14.7268 24.5609C14.7936 25.2161 14.3521 25.8064 13.7251 25.9207V27.3109H13.1166V25.875C12.831 25.7722 12.5861 25.5627 12.4414 25.2884C12.4117 25.296 12.3857 25.2999 12.3561 25.3037C12.3227 25.3037 12.2893 25.3075 12.2559 25.3075C11.8366 25.3075 11.4768 24.9875 11.4248 24.5495C11.4063 24.3971 11.4322 24.2486 11.4842 24.1153C11.1466 23.9667 10.8943 23.643 10.8498 23.2431C10.8127 22.9193 10.9202 22.6146 11.1169 22.3899C10.8943 22.1918 10.7422 21.9138 10.7051 21.59C10.6605 21.2129 10.7867 20.8549 11.0204 20.5959C10.9425 20.455 10.8869 20.295 10.8683 20.1236C10.7978 19.4951 11.1948 18.92 11.7736 18.7676C11.7699 18.7448 11.7662 18.7257 11.7624 18.7029C11.6957 18.1087 12.1075 17.5678 12.6863 17.4993C12.7271 17.4955 12.7642 17.4917 12.805 17.4917C12.8569 17.4917 12.9052 17.4955 12.9534 17.5031C13.0165 17.1374 13.3021 16.8404 13.6806 16.7946C13.714 16.7946 13.7474 16.7908 13.7807 16.7908M13.7845 16.5547C13.7436 16.5547 13.6991 16.5547 13.6583 16.5623C13.2613 16.6118 12.9274 16.8861 12.7827 17.2593C12.7419 17.2593 12.7048 17.2593 12.664 17.2669C11.9999 17.3469 11.5102 17.9373 11.5213 18.6077C10.9314 18.8591 10.5567 19.4913 10.6346 20.1617C10.6531 20.3064 10.6865 20.4435 10.7422 20.573C10.527 20.8778 10.4268 21.251 10.4713 21.6281C10.5047 21.9214 10.6234 22.1956 10.8089 22.4203C10.6531 22.6755 10.5863 22.9764 10.6197 23.2812C10.6642 23.6773 10.8831 24.0315 11.2096 24.2448C11.1874 24.3553 11.1837 24.4695 11.1985 24.5838C11.2616 25.1399 11.7179 25.5589 12.2633 25.5589C12.2856 25.5589 12.3041 25.5589 12.3264 25.5589C12.4674 25.7683 12.6603 25.9359 12.8866 26.0464V27.5623H13.9662V26.1188C14.5599 25.9207 14.968 25.3532 14.9754 24.7133C15.4688 24.4162 15.7471 23.8487 15.6766 23.2545C15.6766 23.2393 15.6729 23.224 15.6692 23.2088C16.133 23.0412 16.4372 22.5613 16.3778 22.0395C16.3481 21.7919 16.2443 21.5672 16.0736 21.392C16.2554 21.1025 16.3333 20.7559 16.2962 20.4093C16.2443 19.9636 15.9994 19.5637 15.6321 19.3237C15.6952 19.1181 15.7174 18.901 15.6952 18.6877C15.6358 18.1658 15.3093 17.7164 14.8493 17.4993C14.7751 16.9584 14.3224 16.5547 13.7882 16.5547" fill="white"/>
<path d="M23.6932 27.2258V25.07C23.3074 24.9101 22.9846 24.6282 22.7694 24.2664C22.7583 24.2664 22.7434 24.2664 22.7323 24.2702C22.6766 24.2778 22.6247 24.2816 22.569 24.2816C21.8753 24.2816 21.2891 23.7484 21.2074 23.0361C21.1852 22.8418 21.2037 22.6438 21.2594 22.4571C20.7659 22.1905 20.4246 21.6916 20.3615 21.1202C20.3096 20.6708 20.432 20.2213 20.6992 19.8595C20.3912 19.5434 20.1946 19.1358 20.1463 18.6902C20.0833 18.1493 20.2428 17.6085 20.5804 17.1895C20.4803 16.9838 20.4135 16.7629 20.3875 16.5305C20.2799 15.5936 20.8401 14.7061 21.7009 14.4166C21.6564 13.9634 21.7825 13.5177 22.0571 13.1597C22.339 12.794 22.7397 12.5655 23.1886 12.5084C23.2517 12.5008 23.3148 12.4969 23.3779 12.4969C23.415 12.4969 23.4521 12.497 23.4892 12.5008C23.6338 11.9561 24.0976 11.5409 24.6504 11.4724C24.7061 11.4647 24.758 11.4609 24.8137 11.4609C25.5075 11.4609 26.0937 11.9942 26.1753 12.7064C26.1753 12.7331 26.179 12.7598 26.1827 12.7864C26.8542 13.0492 27.3328 13.6739 27.4182 14.409C27.459 14.7556 27.4107 15.0984 27.2772 15.4145C27.8411 15.7154 28.227 16.2906 28.3012 16.9419C28.3605 17.4637 28.2158 17.9817 27.9042 18.3931C28.1899 18.6254 28.3754 18.9606 28.4199 19.3339C28.5015 20.0614 28.0266 20.7279 27.344 20.8765C27.3625 20.9564 27.3774 21.0402 27.3885 21.1202C27.4849 21.9506 27.0694 22.739 26.3497 23.1199C26.4016 24.0721 25.7746 24.9329 24.8693 25.1576V27.2258H23.6932Z" fill="#2D2D2D"/>
<path d="M24.811 11.602C25.4269 11.602 25.9574 12.0743 26.0316 12.718C26.0391 12.7751 26.0391 12.8284 26.0391 12.8856C26.6883 13.0989 27.1892 13.6816 27.2708 14.4205C27.3153 14.7976 27.2411 15.1633 27.0853 15.4794C27.653 15.7308 28.0796 16.2755 28.1575 16.9534C28.2206 17.5095 28.0351 18.0352 27.6938 18.416C28.0054 18.6103 28.2317 18.9455 28.2763 19.3454C28.3542 20.0386 27.8719 20.6671 27.1966 20.7471C27.1818 20.7471 27.1706 20.7471 27.1558 20.7471C27.1966 20.869 27.2263 20.9946 27.2411 21.128C27.3339 21.9469 26.8887 22.701 26.1949 23.021C26.2951 23.9884 25.6458 24.8606 24.722 25.0282V27.0698H23.8315V24.9597C23.4086 24.8111 23.0524 24.5026 22.8372 24.0951C22.7964 24.1065 22.7556 24.1103 22.7111 24.1179C22.6629 24.1217 22.6146 24.1255 22.5664 24.1255C21.9505 24.1255 21.42 23.6532 21.3458 23.0095C21.3198 22.7848 21.3532 22.5677 21.4348 22.3735C20.9377 22.1564 20.5666 21.6802 20.4999 21.0937C20.4442 20.6176 20.6 20.1681 20.8931 19.8406C20.5666 19.5511 20.3403 19.1397 20.2847 18.6674C20.2216 18.1113 20.4071 17.5857 20.7484 17.2048C20.6334 16.9953 20.5555 16.763 20.5258 16.5078C20.422 15.5822 21.0044 14.7367 21.8578 14.512C21.8503 14.4815 21.8466 14.4472 21.8429 14.4167C21.7428 13.5407 22.3512 12.7484 23.2045 12.6456C23.2639 12.638 23.3196 12.6342 23.3752 12.6342C23.4494 12.6342 23.5236 12.638 23.5941 12.6494C23.6831 12.1124 24.1098 11.6782 24.6626 11.6096C24.7108 11.602 24.7591 11.602 24.8073 11.602M24.811 11.3125C24.7517 11.3125 24.6923 11.3125 24.6329 11.3239C24.0579 11.3925 23.5755 11.8 23.3863 12.3447H23.3789C23.3121 12.3447 23.2416 12.3485 23.1749 12.3561C22.2139 12.4704 21.5127 13.3312 21.5535 14.3063C20.6891 14.6529 20.1363 15.5708 20.2476 16.5383C20.2735 16.7554 20.3292 16.9649 20.4145 17.1629C20.0918 17.6009 19.9433 18.1494 20.0064 18.6979C20.0584 19.1321 20.2364 19.5397 20.5184 19.8634C20.2773 20.2329 20.1734 20.6785 20.2216 21.128C20.2884 21.7069 20.6149 22.2211 21.0972 22.522C21.0601 22.6934 21.049 22.8724 21.0712 23.0476C21.1603 23.8284 21.8058 24.4188 22.5738 24.4188C22.6146 24.4188 22.6592 24.4188 22.7 24.415C22.9114 24.7388 23.2082 24.9978 23.5533 25.1615V27.3669H25.0114V25.2644C25.8944 24.994 26.5028 24.1484 26.4917 23.2C27.2115 22.781 27.6233 21.9621 27.5268 21.1013C27.5231 21.0594 27.5157 21.0213 27.5083 20.9794C28.1909 20.7623 28.6473 20.0691 28.5582 19.3149C28.5174 18.9493 28.3505 18.6141 28.0945 18.3665C28.3727 17.9437 28.4989 17.4334 28.4395 16.923C28.3653 16.2678 27.9943 15.6889 27.4489 15.3499C27.5528 15.0452 27.5899 14.7176 27.5528 14.3901C27.4675 13.6321 26.9889 12.9808 26.3099 12.6837C26.2171 11.9029 25.5753 11.3163 24.8073 11.3163" fill="white"/>
<path d="M35.3608 27.46V25.03C34.2923 24.7786 33.5503 23.7578 33.6171 22.6342C32.7712 22.1962 32.2814 21.2706 32.3927 20.2994C32.4039 20.1965 32.4224 20.0899 32.4484 19.987C32.0737 19.9147 31.7435 19.7052 31.5023 19.3967C31.2389 19.0539 31.1202 18.6273 31.1721 18.1931C31.224 17.7474 31.4467 17.3513 31.788 17.0847C31.4133 16.6009 31.2389 15.9877 31.3094 15.3745C31.3984 14.6089 31.8585 13.9347 32.5226 13.5843C32.3631 13.2111 32.3037 12.7997 32.3519 12.3883C32.4521 11.5275 33.016 10.7924 33.8063 10.4915C33.8063 10.4534 33.81 10.4192 33.8137 10.3811C33.9065 9.55835 34.5854 8.9375 35.3905 8.9375C35.4536 8.9375 35.5166 8.94131 35.5797 8.94893C36.229 9.02891 36.7707 9.51645 36.9339 10.1601C36.9821 10.1563 37.0304 10.1525 37.0823 10.1525C37.1565 10.1525 37.227 10.1563 37.3012 10.1678C38.3771 10.2973 39.1526 11.3028 39.0301 12.4074C40.0467 12.7426 40.7071 13.7786 40.5809 14.8793C40.5476 15.1536 40.4696 15.4164 40.3509 15.664C40.7516 16.1515 40.9408 16.7876 40.8666 17.4237C40.8073 17.9493 40.5735 18.433 40.2062 18.8025C40.5253 19.2214 40.6737 19.7547 40.6143 20.2841C40.5364 20.9583 40.1357 21.5449 39.5495 21.8496C39.62 22.0705 39.6423 22.3066 39.6163 22.5428C39.5236 23.3655 38.8446 23.9863 38.0358 23.9863C37.9727 23.9863 37.9134 23.9863 37.8503 23.9749C37.8318 23.9749 37.8095 23.9711 37.7909 23.9673C37.5349 24.4015 37.1491 24.7367 36.689 24.9271V27.46H35.3534H35.3608Z" fill="#2D2D2D"/>
<path d="M35.3984 9.08635C35.454 9.08635 35.5134 9.08635 35.569 9.09778C36.222 9.17776 36.7229 9.69196 36.8268 10.3242C36.9121 10.3128 36.9974 10.3052 37.0865 10.3052C37.1533 10.3052 37.22 10.309 37.2905 10.3166C38.296 10.4385 39.012 11.3717 38.8933 12.4039C38.8896 12.442 38.8822 12.4801 38.8747 12.5181C39.8839 12.7848 40.5703 13.7789 40.4478 14.8682C40.4144 15.1653 40.3217 15.4434 40.1844 15.6909C40.5888 16.1404 40.8077 16.7612 40.7335 17.4125C40.6704 17.9724 40.4033 18.4562 40.0175 18.7952C40.3588 19.1837 40.5443 19.7131 40.4775 20.273C40.3996 20.9662 39.9581 21.5261 39.3756 21.7813C39.4684 22.0098 39.5092 22.265 39.4795 22.5317C39.3942 23.2896 38.7672 23.8457 38.04 23.8457C37.9843 23.8457 37.925 23.8457 37.8693 23.8343C37.8174 23.8267 37.7691 23.8191 37.7209 23.8076C37.4686 24.2875 37.0494 24.6494 36.5522 24.8284V27.3156H35.5023V24.9122C34.4152 24.7179 33.6472 23.6857 33.7659 22.5469C32.946 22.1698 32.4229 21.2785 32.5342 20.3149C32.5527 20.1587 32.5861 20.0102 32.6343 19.8654C32.6195 19.8654 32.6009 19.8654 32.5861 19.8654C31.7921 19.7702 31.2208 19.0313 31.3173 18.2124C31.3729 17.7401 31.6363 17.344 32.0036 17.1154C31.5992 16.666 31.3803 16.0452 31.4582 15.3938C31.551 14.5978 32.0519 13.9541 32.7197 13.657C32.5342 13.2875 32.4488 12.8571 32.5008 12.4115C32.601 11.5393 33.1909 10.8537 33.9551 10.6023C33.9551 10.5375 33.9551 10.4728 33.9626 10.4042C34.0479 9.64625 34.6749 9.09016 35.4021 9.09016M35.3984 8.79688C34.5191 8.79688 33.7808 9.47104 33.6769 10.3699C33.6769 10.3776 33.6769 10.3852 33.6769 10.3966C32.8829 10.7356 32.319 11.4936 32.2188 12.3772C32.1743 12.7695 32.2188 13.158 32.3524 13.5237C31.7068 13.9122 31.2653 14.5902 31.1763 15.3634C31.1058 15.969 31.2616 16.5746 31.5992 17.0697C31.2876 17.3554 31.0835 17.7477 31.0353 18.1857C30.9351 19.0656 31.4805 19.8693 32.2819 20.1054C32.2707 20.1663 32.2596 20.2311 32.2522 20.292C32.1372 21.2938 32.6232 22.2498 33.4691 22.7297C33.4431 23.8495 34.1703 24.8513 35.2166 25.1522V27.6165H36.8342V25.0341C37.2571 24.8436 37.6133 24.5313 37.8656 24.1352C37.925 24.1428 37.9843 24.1428 38.04 24.1428C38.9193 24.1428 39.6576 23.4686 39.7578 22.5697C39.7837 22.3564 39.7689 22.1393 39.7169 21.9337C40.2883 21.5947 40.6779 20.9929 40.7558 20.3111C40.8151 19.7855 40.6853 19.256 40.3922 18.8256C40.7335 18.4447 40.9487 17.9648 41.0081 17.4506C41.0823 16.8069 40.9042 16.1632 40.5183 15.6528C40.6259 15.4167 40.6927 15.1653 40.7224 14.9063C40.8522 13.7751 40.1993 12.7086 39.179 12.3163C39.2458 11.1774 38.4332 10.1681 37.3165 10.0348C37.2386 10.0271 37.1607 10.0195 37.0791 10.0195C37.0642 10.0195 37.0494 10.0195 37.0345 10.0195C36.8231 9.37582 36.2628 8.89591 35.5913 8.81211C35.5245 8.80449 35.454 8.80068 35.3872 8.80068" fill="white"/>
<path d="M29.4761 27.4601V25.769C28.7452 25.5785 28.2406 24.8815 28.274 24.1121C27.6915 23.796 27.3539 23.1485 27.4318 22.4705C27.4392 22.4134 27.4466 22.3524 27.4615 22.2953C26.905 22.162 26.5228 21.6135 26.5896 21.0155C26.623 20.7108 26.7714 20.4404 26.9977 20.2499C26.7491 19.9147 26.6378 19.492 26.6861 19.073C26.7454 18.5435 27.0571 18.0751 27.5134 17.8237C27.4132 17.5685 27.3761 17.2904 27.4058 17.0162C27.4726 16.4144 27.8659 15.9002 28.4113 15.6793C28.4113 15.664 28.4113 15.6488 28.415 15.6298C28.4818 15.0394 28.9678 14.5938 29.5466 14.5938C29.5911 14.5938 29.6356 14.5938 29.6801 14.6014C30.1365 14.6547 30.5149 14.9899 30.641 15.4355C30.6633 15.4355 30.6856 15.4355 30.7115 15.4355C30.7635 15.4355 30.8154 15.4355 30.8674 15.4431C31.6242 15.5345 32.1696 16.2278 32.1028 17.001C32.804 17.2485 33.2567 17.976 33.1713 18.7416C33.1491 18.9282 33.1008 19.1035 33.0192 19.271C33.2901 19.6138 33.4162 20.0557 33.368 20.4975C33.3272 20.8555 33.1713 21.1907 32.9265 21.4497C33.1379 21.743 33.2344 22.1086 33.1936 22.4743C33.1417 22.939 32.8671 23.3503 32.4664 23.5713C32.5072 23.7198 32.5221 23.876 32.5035 24.0321C32.4367 24.6225 31.9507 25.0681 31.3719 25.0681C31.3274 25.0681 31.2829 25.0681 31.2384 25.0605C31.2347 25.0605 31.2309 25.0605 31.2272 25.0605C31.0529 25.3462 30.7932 25.5709 30.4889 25.7042V27.4677H29.4798L29.4761 27.4601Z" fill="#2D2D2D"/>
<path d="M29.552 14.7348C29.5928 14.7348 29.6299 14.7348 29.6707 14.7424C30.1196 14.7957 30.4647 15.15 30.5389 15.588C30.5982 15.5804 30.6576 15.5765 30.717 15.5765C30.7615 15.5765 30.8097 15.5765 30.8579 15.5842C31.5517 15.668 32.0452 16.3117 31.9635 17.0239C31.9635 17.0506 31.9561 17.0772 31.9487 17.1001C32.6462 17.2829 33.1174 17.9685 33.0321 18.7227C33.0098 18.9284 32.9467 19.1188 32.8503 19.2902C33.1285 19.5987 33.2806 20.0291 33.2287 20.4786C33.1842 20.8633 32.9987 21.1984 32.7352 21.4346C32.9727 21.7012 33.0988 22.0669 33.0543 22.4554C32.9987 22.9353 32.6982 23.32 32.2937 23.4952C32.3605 23.6552 32.3865 23.8304 32.3642 24.0132C32.3049 24.535 31.8708 24.9197 31.3736 24.9197C31.3328 24.9197 31.2957 24.9197 31.2549 24.9121C31.2215 24.9083 31.1844 24.9007 31.151 24.893C30.9767 25.2244 30.6873 25.4758 30.3422 25.5977V27.3155H29.615V25.651C28.8656 25.5139 28.3351 24.8092 28.4167 24.0246C27.8527 23.7656 27.4892 23.1486 27.5671 22.4858C27.5782 22.3792 27.6042 22.2725 27.6376 22.1735C27.6264 22.1735 27.6153 22.1735 27.6042 22.1735C27.0551 22.1088 26.6618 21.5984 26.7286 21.0347C26.7657 20.7071 26.9512 20.4367 27.2035 20.2767C26.9252 19.9682 26.7731 19.5416 26.825 19.0883C26.8881 18.5398 27.2332 18.0942 27.6969 17.8885C27.5671 17.6333 27.5114 17.3362 27.5448 17.0277C27.6116 16.4259 28.0197 15.9536 28.5465 15.7784C28.5465 15.7327 28.5465 15.687 28.554 15.6413C28.6133 15.1195 29.0474 14.7348 29.5446 14.7348M29.552 14.4453C28.9138 14.4453 28.3722 14.929 28.2831 15.5727C27.7303 15.8279 27.3408 16.365 27.2703 16.9934C27.2406 17.2524 27.2665 17.5115 27.3445 17.7552C26.9104 18.0409 26.6136 18.517 26.5505 19.0502C26.5023 19.4654 26.5987 19.8768 26.8139 20.2234C26.6136 20.429 26.4874 20.6995 26.454 20.9966C26.3835 21.6212 26.7471 22.1926 27.3036 22.3944C27.3036 22.4135 27.2999 22.4325 27.2962 22.4516C27.2146 23.1638 27.5485 23.8418 28.1347 24.196C28.1421 24.9616 28.6319 25.6434 29.3405 25.8795V27.6088H30.6316V25.7957C30.8987 25.6624 31.1288 25.4606 31.2994 25.213C31.3254 25.213 31.3514 25.213 31.3774 25.213C32.0266 25.213 32.5757 24.714 32.6499 24.0513C32.6648 23.9142 32.661 23.777 32.6351 23.6437C33.0209 23.3885 33.2843 22.9696 33.34 22.4935C33.3808 22.1316 33.2992 21.7698 33.1137 21.4651C33.3363 21.1984 33.4773 20.8709 33.5144 20.5166C33.5663 20.0672 33.4476 19.6178 33.1916 19.2559C33.2584 19.0998 33.2992 18.9322 33.3177 18.7608C33.4105 17.9609 32.9616 17.2067 32.2566 16.902C32.2715 16.0946 31.6853 15.3937 30.8913 15.2985C30.8431 15.2947 30.7949 15.2909 30.7503 15.2871C30.5797 14.8414 30.179 14.5139 29.7041 14.4567C29.6521 14.4491 29.6039 14.4491 29.552 14.4491" fill="white"/>
<path d="M0.630719 43.93V43.5605C0.946078 43.4006 1.12045 43.2977 1.15755 43.2596C1.19466 43.2216 1.22063 43.153 1.24289 43.054C1.27257 42.8978 1.29854 42.5664 1.32451 42.056C1.34677 41.5457 1.3579 41.161 1.3579 40.8943V36.1713C1.3579 35.6609 1.34306 35.0591 1.31338 34.3697C1.29112 33.9355 1.25773 33.6689 1.20579 33.5623C1.16868 33.4937 1.11674 33.4442 1.04625 33.4137C0.879296 33.3413 0.530546 33.3033 0 33.2956V32.8043C0.166955 32.8157 0.378431 32.8195 0.634429 32.8195L2.22236 32.8576L5.0272 32.7891C5.76922 32.7891 6.34058 32.869 6.74127 33.0252C7.14196 33.1814 7.45732 33.4366 7.68364 33.787C7.90996 34.1374 8.02126 34.5297 8.02126 34.9639C8.02126 35.3067 7.95448 35.6305 7.82091 35.9352C7.68735 36.2361 7.50555 36.4989 7.27924 36.7198C7.05292 36.9407 6.80063 37.1197 6.52238 37.2607C6.24412 37.3978 5.88424 37.5235 5.43531 37.6416C6.02893 37.6987 6.51124 37.7825 6.87855 37.8968C7.24585 38.011 7.55008 38.1748 7.79865 38.3995C8.04723 38.6242 8.23274 38.8909 8.35888 39.2108C8.48502 39.5308 8.5481 39.885 8.5481 40.2773C8.5481 41.0505 8.32178 41.7323 7.86544 42.3189C7.40909 42.9054 6.82289 43.3396 6.10684 43.6215C5.57259 43.831 4.93816 43.9338 4.20727 43.9338L1.99604 43.8729C1.75859 43.8729 1.30225 43.8919 0.630719 43.9338V43.93ZM2.81226 37.413C3.10165 37.4283 3.35394 37.4359 3.57284 37.4359C4.20356 37.4359 4.68958 37.3864 5.03091 37.2873C5.37224 37.1883 5.63937 37.0588 5.82487 36.895C6.01409 36.7351 6.16991 36.5141 6.29235 36.2399C6.41478 35.9657 6.47785 35.6419 6.47785 35.2724C6.47785 34.6211 6.27751 34.1526 5.87311 33.8632C5.4687 33.5737 4.8788 33.429 4.10338 33.429C3.67301 33.429 3.2649 33.467 2.87905 33.547C2.83452 33.9774 2.80855 34.6478 2.80855 35.5543V37.413H2.81226ZM2.83452 43.1225C3.21667 43.2177 3.61736 43.2635 4.0366 43.2635C4.70813 43.2635 5.2461 43.1568 5.65792 42.9473C6.06974 42.7378 6.3851 42.4179 6.604 41.9875C6.82289 41.5609 6.9342 41.0695 6.9342 40.5134C6.9342 39.9574 6.83031 39.5041 6.62255 39.1308C6.41478 38.7576 6.10313 38.4795 5.69131 38.3005C5.27949 38.1215 4.59683 38.0301 3.64704 38.0301C3.42814 38.0301 3.14988 38.0415 2.80855 38.0605V41.0276C2.80855 41.3133 2.81597 42.0103 2.83081 43.1187L2.83452 43.1225Z" fill="#251D1B"/>
<path d="M10.0589 43.931V43.6263C10.2963 43.512 10.4447 43.4206 10.5115 43.3558C10.5486 43.3216 10.5746 43.2758 10.5931 43.2225C10.6265 43.1121 10.6488 42.8759 10.6636 42.5179C10.6785 41.9808 10.6859 41.6609 10.6859 41.558V38.3967C10.6859 37.8634 10.6785 37.3416 10.6673 36.8312C10.6562 36.458 10.6265 36.2371 10.5857 36.1685C10.5412 36.0999 10.4707 36.0504 10.3742 36.0161C10.2778 35.9819 9.99951 35.9628 9.54688 35.9552V35.5781C10.4781 35.6086 11.0532 35.6238 11.2758 35.6238C11.5207 35.6238 12.066 35.6086 12.9194 35.5781V35.9552C12.4667 35.9628 12.1885 35.9819 12.092 36.0161C11.9955 36.0504 11.9251 36.0961 11.888 36.1533C11.8434 36.2333 11.8138 36.4237 11.8026 36.7246C11.7989 36.8046 11.7915 37.3607 11.7804 38.3929V42.3427C11.7804 42.754 11.7878 43.0892 11.8026 43.3482C12.2367 43.3749 12.6708 43.3901 13.0975 43.3901C14.1734 43.3901 14.9265 43.3177 15.3606 43.1768C15.4089 43.0587 15.4534 42.9254 15.4905 42.7693L15.7205 41.7942H16.1026C16.0173 42.377 15.9357 43.0626 15.8578 43.851C15.702 43.8815 15.5758 43.9005 15.4868 43.9081C15.2864 43.9195 14.9822 43.9272 14.5704 43.9272L11.1793 43.8815C10.812 43.8815 10.441 43.8967 10.0626 43.9272L10.0589 43.931Z" fill="#251D1B"/>
<path d="M16.6641 35.9474V35.5703C17.2874 35.6008 17.8661 35.616 18.4004 35.616C18.9347 35.616 19.48 35.6008 20.0143 35.5703V35.9474C19.5654 35.955 19.2871 35.9741 19.1906 36.0083C19.0905 36.0426 19.0237 36.0883 18.9903 36.1455C18.9421 36.2254 18.9087 36.4159 18.8975 36.7168C18.8938 36.7968 18.8864 37.3529 18.8753 38.3851V40.5599C18.8753 41.4017 18.9272 41.9578 19.0311 42.2282C19.135 42.4986 19.302 42.7196 19.532 42.8948C19.7064 43.0281 19.9438 43.1347 20.2406 43.2147C20.5374 43.2947 20.8713 43.3366 21.2386 43.3366C21.6653 43.3366 22.0474 43.2833 22.3776 43.1766C22.7078 43.07 22.9601 42.9367 23.1234 42.7843C23.2866 42.632 23.4128 42.4567 23.4944 42.2625C23.576 42.0721 23.6354 41.8054 23.6725 41.4703C23.7096 41.1351 23.7281 40.7123 23.7281 40.1981V38.3889C23.7281 37.8556 23.7207 37.3338 23.7059 36.8234C23.6984 36.4502 23.6725 36.2292 23.6279 36.1607C23.5834 36.0921 23.5129 36.0426 23.4128 36.0083C23.3126 35.9741 23.038 35.955 22.5891 35.9474V35.5703C23.2198 35.6008 23.6799 35.616 23.9693 35.616C24.2327 35.616 24.7076 35.6008 25.394 35.5703V35.9474C24.9413 35.955 24.6631 35.9741 24.5666 36.0083C24.4701 36.0426 24.3996 36.0883 24.3625 36.1455C24.318 36.2254 24.2883 36.4159 24.2772 36.7168C24.2735 36.7968 24.2661 37.3529 24.2549 38.3851V40.3543C24.2549 41.3217 24.1882 41.9997 24.0583 42.3844C23.9285 42.7691 23.6836 43.1081 23.3348 43.4013C23.0714 43.6223 22.7338 43.7899 22.3183 43.9117C21.9027 44.0336 21.4464 44.0946 20.9418 44.0946C20.3556 44.0946 19.8436 44.0222 19.4133 43.8813C18.9829 43.7365 18.6527 43.5499 18.4301 43.3176C18.2038 43.0852 18.0516 42.8453 17.9663 42.6015C17.8587 42.2815 17.8068 41.7407 17.8068 40.9865V38.3889C17.8068 37.8556 17.7994 37.3338 17.7882 36.8234C17.7771 36.4502 17.7474 36.2292 17.7066 36.1607C17.6621 36.0921 17.5916 36.0426 17.4951 36.0083C17.3987 35.9741 17.1204 35.955 16.6678 35.9474H16.6641Z" fill="#251D1B"/>
<path d="M26.025 43.9266V43.5571C26.4257 43.5571 26.6891 43.5228 26.8152 43.4619C26.8672 43.439 26.908 43.401 26.9302 43.3514C26.9673 43.2715 26.9933 43.0658 27.0119 42.7344C27.0341 42.2164 27.0453 41.7708 27.0453 41.3937V38.3885C27.0453 37.8552 27.0378 37.3334 27.0267 36.823C27.0156 36.4498 26.9859 36.2289 26.9451 36.1603C26.9006 36.0917 26.8301 36.0422 26.7336 36.0079C26.6371 35.9737 26.3589 35.9546 25.9062 35.947V35.5699L27.5387 35.6042L29.2676 35.5737C30.095 35.5623 30.696 35.5547 31.0707 35.5547C31.4454 35.5547 31.8053 35.5775 32.1429 35.6194C32.0799 35.8442 32.0391 36.0384 32.0168 36.2022C32.0094 36.2365 31.976 36.644 31.9129 37.4248H31.553C31.5568 37.0249 31.5308 36.6593 31.4788 36.3317C31.2674 36.2403 31.0373 36.1793 30.785 36.1489C30.3584 36.0955 29.928 36.0651 29.5013 36.0651C29.4086 36.0651 29.2045 36.0727 28.8892 36.0879C28.5738 36.1032 28.3438 36.1184 28.2065 36.1298C28.1917 36.564 28.1805 36.9716 28.1731 37.3525L28.1509 39.3407C28.5961 39.3636 29.0079 39.375 29.3826 39.375C29.8353 39.375 30.2248 39.3521 30.5439 39.3102C30.6663 39.295 30.7442 39.2645 30.7776 39.215C30.811 39.1693 30.8407 39.0093 30.8704 38.7313L30.9038 38.3199H31.2488V38.4304L31.2191 39.653L31.2488 41.0242H30.8481L30.8296 40.6243C30.8221 40.3348 30.7962 40.1558 30.7517 40.0834C30.7071 40.0149 30.6255 39.9654 30.5031 39.9349C30.2842 39.8892 29.8649 39.8625 29.2379 39.8625C28.9819 39.8625 28.6183 39.8739 28.1509 39.893C28.1323 40.2853 28.1212 40.8681 28.1212 41.6375C28.1212 42.3611 28.1323 42.9134 28.1509 43.2905C28.7 43.3324 29.3158 43.3553 30.0022 43.3553C30.4882 43.3553 30.8333 43.34 31.0373 43.3095C31.2451 43.2791 31.4343 43.2258 31.6087 43.1496C31.6532 43.0277 31.7014 42.8639 31.746 42.6544C31.8313 42.304 31.8869 42.0412 31.9129 41.866H32.2914C32.1912 42.6582 32.1429 43.3134 32.1429 43.8352C31.8127 43.8847 31.4158 43.9113 30.9446 43.9113L27.5276 43.8656C27.4793 43.8656 26.9785 43.8809 26.0287 43.9113L26.025 43.9266Z" fill="#251D1B"/>
<path d="M46.3489 42.5381L46.0521 43.2656C45.4585 43.5741 44.876 43.7951 44.3047 43.936C43.7333 44.0731 43.1137 44.1417 42.4422 44.1417C41.6556 44.1417 40.921 44.0388 40.2458 43.8369C39.5705 43.6351 38.9769 43.3418 38.4724 42.9647C37.9678 42.5876 37.5522 42.161 37.2332 41.6926C36.9141 41.2241 36.6692 40.7137 36.5023 40.1614C36.3353 39.6091 36.25 39.0073 36.25 38.3484C36.25 36.6839 36.8139 35.3051 37.9455 34.2119C39.0771 33.1188 40.6205 32.5703 42.5794 32.5703C43.0432 32.5703 43.4699 32.597 43.8631 32.6541C44.2564 32.7074 44.7387 32.8141 45.3064 32.9664C45.874 33.1188 46.2191 33.2102 46.3489 33.2369C46.2376 33.5225 46.1523 33.8044 46.0966 34.0824C46.015 34.5281 45.9594 35.0385 45.9297 35.625H45.4474L45.4399 34.6995C45.388 34.1891 45.1135 33.8082 44.6126 33.5568C44.1117 33.3054 43.3771 33.1797 42.4125 33.1797C41.689 33.1912 41.0769 33.2864 40.576 33.4654C40.0714 33.6444 39.6299 33.9301 39.2441 34.3186C38.8582 34.7071 38.5466 35.2022 38.3017 35.7964C38.0568 36.3944 37.9344 37.1448 37.927 38.0475C37.927 39.6281 38.3982 40.9003 39.3368 41.864C40.2792 42.8276 41.5221 43.3075 43.0655 43.3075C43.763 43.3075 44.4085 43.2085 45.0022 43.0104C45.4103 42.8733 45.8147 42.66 46.2154 42.3667L46.3452 42.5305L46.3489 42.5381Z" fill="#251D1B"/>
<path d="M47.0662 39.8093C47.0662 39.1885 47.1553 38.6171 47.337 38.0915C47.5188 37.5659 47.8194 37.0936 48.2386 36.6746C48.6578 36.2556 49.1327 35.9395 49.6633 35.7262C50.1938 35.5129 50.8023 35.4062 51.485 35.4062C52.1157 35.4062 52.687 35.4977 53.2027 35.6805C53.7184 35.8633 54.1414 36.1033 54.4716 36.4042C54.8018 36.7051 55.0615 37.0326 55.2544 37.3869C55.3991 37.6535 55.5141 37.9658 55.5995 38.3277C55.6848 38.6895 55.7293 39.0742 55.7293 39.4856C55.7293 40.8072 55.2952 41.9042 54.4308 42.784C53.5663 43.6601 52.4756 44.1019 51.1585 44.1019C50.5574 44.1019 50.0009 44.0029 49.4815 43.801C48.9621 43.6029 48.5243 43.3058 48.1644 42.9097C47.8045 42.5136 47.5337 42.0375 47.3445 41.4738C47.159 40.9101 47.0625 40.3578 47.0625 39.8055L47.0662 39.8093ZM48.2572 39.3218C48.2572 39.695 48.2943 40.0721 48.3647 40.4568C48.4389 40.8415 48.528 41.1729 48.6393 41.4509C48.8211 41.9232 49.0623 42.3155 49.3591 42.6355C49.6559 42.9554 49.9861 43.1916 50.3497 43.3401C50.7132 43.4925 51.1177 43.5648 51.5592 43.5648C52.175 43.5648 52.7093 43.4125 53.1619 43.104C53.6146 42.7955 53.9559 42.3651 54.1785 41.8052C54.4011 41.2452 54.5124 40.6015 54.5124 39.8741C54.5124 39.2494 54.4308 38.6781 54.2712 38.1524C54.1711 37.8325 54.0412 37.5392 53.8743 37.2802C53.7073 37.0212 53.5144 36.7927 53.2881 36.5984C53.0617 36.4042 52.7649 36.2404 52.4051 36.1071C52.0452 35.9738 51.6519 35.9052 51.2327 35.9052C50.6242 35.9052 50.0937 36.0461 49.6336 36.3242C49.1773 36.6022 48.8322 37.006 48.5985 37.5316C48.3685 38.0572 48.2534 38.6552 48.2534 39.3218H48.2572Z" fill="#251D1B"/>
<path d="M56.2223 35.9474V35.5703C56.623 35.5855 57.0051 35.5932 57.3724 35.5932C57.7397 35.5932 58.0996 35.5855 58.4372 35.5703C58.7748 36.3549 59.079 37.0405 59.361 37.6347L61.5314 42.2206L63.4904 38.0156C64.0246 36.8729 64.3808 36.0578 64.5626 35.5703C64.967 35.5855 65.3083 35.5932 65.5866 35.5932C65.8426 35.5932 66.2581 35.5855 66.8295 35.5703V35.9474C66.3768 35.955 66.0986 35.9741 66.0021 36.0083C65.9057 36.0426 65.8352 36.0883 65.7981 36.1455C65.7498 36.2254 65.7202 36.4159 65.7127 36.7168C65.7127 36.7968 65.6979 37.3529 65.683 38.3851V41.1084C65.683 41.6417 65.6905 42.1597 65.7053 42.6662C65.7164 43.0395 65.7461 43.2604 65.7869 43.329C65.8315 43.3975 65.9019 43.4509 65.9984 43.4851C66.0949 43.5194 66.3694 43.5385 66.8258 43.5461V43.9232C66.0541 43.8889 65.5124 43.8698 65.1933 43.8698C64.9373 43.8698 64.3734 43.8889 63.4978 43.9232V43.5461C63.9504 43.5385 64.2287 43.5194 64.3289 43.4851C64.429 43.4509 64.4958 43.4052 64.5292 43.348C64.5774 43.268 64.6071 43.0814 64.6145 42.7767C64.6145 42.6929 64.6294 42.1368 64.6442 41.1084V36.793L62.6667 41.036C62.3588 41.6988 62.1139 42.232 61.9395 42.6358C61.8134 42.929 61.6242 43.3975 61.3682 44.0336H61.1456C61.0974 43.8851 61.0491 43.767 61.0083 43.6756L60.6187 42.8224L57.8807 36.9834V41.1046C57.8807 41.6378 57.8881 42.1558 57.9029 42.6624C57.9141 43.0357 57.9438 43.2566 57.9846 43.3252C58.0291 43.3937 58.0996 43.4471 58.196 43.4813C58.2925 43.5156 58.5708 43.5347 59.0234 43.5423V43.9194L57.6432 43.8736L56.2186 43.9194V43.5423C56.6675 43.5347 56.942 43.5156 57.0422 43.4813C57.1424 43.4471 57.2092 43.4013 57.2463 43.3442C57.2908 43.2642 57.3205 43.0776 57.3316 42.7729C57.3316 42.6891 57.3427 42.133 57.3539 41.1046V38.3813C57.3539 37.848 57.3464 37.3262 57.3353 36.8158C57.3242 36.4425 57.2945 36.2216 57.2537 36.1531C57.2092 36.0845 57.1387 36.035 57.0422 36.0007C56.9457 35.9664 56.6675 35.9474 56.2148 35.9398L56.2223 35.9474Z" fill="#251D1B"/>
<path d="M67.316 35.9474V35.5703C67.7167 35.5855 68.0989 35.5932 68.4662 35.5932C68.8335 35.5932 69.1933 35.5855 69.531 35.5703C69.8686 36.3549 70.1728 37.0405 70.4548 37.6347L72.6252 42.2206L74.5841 38.0156C75.1184 36.8729 75.4745 36.0578 75.6563 35.5703C76.0607 35.5855 76.4021 35.5932 76.6803 35.5932C76.9363 35.5932 77.3519 35.5855 77.9232 35.5703V35.9474C77.4706 35.955 77.1923 35.9741 77.0959 36.0083C76.9994 36.0426 76.9289 36.0883 76.8918 36.1455C76.8436 36.2254 76.8139 36.4159 76.8065 36.7168C76.8065 36.7968 76.7916 37.3529 76.7768 38.3851V41.1084C76.7768 41.6417 76.7842 42.1597 76.7991 42.6662C76.8102 43.0395 76.8399 43.2604 76.8807 43.329C76.9252 43.3975 76.9957 43.4509 77.0922 43.4851C77.1886 43.5194 77.4632 43.5385 77.9195 43.5461V43.9232C77.1478 43.8889 76.6061 43.8698 76.2871 43.8698C76.0311 43.8698 75.4671 43.8889 74.5915 43.9232V43.5461C75.0442 43.5385 75.3224 43.5194 75.4226 43.4851C75.5228 43.4509 75.5896 43.4052 75.623 43.348C75.6712 43.268 75.7009 43.0814 75.7083 42.7767C75.7083 42.6929 75.7231 42.1368 75.738 41.1084V36.793L73.7605 41.036C73.4525 41.6988 73.2077 42.232 73.0333 42.6358C72.9072 42.929 72.7179 43.3975 72.4619 44.0336H72.2393C72.1911 43.8851 72.1429 43.767 72.1021 43.6756L71.7125 42.8224L68.9744 36.9834V41.1046C68.9744 41.6378 68.9819 42.1558 68.9967 42.6624C69.0078 43.0357 69.0375 43.2566 69.0783 43.3252C69.1228 43.3937 69.1933 43.4471 69.2898 43.4813C69.3863 43.5156 69.6645 43.5347 70.1172 43.5423V43.9194L68.737 43.8736L67.3123 43.9194V43.5423C67.7612 43.5347 68.0358 43.5156 68.136 43.4813C68.2361 43.4471 68.3029 43.4013 68.34 43.3442C68.3845 43.2642 68.4142 43.0776 68.4253 42.7729C68.4253 42.6891 68.4365 42.133 68.4476 41.1046V38.3813C68.4476 37.848 68.4402 37.3262 68.429 36.8158C68.4179 36.4425 68.3882 36.2216 68.3474 36.1531C68.3029 36.0845 68.2324 36.035 68.136 36.0007C68.0395 35.9664 67.7612 35.9474 67.3086 35.9398L67.316 35.9474Z" fill="#251D1B"/>
<path d="M78.4725 39.8093C78.4725 39.1885 78.5652 38.6171 78.7433 38.0915C78.9251 37.5659 79.2256 37.0936 79.6449 36.6746C80.0641 36.2556 80.539 35.9395 81.0695 35.7262C81.6001 35.5129 82.2085 35.4062 82.8912 35.4062C83.5219 35.4062 84.0933 35.4977 84.609 35.6805C85.1247 35.8633 85.5476 36.1033 85.8778 36.4042C86.208 36.7051 86.4678 37.0326 86.6607 37.3869C86.8054 37.6535 86.9204 37.9658 87.0057 38.3277C87.0911 38.6895 87.1356 39.0742 87.1356 39.4856C87.1356 40.8072 86.7015 41.9042 85.837 42.784C84.9726 43.6601 83.8818 44.1019 82.5647 44.1019C81.9637 44.1019 81.4072 44.0029 80.8877 43.801C80.3683 43.6029 79.9305 43.3058 79.5707 42.9097C79.2108 42.5174 78.9399 42.0375 78.7507 41.4738C78.5652 40.9101 78.4688 40.3578 78.4688 39.8055L78.4725 39.8093ZM79.6634 39.3218C79.6634 39.695 79.7005 40.0721 79.771 40.4568C79.8452 40.8415 79.9342 41.1729 80.0455 41.4509C80.2273 41.9232 80.4685 42.3155 80.7653 42.6355C81.0621 42.9554 81.3923 43.1916 81.7559 43.3401C82.1195 43.4925 82.5239 43.5648 82.9654 43.5648C83.5813 43.5648 84.1155 43.4125 84.5682 43.104C85.0208 42.7955 85.3621 42.3651 85.5847 41.8052C85.8074 41.2452 85.9187 40.6015 85.9187 39.8741C85.9187 39.2494 85.837 38.6781 85.6775 38.1524C85.5773 37.8325 85.4475 37.5392 85.2805 37.2802C85.1136 37.0212 84.9206 36.7927 84.6943 36.5984C84.468 36.4042 84.1712 36.2404 83.8113 36.1071C83.4514 35.9738 83.0582 35.9052 82.6389 35.9052C82.0305 35.9052 81.4999 36.0461 81.0399 36.3242C80.5798 36.6022 80.2385 37.006 80.0047 37.5316C79.7747 38.0572 79.6597 38.6552 79.6597 39.3218H79.6634Z" fill="#251D1B"/>
<path d="M87.7359 43.9272V43.5577C88.1366 43.5577 88.4 43.5234 88.5262 43.4625C88.5781 43.4396 88.6189 43.4015 88.6412 43.352C88.6783 43.272 88.7043 43.0664 88.7228 42.735C88.7451 42.217 88.7562 41.7713 88.7562 41.3943V36.6027C88.7562 36.4732 88.7488 36.3894 88.7339 36.3513C88.7043 36.2828 88.6338 36.1952 88.5262 36.0999C88.4557 36.0352 88.3778 35.9971 88.2887 35.9781C88.1997 35.959 87.9993 35.9476 87.6914 35.9476V35.5781C88.3295 35.5934 88.7302 35.601 88.8935 35.601C89.1717 35.601 89.45 35.5934 89.7246 35.5781C90.051 36.0123 90.2885 36.3361 90.4406 36.5418L91.6241 38.0425L93.353 40.183C93.9058 40.8648 94.3511 41.4019 94.6887 41.7942C94.9039 42.0532 95.0819 42.2551 95.2266 42.4074V38.111C95.2266 37.7263 95.2118 37.2769 95.1858 36.7589C95.171 36.4351 95.145 36.2332 95.1116 36.1533C95.0857 36.1037 95.0448 36.0657 94.9929 36.0428C94.8668 35.9895 94.6071 35.959 94.2064 35.9552V35.5857C94.6553 35.601 95.1116 35.6086 95.5754 35.6086C96.0095 35.6086 96.4065 35.601 96.7589 35.5857V35.9552C96.3619 35.9552 96.1022 35.9895 95.9761 36.0428C95.9241 36.0657 95.8833 36.1076 95.8611 36.1609C95.824 36.2371 95.798 36.4427 95.7795 36.7779C95.7572 37.2959 95.7461 37.7416 95.7461 38.111V40.9372C95.7461 41.5085 95.7572 42.5788 95.7757 44.1405L95.1858 43.9653L95.0486 43.9348C95.0263 43.9272 95.004 43.9157 94.9855 43.9005C94.9595 43.8815 94.8853 43.8015 94.7666 43.6644C94.4512 43.2949 94.2175 43.0168 94.0691 42.8302L93.3308 41.8704L89.2719 36.8922V41.4019C89.2719 41.7866 89.2868 42.2398 89.3127 42.7616C89.3276 43.0854 89.3535 43.2873 89.3869 43.3596C89.4129 43.413 89.4537 43.4549 89.5057 43.4777C89.6318 43.531 89.8915 43.5615 90.2885 43.5653V43.9348C89.9509 43.9081 89.5836 43.8929 89.1792 43.8929C88.7377 43.8929 88.2553 43.9081 87.7359 43.9348V43.9272Z" fill="#251D1B"/>
</svg>
