<svg width="49" height="69" viewBox="0 0 49 69" fill="none" xmlns="http://www.w3.org/2000/svg">
<g clip-path="url(#clip0_171_2261)">
<path d="M41.3265 67.3283C41.3737 67.3242 41.4236 67.3228 41.475 67.3283C42.9052 67.4709 44.8167 68.0797 46.1859 67.4114C47.6494 66.6974 47.906 64.4959 48.0031 63.0693C48.1446 61.009 47.8602 58.9417 47.5509 56.909C46.9114 52.6943 46.4009 48.4546 45.2246 44.3478C44.8209 43.9603 44.2078 43.5272 44.0982 43.2103C44.0926 43.1882 44.0885 43.1674 44.0829 43.1453C43.8193 42.0037 43.6126 40.8608 42.7484 39.9974C42.7013 39.9503 42.6499 39.9088 42.6 39.8645C42.2629 39.2889 41.887 38.7368 41.4569 38.2207C40.8965 37.5468 40.0101 37.2341 39.1819 37.5593C39.329 36.8259 39.4497 36.0856 39.544 35.3398C39.7132 34.0004 40.0378 32.3012 39.236 31.1098C38.8296 30.5052 38.1762 30.1329 37.577 29.7441C36.9666 29.3484 36.3548 28.954 35.7445 28.5583C34.9496 28.0435 34.1533 27.5288 33.3585 27.0154C33.1102 26.4288 32.8757 25.8351 32.6593 25.2346C32.8438 24.7143 33.0034 24.1858 33.1296 23.6475C34.8872 23.9921 36.549 22.7509 37.176 21.1402C37.5353 20.2187 37.4507 19.2307 36.9999 18.4337C37.8599 16.9407 38.0139 15.3937 37.7198 13.8979C38.2248 11.9676 37.9168 9.93221 37.0526 8.09742C36.0788 6.03016 34.3115 4.4472 32.461 3.16589C31.6661 2.61517 30.7547 2.06169 29.835 1.76696C29.4063 1.32556 28.8931 0.981015 28.2633 0.802517C27.1674 0.491183 25.9481 0.845412 25.027 1.46255C23.9061 2.21251 22.9212 3.17557 22.05 4.22166C21.4785 3.83422 20.6906 3.74289 19.904 4.08744C17.5139 5.13213 15.5996 7.28241 14.7548 9.74818C13.3384 12.1475 13.412 15.3314 15.0364 17.6325C15.0544 17.6588 15.0752 17.6837 15.0946 17.71C14.1985 18.049 13.4397 18.763 13.2108 19.7662C12.9653 20.8497 13.1747 22.2859 13.8392 23.1867C14.6715 24.3158 16.0809 24.2605 17.1199 23.5894C17.1837 23.8564 17.2503 24.1235 17.3197 24.3892C17.3294 24.4833 17.3377 24.5774 17.3447 24.6728C17.3544 24.9274 17.3669 25.182 17.3849 25.4366C17.4223 25.9528 17.6679 26.343 18.0161 26.6045C18.4752 27.8332 19.0565 29.0052 19.8208 30.0762C19.818 32.0162 18.994 34.1014 17.5652 35.3633C16.64 36.1811 15.5066 36.5201 14.1319 36.7789C12.556 37.0764 10.9358 37.2978 9.50144 38.0685C6.53422 39.6639 5.53405 42.9474 4.77248 45.993C3.88745 49.5311 3.29095 53.1329 2.66394 56.7236C1.98837 60.5925 1.26842 64.4599 0.140625 68.2264H38.3219C38.3538 67.3685 38.4342 66.5133 38.5189 65.6582C38.5785 65.066 39.3498 64.8224 39.7382 65.2763C40.0573 65.6485 40.3153 66.0567 40.5442 66.4829C40.762 66.8025 41.0311 67.0765 41.3224 67.3311L41.3265 67.3283Z" fill="white"/>
<path d="M18.9383 59.3208C19.095 60.1649 19.2393 61.0117 19.3655 61.8613C19.396 62.0702 19.4266 62.2792 19.4543 62.4881C19.4543 62.495 19.4557 62.502 19.4571 62.5061C19.4654 62.5712 19.4737 62.6348 19.4821 62.6998C19.4959 62.8078 19.5098 62.9157 19.5223 63.0236C19.575 63.4553 19.6208 63.8871 19.6596 64.3188C19.7623 65.4548 19.7914 66.6171 19.9384 67.7573C19.944 67.8777 19.9551 67.998 19.9676 68.1184H29.8708C30.1149 65.2182 30.4062 62.3207 30.7516 59.4315C30.8515 58.5971 30.9556 57.7642 31.0624 56.9298C31.1137 56.5285 31.1678 56.1286 31.2205 55.7273C31.2233 55.7052 31.2261 55.6817 31.2288 55.6706C31.2358 55.6139 31.2441 55.5585 31.2524 55.5018C31.2649 55.4119 31.2774 55.3219 31.2899 55.232C31.3204 55.0064 31.3523 54.7823 31.3828 54.5567C31.6131 52.9157 31.8586 51.276 32.1208 49.639C32.4191 47.7779 32.7381 45.9196 33.078 44.0668C33.1612 43.613 32.8824 43.1425 32.3761 43.1467C28.718 43.184 25.06 43.2214 21.4019 43.2588C21.2174 43.2449 21.0329 43.2325 20.8498 43.2173C20.675 43.2034 20.5003 43.2228 20.331 43.2698C20.3088 43.2698 20.2852 43.2698 20.263 43.2698C19.6652 42.9862 18.8994 42.9945 18.3362 43.2892C18.1379 43.2906 17.9395 43.2934 17.7411 43.2947C17.6093 43.1494 17.4234 43.0554 17.2168 43.065C16.8297 43.0817 16.4788 43.3847 16.4885 43.7915C16.5703 47.3103 17.2154 50.7861 17.9187 54.226C18.2655 55.9224 18.6275 57.6161 18.9424 59.3181L18.9383 59.3208Z" fill="#C3C3C3"/>
<path d="M10.2977 45.5588C10.639 48.5462 9.35998 51.3413 8.91885 54.2457C8.68441 55.7941 8.72187 57.3438 9.17825 58.8507C9.62493 60.3271 10.4156 61.6693 11.1231 63.0308C11.8875 64.5017 12.5491 66.0515 12.5117 67.7382C12.4937 68.5394 13.7421 68.5394 13.7602 67.7382C13.7948 66.1995 13.3204 64.737 12.6754 63.3574C12.0359 61.9903 11.2133 60.7076 10.6556 59.3031C10.0869 57.8724 9.89544 56.3628 10.0869 54.8351C10.2672 53.3878 10.6945 51.9819 11.0371 50.5692C11.4352 48.9323 11.739 47.2469 11.5462 45.5602C11.5074 45.2267 11.2868 44.9375 10.922 44.9375C10.614 44.9375 10.2589 45.2239 10.2977 45.5602V45.5588Z" fill="#101841"/>
<path d="M39.5282 45.5147C39.1828 48.5298 40.423 51.3691 40.9127 54.2915C41.1624 55.7832 41.093 57.2762 40.6158 58.7166C40.1372 60.1571 39.3188 61.4591 38.6418 62.811C37.8775 64.3372 37.2754 65.9645 37.3143 67.6927C37.3323 68.4925 38.5808 68.4953 38.5628 67.6927C38.4948 64.5988 40.6907 62.1247 41.7145 59.3476C42.2499 57.8933 42.4219 56.3242 42.2361 54.7883C42.0571 53.3077 41.6576 51.8742 41.2997 50.4296C40.8988 48.8134 40.5867 47.1834 40.7767 45.5133C40.8156 45.1784 40.4618 44.8906 40.1525 44.8906C39.7835 44.8906 39.5671 45.1771 39.5282 45.5133V45.5147Z" fill="#101841"/>
<path d="M32.2569 34.0475C31.2567 32.8755 31.1888 31.2386 31.186 29.7733C31.186 28.9721 29.9361 28.9707 29.9375 29.7733C29.9403 31.6081 30.1359 33.4788 31.3733 34.9276C31.5924 35.1836 32.0308 35.1517 32.2555 34.9276C32.5094 34.6744 32.4747 34.3035 32.2555 34.0475H32.2569Z" fill="#101841"/>
<path d="M1.21482 67.8924C1.74889 64.3902 2.29545 60.8881 2.94189 57.4039C3.57861 53.9723 4.2514 50.5227 5.2918 47.188C5.78564 45.605 6.34884 44.0442 6.93563 42.4931C7.20197 41.7888 7.45583 41.0748 7.75824 40.3843C7.99406 39.8474 8.25763 39.2538 8.73205 38.8844C9.22728 38.4983 9.97082 38.3752 10.5673 38.2299C11.2304 38.068 11.9018 37.9407 12.5718 37.8106C13.9507 37.5408 15.3282 37.2461 16.6044 36.6414C17.3174 36.3038 18.0443 35.8499 18.5895 35.2743C19.1679 34.6641 19.5813 33.903 19.8588 33.1143C20.3887 31.613 20.3859 29.9775 20.3526 28.4056C20.336 27.6058 19.0875 27.603 19.1041 28.4056C19.1319 29.7699 19.1513 31.1647 18.7518 32.4833C18.5576 33.1268 18.2538 33.7494 17.8168 34.2656C17.3757 34.7858 16.7612 35.1677 16.1577 35.4735C14.9703 36.0727 13.6372 36.3342 12.3415 36.5874C11.6549 36.7216 10.9654 36.8517 10.2843 37.015C9.61569 37.1755 8.87077 37.3374 8.27427 37.6916C7.03967 38.4264 6.5708 39.9554 6.08805 41.2159C5.5082 42.7311 4.93945 44.2518 4.42757 45.7918C3.33169 49.092 2.61173 52.4917 1.95559 55.9026C1.21066 59.7728 0.601682 63.6665 0.00657383 67.5617C-0.0447525 67.8938 0.0911929 68.2314 0.442154 68.3283C0.737627 68.4085 1.15934 68.2272 1.21066 67.8938L1.21482 67.8924Z" fill="#101841"/>
<path d="M15.3629 36.8414C15.496 37.8737 15.6292 38.9073 15.7638 39.9395C16.0842 42.4191 16.4046 44.9001 16.7251 47.3797L17.8876 56.3794C18.2219 58.971 18.5576 61.5627 18.8919 64.1544C19.0542 65.4094 19.2137 66.6644 19.3788 67.9195C19.3816 67.9375 19.383 67.9554 19.3857 67.9734C19.4287 68.3069 19.6424 68.5961 20.01 68.5961C20.3138 68.5961 20.6772 68.3097 20.6342 67.9734C20.501 66.9412 20.3679 65.9076 20.2333 64.8753C19.9129 62.3957 19.5924 59.9147 19.272 57.4351C18.885 54.4352 18.4965 51.4354 18.1095 48.4355C17.7752 45.8438 17.4395 43.2521 17.1052 40.6604C16.9429 39.4054 16.7834 38.1504 16.6183 36.8954C16.6155 36.8774 16.6141 36.8594 16.6113 36.8414C16.5683 36.5079 16.3547 36.2188 15.9871 36.2188C15.6833 36.2188 15.3199 36.5052 15.3629 36.8414Z" fill="#101841"/>
<path d="M32.5635 42.9378C31.6452 49.3527 30.8558 55.7855 29.9653 62.2046C29.7169 63.9951 29.4603 65.7828 29.1898 67.5706C29.1399 67.9027 29.273 68.2403 29.6254 68.3371C29.9209 68.4174 30.3426 68.2361 30.3939 67.9027C31.3594 61.5058 32.1584 55.0868 33.0199 48.6761C33.2626 46.8731 33.5109 45.0715 33.7676 43.2699C33.8147 42.9378 33.6857 42.6016 33.332 42.5034C33.0393 42.4231 32.612 42.603 32.5635 42.9378Z" fill="#101841"/>
<path d="M16.7891 17.2005C16.0858 16.8712 15.2826 16.5267 14.4961 16.7688C13.7096 17.011 13.0576 17.5811 12.7427 18.3393C12.0727 19.9555 12.4222 22.3037 13.7276 23.5268C14.467 24.2201 15.4546 24.512 16.4576 24.429C16.7933 24.4013 17.0818 24.1634 17.0818 23.8064C17.0818 23.4909 16.7961 23.156 16.4576 23.1837C15.6946 23.2473 14.9913 23.073 14.4628 22.4974C13.9107 21.8968 13.7026 21.0002 13.686 20.2073C13.6679 19.3937 13.79 18.5261 14.5571 18.0972C14.7999 17.9616 14.8831 17.9228 15.1189 17.9311C15.4005 17.9408 15.8431 18.1262 16.1607 18.2743C16.4659 18.4168 16.8335 18.3601 17.0152 18.0515C17.1734 17.7817 17.0985 17.3431 16.7919 17.1992L16.7891 17.2005Z" fill="#101841"/>
<path d="M16.0457 20.884C16.0527 22.6898 16.5881 24.4983 17.3913 26.1048C18.2833 27.8883 19.6414 29.5267 21.4184 30.4856C22.5059 31.0723 23.7086 31.3781 24.9418 31.4099V30.1645H24.8877V31.4099C27.067 31.3974 29.0868 30.498 30.585 28.9261C31.9514 27.494 32.8752 25.6495 33.3774 23.7469C33.6243 22.8157 33.7755 21.8471 33.7797 20.8826C33.7825 20.0815 32.534 20.0801 32.5312 20.8826C32.5257 22.4241 32.1137 24.0375 31.427 25.4752C30.6627 27.0761 29.5349 28.5387 27.9576 29.4021C27.0129 29.9196 25.9601 30.159 24.8864 30.1659C24.0832 30.1701 24.0818 31.4113 24.8864 31.4113H24.9405C25.745 31.4113 25.7436 30.1867 24.9405 30.1659C21.1506 30.0663 18.6024 26.7496 17.6646 23.3761C17.4205 22.4988 17.2956 21.7724 17.2915 20.884C17.2887 20.0829 16.0402 20.0815 16.043 20.884H16.0457Z" fill="#101841"/>
<path d="M36.1688 19.3709C36.3255 20.3408 36.1826 21.5045 35.582 22.314C35.0673 23.0072 34.2849 23.2369 33.4485 23.1664C33.1114 23.1387 32.8242 23.4722 32.8242 23.789C32.8242 24.1488 33.1114 24.384 33.4485 24.4117C34.6997 24.5155 35.865 24.0215 36.6113 23.01C37.4353 21.892 37.5892 20.374 37.3742 19.0402C37.3201 18.7081 36.9054 18.5226 36.6057 18.6057C36.2506 18.7025 36.116 19.0388 36.1701 19.3722L36.1688 19.3709Z" fill="#101841"/>
<path d="M24.3373 19.5484C24.8144 20.0521 24.777 20.7273 24.4246 21.2808C24.186 21.6558 24.014 22.0599 24.1236 22.5123C24.229 22.9454 24.5412 23.2817 24.8672 23.5667C25.4706 24.0911 26.357 23.2139 25.7494 22.6867C25.6121 22.5677 25.472 22.4487 25.3707 22.2965C25.3416 22.2522 25.3457 22.1235 25.3319 22.2218C25.3416 22.1553 25.3832 22.1 25.4165 22.0433C25.6273 21.6932 25.8285 21.3652 25.9006 20.9543C26.0477 20.1199 25.8021 19.2841 25.2195 18.6684C24.666 18.0845 23.7851 18.9659 24.3373 19.5484Z" fill="#101841"/>
<path d="M39.5097 35.3267C40.2505 33.5569 40.9427 31.3679 39.6484 29.6715C38.7135 28.4455 37.1986 28.0069 35.8614 27.3718C35.1761 27.0452 34.4825 26.6564 34.0594 26.0061C33.6238 25.3363 32.5432 25.959 32.9816 26.6343C34.0414 28.2656 35.9835 28.624 37.5718 29.529C38.3459 29.9704 38.9729 30.5903 39.1074 31.5091C39.2794 32.6963 38.7537 33.925 38.3056 34.996C38.1752 35.3059 38.4457 35.6809 38.7412 35.7626C39.1005 35.8608 39.3793 35.6394 39.5097 35.3281V35.3267Z" fill="#101841"/>
<path d="M16.931 43.7766H33.1585C33.9617 43.7766 33.9631 42.5312 33.1585 42.5312H16.931C16.1278 42.5312 16.1265 43.7766 16.931 43.7766Z" fill="#101841"/>
<path d="M34.2992 24.1169C34.8355 24.1169 35.2702 23.6832 35.2702 23.1483C35.2702 22.6133 34.8355 22.1797 34.2992 22.1797C33.7629 22.1797 33.3281 22.6133 33.3281 23.1483C33.3281 23.6832 33.7629 24.1169 34.2992 24.1169Z" fill="#EF5407"/>
<path d="M34.6453 23.1459C34.6245 23.5915 33.9558 23.5957 33.9517 23.1459C33.9475 22.6949 34.6245 22.7004 34.6453 23.1459C34.6827 23.9443 35.9326 23.9485 35.8937 23.1459C35.8521 22.2839 35.1946 21.5547 34.2985 21.5547C33.4023 21.5547 32.7115 22.2825 32.7032 23.1459C32.6949 24.0094 33.4384 24.7372 34.2985 24.7372C35.1585 24.7372 35.8521 24.008 35.8937 23.1459C35.9326 22.3448 34.6827 22.3462 34.6453 23.1459Z" fill="#101841"/>
<path d="M15.6429 24.0466C16.1792 24.0466 16.614 23.6129 16.614 23.078C16.614 22.543 16.1792 22.1094 15.6429 22.1094C15.1066 22.1094 14.6719 22.543 14.6719 23.078C14.6719 23.6129 15.1066 24.0466 15.6429 24.0466Z" fill="#EF5407"/>
<path d="M15.989 23.0756C15.9682 23.5212 15.2996 23.5253 15.2954 23.0756C15.2913 22.6245 15.9682 22.6301 15.989 23.0756C16.0265 23.874 17.2763 23.8782 17.2375 23.0756C17.1959 22.2136 16.5384 21.4844 15.6422 21.4844C14.7461 21.4844 14.0553 22.2122 14.0469 23.0756C14.0386 23.9391 14.7822 24.6669 15.6422 24.6669C16.5023 24.6669 17.1959 23.9377 17.2375 23.0756C17.2763 22.2745 16.0265 22.2759 15.989 23.0756Z" fill="#101841"/>
<path d="M25.0584 9.83519C26.0184 9.09629 27.2308 9.78261 27.7746 10.6917C28.4016 11.7433 28.4585 13.0108 28.7803 14.1676C29.3144 16.0895 30.3229 17.9022 32.0804 18.951C33.1666 19.6 34.4054 19.8906 35.6525 20.0151C35.9882 20.0483 36.2767 19.7052 36.2767 19.3924C36.2767 19.0285 35.9896 18.803 35.6525 18.7698C33.6674 18.5719 31.9015 17.7237 30.8777 16.0079C30.3575 15.1362 30.044 14.1662 29.8193 13.1824C29.5169 11.854 29.3213 10.5284 28.4099 9.44914C27.4819 8.35047 25.6522 7.81775 24.4286 8.76005C24.1623 8.96484 24.0194 9.29555 24.2053 9.61241C24.3593 9.87393 24.7907 10.0427 25.0598 9.83519H25.0584Z" fill="#101841"/>
<path d="M20.3243 11.7488C19.7763 13.9572 18.765 16.6277 16.1932 17.0221C15.8602 17.0733 15.6758 17.4912 15.7576 17.7887C15.8561 18.1443 16.1904 18.2743 16.5261 18.2232C19.5322 17.7624 20.8819 14.6864 21.5297 12.0795C21.7225 11.3019 20.5198 10.9698 20.3256 11.7488H20.3243Z" fill="#101841"/>
<path d="M23.5882 3.45897C24.2401 2.3354 25.3735 1.60619 26.6344 1.33498C27.9856 1.04441 29.3214 1.38618 30.4007 2.23578C31.0957 2.78234 31.6922 3.44929 32.2998 4.08718C32.9656 4.78595 33.6301 5.4861 34.2765 6.20286C34.9188 6.91547 35.5486 7.64053 36.1395 8.39604C36.6431 9.03946 37.1328 9.73131 37.4407 10.4924C38.23 12.4461 37.3173 14.3723 36.2769 16.0327C35.8496 16.7149 36.9302 17.3403 37.3547 16.6609C38.4228 14.9562 39.3287 12.9816 38.8806 10.9282C38.4561 8.98411 36.9594 7.36379 35.6845 5.9109C34.9618 5.08621 34.2113 4.28643 33.4553 3.4908C32.7839 2.78511 32.1291 2.04759 31.3745 1.42769C30.0248 0.319344 28.4489 -0.188476 26.7052 0.0633588C24.9864 0.311042 23.3842 1.32253 22.5103 2.83077C22.108 3.52539 23.1859 4.15359 23.5882 3.45897Z" fill="#101841"/>
<path d="M18.6866 3.76002C15.6722 5.00674 13.5651 7.89868 13.357 11.1559C13.3057 11.9557 14.5542 11.9529 14.6055 11.1559C14.7747 8.50613 16.549 5.98086 19.0182 4.96107C19.3289 4.83239 19.5508 4.54873 19.4537 4.1945C19.3733 3.90115 18.9987 3.62995 18.6852 3.76002H18.6866Z" fill="#101841"/>
<path d="M13.2422 14.2245V14.4168C13.2422 14.576 13.3115 14.7448 13.4253 14.8569C13.4822 14.9177 13.5488 14.9606 13.6264 14.9855C13.7014 15.0243 13.7804 15.0423 13.8664 15.0395C14.0273 15.0326 14.1952 14.98 14.3076 14.8569C14.4199 14.7351 14.4907 14.5857 14.4907 14.4168V14.2245C14.4907 14.0654 14.4213 13.8966 14.3076 13.7845C14.2507 13.7236 14.1841 13.6807 14.1064 13.6558C14.0315 13.6171 13.9524 13.5991 13.8664 13.6018C13.7055 13.6088 13.5377 13.6613 13.4253 13.7845C13.3129 13.9063 13.2422 14.0557 13.2422 14.2245Z" fill="#101841"/>
<path d="M23.9127 8.81831C24.1097 8.0296 24.7201 7.40554 25.5232 7.22843C26.2668 7.06515 27.1324 7.40001 27.5846 8.00746C27.7858 8.27728 28.1256 8.41427 28.4391 8.23023C28.7055 8.07526 28.865 7.65046 28.6625 7.37787C27.8759 6.31934 26.6025 5.77277 25.2888 6.00662C24.0389 6.22939 23.011 7.27409 22.7086 8.48484C22.5144 9.26248 23.7185 9.59457 23.9127 8.81554V8.81831Z" fill="#101841"/>
<path d="M32.8817 31.961C32.4143 33.342 31.9343 34.7201 31.4807 36.1052C31.0742 37.3464 30.7912 38.6208 31.0368 39.9256C31.4404 42.0662 33.1578 43.9038 35.2663 44.4545C36.0446 44.6579 36.3761 43.4569 35.5979 43.2535C33.8361 42.7941 32.4378 41.2097 32.2076 39.4012C32.0619 38.261 32.4476 37.1333 32.8054 36.0679C33.2299 34.8087 33.6572 33.5509 34.0844 32.2917C34.3425 31.5307 33.137 31.2041 32.8804 31.961H32.8817Z" fill="#101841"/>
<path d="M38.3159 36.9089C37.9732 37.991 37.6278 39.1824 37.9677 40.3115C38.2451 41.2302 38.9443 42.066 39.9209 42.2597C40.706 42.4147 41.0417 41.215 40.2524 41.0587C39.6198 40.9341 39.255 40.3931 39.1218 39.7912C38.9346 38.9471 39.2675 38.0367 39.52 37.241C39.7627 36.4744 38.5572 36.1479 38.3159 36.9103V36.9089Z" fill="#101841"/>
<path d="M37.9529 45.4016H38.5314C38.8574 45.4016 39.1709 45.1152 39.1556 44.7789C39.1403 44.4413 38.8809 44.1562 38.5314 44.1562H37.9529C37.6269 44.1562 37.3134 44.4427 37.3287 44.7789C37.3439 45.1165 37.6033 45.4016 37.9529 45.4016Z" fill="#101841"/>
<path d="M22.0306 10.7561C22.1111 12.1384 21.4674 13.5027 20.298 14.2679C19.6294 14.7052 20.2536 15.7845 20.9278 15.3431C22.4523 14.3454 23.3859 12.5826 23.2791 10.7561C23.2319 9.95907 21.9834 9.95354 22.0306 10.7561Z" fill="#101841"/>
<path d="M40.3774 50.8594H33.4414V53.7652H40.3774V50.8594Z" fill="white"/>
<path d="M41.0009 54.3855H32.8164V50.2344H41.0009V54.3855ZM34.0649 53.1402H39.7524V51.4797H34.0649V53.1402Z" fill="#101841"/>
<path d="M26.5057 15.6174C27.1494 16.1224 27.8721 16.312 28.6822 16.1778C29.0152 16.1224 29.2011 15.7129 29.1178 15.4112C29.0207 15.0597 28.6836 14.92 28.3493 14.9767C28.0275 15.0307 27.646 14.9394 27.388 14.7373C27.123 14.5298 26.7637 14.48 26.5057 14.7373C26.2893 14.9532 26.2394 15.4084 26.5057 15.6174Z" fill="#101841"/>
<path d="M24.4342 26.7686C24.8739 26.2705 25.6494 26.276 26.0849 26.7755C26.6135 27.3802 27.4943 26.4974 26.9672 25.8955C26.1071 24.9117 24.4148 24.9103 23.5505 25.8886C23.0206 26.4877 23.9001 27.3719 24.4328 26.7686H24.4342Z" fill="#101841"/>
<path d="M21.5779 18.4922C21.2519 18.4922 20.9384 18.7786 20.9537 19.1149C20.9689 19.4525 21.2283 19.7375 21.5779 19.7375C21.9039 19.7375 22.2174 19.4511 22.2021 19.1149C22.1869 18.7772 21.9275 18.4922 21.5779 18.4922Z" fill="#101841"/>
<path d="M28.5193 18.4219C28.1933 18.4219 27.8798 18.7083 27.8951 19.0445C27.9103 19.3822 28.1697 19.6672 28.5193 19.6672C28.8453 19.6672 29.1588 19.3808 29.1435 19.0445C29.1283 18.7069 28.8689 18.4219 28.5193 18.4219Z" fill="#101841"/>
<path d="M21.2224 3.02344C20.8964 3.02344 20.5829 3.30986 20.5982 3.64611C20.6135 3.98373 20.8729 4.26877 21.2224 4.26877C21.5484 4.26877 21.8619 3.98235 21.8467 3.64611C21.8314 3.30848 21.572 3.02344 21.2224 3.02344Z" fill="#101841"/>
<path d="M34.7575 35.4138C34.5495 35.2298 34.3941 35.0098 34.2817 34.7649C34.2609 34.7427 34.2415 34.7192 34.2221 34.6929C32.7239 32.6271 35.0114 29.962 35.8007 28.0705C35.9214 27.7827 36.16 27.654 36.4041 27.6457C36.4347 27.3634 36.4582 27.0798 36.4693 26.7934C36.4929 26.1665 36.1281 25.7293 35.6495 25.5176C35.5441 24.9876 35.3679 24.4756 35.0877 24.0093C34.3705 22.811 32.5741 21.7248 31.3464 22.9342C31.1439 23.1335 31.0121 23.3548 30.9247 23.5901C30.7888 23.662 30.6611 23.7492 30.546 23.8502C30.6403 23.9955 30.7069 24.1698 30.7305 24.3719C30.7388 24.4466 30.7444 24.5199 30.7499 24.5933C30.7416 24.7538 30.7388 24.9157 30.7333 25.0776C30.7291 25.245 30.7236 25.411 30.7194 25.5785C30.4101 27.8381 28.4652 29.2979 26.5939 30.6027C26.555 30.6304 26.5162 30.6539 26.4774 30.6746C26.1971 31.0981 25.9752 31.5519 25.8822 32.0611C25.6423 33.3798 26.3123 34.5006 26.8366 35.6601C27.078 36.1956 27.3208 36.7297 27.5621 37.2652C28.0338 37.7371 28.4957 38.2158 28.9036 38.7444C29.0992 38.9976 29.1061 39.3062 28.9521 39.558C30.8332 38.2283 32.735 36.8792 34.7437 35.6781C34.7464 35.5896 34.7492 35.5024 34.7548 35.4138H34.7575Z" fill="white"/>
<path d="M45.6523 61.99C46.4902 61.5527 46.6553 60.6824 46.2738 59.884C45.6121 58.4989 44.9546 57.1096 44.3026 55.7204C44.4649 55.4146 44.5176 55.0645 44.3733 54.72C41.986 48.9831 39.1755 43.4234 35.953 38.1072C35.9059 38.0297 35.8532 37.9605 35.7977 37.8955L35.2317 36.5229C35.1179 36.2489 34.9473 36.0178 34.7406 35.8365C34.7406 35.7812 34.7462 35.7272 34.7476 35.6719C32.7389 36.8715 30.8357 38.2207 28.956 39.5518C28.9213 39.6085 28.8797 39.6639 28.827 39.7137C28.6286 39.9019 28.4136 40.0707 28.1875 40.2201C29.6108 44.6563 31.3808 48.9693 33.463 53.1384C33.5032 53.2187 33.5449 53.2961 33.5851 53.3764C33.5823 53.5286 33.6045 53.6877 33.6614 53.8552C34.7906 57.1761 36.2013 60.5052 38.3446 63.3142C39.4349 64.7435 40.7 66.1079 42.1857 67.136C43.2622 67.8804 44.8436 67.8638 45.558 66.6268C46.0574 65.7619 45.9131 64.4626 45.9686 63.4899C45.9991 62.9599 45.6828 62.5268 45.2528 62.2556C45.257 62.2141 45.2597 62.1712 45.2597 62.1283C45.4026 62.0951 45.5358 62.0495 45.6523 61.9886V61.99Z" fill="white"/>
<path d="M33.4301 28.7168C34.2416 26.9428 34.4677 24.8797 33.5244 23.1058C33.1388 22.3808 32.4008 21.3042 31.4728 21.3125C30.8777 21.3181 30.6613 21.801 30.5683 22.2991C30.4573 22.89 30.5267 23.4767 30.6307 24.0634C30.7126 24.5283 30.8416 24.9904 30.7528 25.465C30.6765 25.876 30.4823 26.2579 30.2215 26.5831C29.6403 27.3095 28.8288 27.7509 28.0353 28.2062C27.2307 28.6683 26.4428 29.208 25.967 30.0271C25.4662 30.8892 25.2997 31.9256 25.4204 32.908C25.6965 35.1621 27.1017 37.12 28.5333 38.8095C28.7511 39.0669 29.1922 39.0337 29.4156 38.8095C29.6708 38.5549 29.6333 38.1868 29.4156 37.9295C27.6039 35.7903 24.8711 31.6502 28.2045 29.5553C28.8912 29.1236 29.6153 28.7707 30.2562 28.2698C30.947 27.7302 31.531 27.0508 31.8362 26.2206C32.1678 25.3156 31.9416 24.4674 31.8029 23.5542C31.7696 23.33 31.7488 23.1044 31.753 22.8775C31.7585 22.6547 31.8889 22.3946 31.864 22.1829C31.7433 22.3088 31.6226 22.4333 31.5005 22.5593C31.4811 22.5662 31.4672 22.562 31.4575 22.5468C31.4298 22.5164 31.6406 22.6672 31.581 22.6229C31.7599 22.7585 31.9222 22.9578 32.0609 23.1335C33.179 24.556 33.0694 26.5181 32.3495 28.0899C32.2094 28.3957 32.2621 28.7597 32.5728 28.9423C32.8406 29.0987 33.2858 29.0267 33.4273 28.7195L33.4301 28.7168Z" fill="#101841"/>
<path d="M34.859 28.8643C35.6678 27.6411 35.9397 26.144 35.7024 24.7063C35.4805 23.3669 34.6842 21.777 33.2471 21.4407C32.4661 21.2581 32.1318 22.4578 32.9156 22.6418C33.9241 22.877 34.3777 24.1763 34.5067 25.084C34.6634 26.1868 34.3929 27.3118 33.7812 28.2361C33.3373 28.9072 34.4179 29.5313 34.859 28.8643Z" fill="#101841"/>
<path d="M35.2735 23.8702C35.7479 24.7641 35.9255 25.8171 35.7576 26.8161C35.5828 27.8497 35.0085 28.7422 34.5549 29.6721C34.1596 30.4802 33.7975 31.3159 33.6297 32.2029C33.5367 32.6941 33.4854 33.1936 33.4784 33.6931C33.4743 33.9491 33.4757 34.2079 33.4965 34.4639C33.5284 34.8707 33.749 35.0215 34.0569 35.2429C34.3302 35.4394 34.7519 35.2899 34.9114 35.0201C35.0959 34.706 34.9614 34.3656 34.6881 34.1678C34.6049 34.1083 34.523 34.0488 34.4398 33.9893C34.5424 34.1691 34.6465 34.3476 34.7491 34.5275C34.6964 33.6046 34.7436 32.6996 35.0141 31.8113C35.2721 30.9631 35.6924 30.1785 36.0919 29.3912C36.5913 28.4115 36.9936 27.472 37.056 26.3581C37.1157 25.2761 36.8604 24.1954 36.3527 23.2406C35.9768 22.5322 34.8989 23.1604 35.2749 23.8688L35.2735 23.8702Z" fill="#101841"/>
<path d="M40.9763 48.263C41.1497 48.6228 41.3245 48.9825 41.4979 49.3423C41.645 49.6453 42.0778 49.7256 42.3524 49.5651C42.6646 49.3824 42.7201 49.0185 42.5758 48.7127C40.4256 44.1354 37.9772 39.7034 35.2458 35.4457C35.0752 35.1801 34.6771 35.0237 34.3913 35.2229C32.6185 36.4572 30.8456 37.6915 29.0728 38.9271C28.7302 39.1665 28.3209 39.3796 28.0213 39.6702C27.9117 39.7767 27.8313 39.9192 27.7869 40.0645C27.7217 40.2762 27.7147 40.5059 27.7286 40.7246C27.7758 41.404 27.9547 42.0778 28.1392 42.7309C28.3958 43.6386 28.6983 44.5339 29.0118 45.4236C30.3046 49.0835 31.7834 52.6936 33.3648 56.2387C34.1499 57.9988 34.9864 59.7491 35.945 61.422C37.1671 63.5543 38.6708 65.7655 40.8071 67.0786C41.8003 67.6888 42.9614 68.0597 44.135 68.0085C45.4625 67.9504 46.9163 67.4425 47.8499 66.4739C48.7363 65.5566 49.0138 64.3001 48.9971 63.0603C48.9777 61.5341 48.667 59.9982 48.4353 58.4941C47.8652 54.801 47.1868 51.1162 46.2005 47.5075C45.7164 45.7336 45.156 43.9804 44.4887 42.266C44.1572 41.415 43.8007 40.5737 43.415 39.7449C43.0474 38.9548 42.6937 38.1204 41.8489 37.7371C41.0665 37.3829 40.1704 37.2293 39.327 37.091C38.994 37.037 38.6556 37.1781 38.5585 37.5254C38.4766 37.8229 38.6597 38.2367 38.994 38.292C39.37 38.3529 39.7431 38.4235 40.1135 38.5093C40.5269 38.6047 40.9847 38.685 41.362 38.8829C41.6797 39.0489 41.8322 39.3409 41.9876 39.6494C42.1957 40.0604 42.3885 40.481 42.5772 40.9017C43.2819 42.4763 43.87 44.1036 44.3847 45.7502C45.4459 49.143 46.1867 52.6272 46.7901 56.128C47.08 57.8092 47.3422 59.4959 47.5794 61.1854C47.7376 62.309 47.8929 63.5239 47.5558 64.588C47.216 65.6589 46.195 66.3065 45.0727 66.6096C44.1239 66.8655 43.121 66.7894 42.2567 66.4311C40.194 65.5787 38.7249 63.5723 37.5749 61.7237C36.436 59.893 35.5122 57.9379 34.6077 55.9827C34.4066 55.5482 34.2165 55.1082 34.0265 54.6682C33.6783 53.8642 33.4328 53.2845 33.1109 52.5124C32.3008 50.571 31.5157 48.62 30.7791 46.6496C30.1507 44.967 29.5056 43.2581 29.1075 41.5022C29.0756 41.3611 29.0464 41.2199 29.0201 41.0788C29.0076 41.0124 28.9993 40.946 28.9868 40.8795C28.9646 40.755 29.0007 41.011 28.9923 40.9266C28.9882 40.8892 28.9826 40.8519 28.9799 40.8145C28.9715 40.7121 28.9688 40.6111 28.966 40.5087C28.966 40.4713 28.9785 40.4298 28.9729 40.3939C28.9979 40.5737 28.941 40.5184 28.9757 40.4257C29.0242 40.2928 28.9133 40.5474 28.948 40.4866C29.0215 40.3565 28.769 40.7052 28.7912 40.6305C28.8259 40.517 29.267 40.2998 29.3572 40.2361C29.5833 40.0784 29.8094 39.9206 30.0355 39.7629C30.8651 39.1845 31.6946 38.6075 32.5255 38.0291C33.3565 37.4507 34.1846 36.8737 35.0156 36.2953C34.7312 36.2206 34.4468 36.1459 34.161 36.0725C36.891 40.3302 39.3408 44.7636 41.491 49.3395C41.8503 49.1306 42.2096 48.9203 42.5689 48.7113C42.3955 48.3516 42.2207 47.9918 42.0473 47.632C41.9002 47.329 41.4674 47.2487 41.1927 47.4092C40.882 47.5905 40.8224 47.9572 40.9694 48.2616L40.9763 48.263Z" fill="#101841"/>
</g>
<defs>
<clipPath id="clip0_171_2261">
<rect width="49" height="68.6" fill="white"/>
</clipPath>
</defs>
</svg>
