<svg width="53" height="67" viewBox="0 0 53 67" fill="none" xmlns="http://www.w3.org/2000/svg">
<g clip-path="url(#clip0_171_2313)">
<path d="M47.7057 49.0496C47.5384 48.7059 47.3808 48.3569 47.2299 48.0052C47.3237 46.508 47.253 45.0081 47.0096 43.4988C46.6222 41.1014 45.4395 39.2322 43.4166 37.8698C42.8606 37.4952 42.2883 37.1394 41.7078 36.7931C42.2475 34.3647 41.3802 31.6964 40.0806 29.5914C39.2078 28.1765 38.1869 26.845 37.223 25.4907C36.3516 24.2684 35.4802 23.0448 34.6088 21.8225C34.6945 21.6352 34.7801 21.4479 34.8753 21.2632C34.8998 21.2161 34.9256 21.1689 34.9514 21.1217C35.1458 21.1581 35.3443 21.181 35.5455 21.1702C36.2402 21.1325 36.9253 20.8913 37.465 20.4493C38.4452 19.6461 38.7592 18.343 38.2086 17.1962C37.8062 16.3579 37.0531 15.8149 36.1953 15.6141C36.3122 15.447 36.4115 15.2637 36.4876 15.0669C37.8932 11.4756 36.9824 7.55402 34.5939 4.61623C33.4737 3.23763 31.9321 1.94932 30.1431 1.57468C29.5735 1.45474 29.0148 1.43183 28.4791 1.49248C28.4384 1.48574 28.3976 1.47765 28.3554 1.47092C24.9609 0.93861 21.6969 2.33743 19.7217 5.1135C18.6912 6.56353 17.8878 8.96227 18.1379 10.9945C18.1814 12.1709 18.3051 13.3312 18.5036 14.478C18.558 14.9066 18.6219 15.3351 18.6953 15.7609C18.335 15.668 17.953 15.637 17.5493 15.6801C16.4468 15.7987 15.4245 16.4738 15.0968 17.5654C14.7638 18.6745 15.2314 19.8981 16.232 20.4897C17.0884 20.9951 18.0781 21.0099 18.9631 20.6662C19.065 21.3171 19.2255 21.9572 19.3913 22.5542C19.3967 22.5745 19.4035 22.5947 19.409 22.6149C19.322 22.9639 19.2241 23.3102 19.1113 23.6512C18.8353 24.4827 18.6776 24.8384 18.2507 25.62C17.4296 27.124 16.6113 28.1279 15.3048 29.2761C14.9555 29.5834 14.7774 29.9566 14.7298 30.3421C13.456 31.1681 12.2679 32.1532 12.3793 33.8539C12.4419 34.8161 13.0115 35.4711 13.804 35.6921C12.0476 37.0006 10.4353 38.4708 9.13844 40.2632C7.1088 43.0662 6.50657 46.4487 5.78743 49.7463C5.44077 51.3364 4.07454 53.0371 3.42065 54.3847C2.61314 56.0477 2.43777 58.8925 2.24609 60.9099C3.32549 62.8181 5.05197 64.4096 6.88857 65.5308H11.1436C11.6955 64.7411 12.3589 64.035 12.9693 63.2884C13.2249 62.9757 13.6042 62.9757 13.8802 63.1348C14.1384 62.9811 14.5136 62.9906 14.7502 63.2062C15.2301 63.2951 15.5794 63.9218 15.1512 64.3301C15.1431 64.3907 15.1254 64.4527 15.0955 64.512C15.1268 64.8503 15.1404 65.1912 15.1444 65.5308H51.1382C51.2456 65.3718 51.3326 65.1912 51.3938 64.9904C53.0999 59.321 50.1159 54.0007 47.707 49.0469L47.7057 49.0496Z" fill="white"/>
<path d="M50.4977 54.6539C49.7011 52.7268 48.6801 50.9035 47.7734 49.0276C46.9428 47.3108 46.3473 45.5562 45.9273 43.7005C45.5262 41.9257 45.0341 40.1779 43.7766 38.798C43.2342 38.2037 42.5803 37.7738 41.8857 37.4045C41.4493 36.9194 41.0401 36.4113 40.5398 35.9855C39.8574 35.406 39.0743 34.9007 38.2505 34.5422C37.6782 34.2929 37.0923 34.0908 36.49 33.9466C36.0632 33.6636 35.5724 33.6137 35.1197 33.7229C35.1061 33.7215 35.0925 33.7202 35.0789 33.7188C34.7608 33.5531 34.4264 33.4156 34.0716 33.3132C32.3438 32.8186 32.5885 30.1692 30.9449 30.6422C28.0602 31.471 25.1333 31.8618 22.3057 30.8821C21.7035 30.6732 19.0566 33.611 18.5781 34.053C16.7605 34.4694 14.9253 34.9424 13.2777 35.8251C11.5607 36.7442 10.136 38.0985 9.04709 39.6968C8.03431 41.1832 7.30022 42.8704 6.7211 44.5657C6.11071 46.3553 5.78309 48.2784 4.95655 49.9885C4.61533 50.696 4.1572 51.3442 3.70723 51.991C2.9473 53.8871 2.18194 55.7805 1.72517 57.7736C1.61777 58.2412 1.53485 58.7075 1.48047 59.1751C2.32876 61.8528 4.50929 64.0818 6.87607 65.5291H11.1474C11.6994 64.7421 12.3587 64.0386 12.9677 63.2934C13.2233 62.9808 13.6026 62.9808 13.8785 63.1398C14.1368 62.9862 14.512 62.9956 14.7486 63.2112C15.2285 63.3002 15.5778 63.9268 15.1496 64.3351C15.1414 64.3958 15.1238 64.4578 15.0939 64.517C15.1238 64.8526 15.1374 65.1909 15.1428 65.5291H50.4039C51.4955 64.2583 51.8449 62.435 51.8585 60.8125C51.8761 58.6994 51.2998 56.5958 50.4977 54.6539Z" fill="#C3C3C3"/>
<path d="M12.1099 43.0127C12.4851 46.2604 10.8986 49.3154 10.6322 52.5106C10.503 54.0658 10.7872 55.5549 11.3921 56.9874C11.9441 58.2919 12.6795 59.506 13.298 60.7782C13.9628 62.1447 14.4468 63.6405 14.2374 65.1741C14.1939 65.4989 14.3163 65.825 14.6643 65.9207C14.9498 65.9988 15.3726 65.8236 15.4174 65.4975C15.62 64.0124 15.3861 62.5759 14.8152 61.1933C14.2646 59.8591 13.5156 58.6234 12.8821 57.3283C12.2377 56.0117 11.7945 54.6466 11.8217 53.1696C11.8516 51.5754 12.2934 50.0243 12.6809 48.488C13.1295 46.7038 13.5468 44.8616 13.3334 43.0127C13.2953 42.6879 13.0792 42.4062 12.7216 42.4062C12.4199 42.4062 12.0718 42.6852 12.1099 43.0127Z" fill="#101841"/>
<path d="M40.7565 42.975C40.3745 46.2833 42.0072 49.337 42.2423 52.5834C42.3511 54.0819 42.0425 55.4821 41.4185 56.8445C40.8326 58.1248 40.0849 59.3268 39.5072 60.6125C38.807 62.1689 38.4386 63.7564 38.6711 65.4598C38.716 65.7846 39.136 65.9611 39.4242 65.8829C39.7777 65.7859 39.896 65.4625 39.8511 65.1364C39.465 62.2983 41.3573 59.8969 42.4748 57.455C43.1205 56.0441 43.5365 54.5833 43.4889 53.02C43.44 51.4123 43.024 49.8437 42.6311 48.2913C42.1907 46.5475 41.7706 44.7821 41.98 42.9736C42.018 42.6475 41.6714 42.3672 41.3682 42.3672C41.0066 42.3672 40.7945 42.6461 40.7565 42.9736V42.975Z" fill="#101841"/>
<path d="M50.3998 65.6039C52.8944 63.2752 52.9325 59.6218 51.8694 56.6086C51.259 54.8796 50.3781 53.2652 49.5746 51.6211C48.9384 50.3179 48.4776 48.9825 48.1092 47.5836C47.3941 44.8696 46.9047 42.0099 45.4216 39.5735C44.6209 38.2582 43.5469 37.1828 42.2568 36.3365C40.809 35.3864 39.1953 34.7288 37.6075 34.0483C36.6926 33.6561 35.7682 33.264 34.8982 32.7815C34.3014 32.45 33.7127 32.0349 33.3212 31.4716C32.5518 30.3626 32.579 28.9624 32.579 27.6404C32.579 26.8601 31.3555 26.8588 31.3555 27.6404C31.3555 28.8964 31.3663 30.1982 31.8748 31.3719C32.4376 32.6724 33.5904 33.4957 34.8288 34.1143C37.7421 35.567 41.2372 36.4308 43.4599 38.9441C45.2979 41.0235 45.9232 43.8508 46.5662 46.4638C46.8938 47.7979 47.2228 49.1374 47.7136 50.4244C48.3253 52.0267 49.1926 53.5226 49.9186 55.0736C50.6894 56.7231 51.3406 58.4817 51.331 60.3226C51.3229 61.9828 50.7709 63.5932 49.5352 64.7468C48.9602 65.2831 49.8275 66.1389 50.3998 65.6039Z" fill="#101841"/>
<path d="M18.7484 15.5309C18.0591 15.2102 17.272 14.8746 16.5012 15.1105C15.7304 15.3463 15.0915 15.9015 14.7829 16.64C14.1263 18.214 14.4689 20.5009 15.7481 21.6922C16.4727 22.3673 17.4406 22.6517 18.4235 22.5708C18.7525 22.5439 19.0352 22.3121 19.0352 21.9644C19.0352 21.6571 18.7552 21.331 18.4235 21.358C17.6758 21.42 16.9865 21.2502 16.4686 20.6896C15.9275 20.1047 15.7236 19.2314 15.7073 18.4593C15.6896 17.6669 15.8093 16.8219 16.561 16.4042C16.7989 16.2721 16.8805 16.2344 17.1116 16.2424C17.3876 16.2519 17.8212 16.4325 18.1326 16.5767C18.4316 16.7155 18.7919 16.6602 18.97 16.3597C19.1249 16.0969 19.0515 15.6697 18.7511 15.5296L18.7484 15.5309Z" fill="#101841"/>
<path d="M18.0223 19.1183C18.0291 20.8769 18.5538 22.6383 19.3409 24.2028C20.215 25.9399 21.5459 27.5355 23.2874 28.4694C24.3532 29.0407 25.5318 29.3386 26.7403 29.3696V28.1567H26.6873V29.3696C28.823 29.3574 30.8023 28.4815 32.2705 26.9506C33.6096 25.5558 34.5149 23.7595 35.0071 21.9065C35.249 20.9996 35.3972 20.0562 35.4013 19.117C35.404 18.3367 34.1805 18.3353 34.1778 19.117C34.1724 20.6182 33.7686 22.1895 33.0957 23.5897C32.3466 25.1488 31.2414 26.5733 29.6957 27.4142C28.77 27.9182 27.7381 28.1513 26.6859 28.1581C25.8988 28.1621 25.8975 29.3709 26.6859 29.3709H26.739C27.5274 29.3709 27.5261 28.1783 26.739 28.1581C23.025 28.061 20.5277 24.8322 19.6087 21.5453C19.3695 20.691 19.2471 19.9835 19.243 19.1183C19.2403 18.338 18.0168 18.3367 18.0195 19.1183H18.0223Z" fill="#101841"/>
<path d="M26.1448 17.8173C26.6124 18.3079 26.5757 18.9655 26.2304 19.5045C25.9966 19.8697 25.8281 20.2632 25.9354 20.7039C26.0388 21.1257 26.3446 21.4532 26.6641 21.7308C27.2555 22.2415 28.1241 21.3872 27.5287 20.8737C27.3941 20.7578 27.2568 20.6419 27.1576 20.4937C27.129 20.4506 27.1331 20.3252 27.1195 20.4209C27.129 20.3562 27.1698 20.3023 27.2024 20.2471C27.4091 19.9061 27.6062 19.5868 27.6769 19.1865C27.821 18.3739 27.5804 17.5599 27.0094 16.9603C26.467 16.3916 25.6037 17.25 26.1448 17.8173Z" fill="#101841"/>
<path d="M35.3123 16.2781C35.625 16.1326 36.0573 15.9533 36.3333 15.9439C36.5739 15.9358 36.65 15.9749 36.8839 16.1056C37.6329 16.5234 37.7566 17.3683 37.7376 18.1607C37.7186 18.9329 37.5174 19.8048 36.9763 20.391C36.457 20.9516 35.7691 21.1214 35.0214 21.0594C34.6924 21.0325 34.4097 21.3572 34.4097 21.6658C34.4097 22.0162 34.6911 22.2453 35.0214 22.2723C36.7873 22.4178 38.2052 21.3357 38.715 19.6929C39.237 18.0098 39.063 15.7498 37.255 14.9345C36.3741 14.5383 35.5244 14.847 34.6965 15.2324C34.3974 15.3712 34.3213 15.797 34.4777 16.0625C34.6571 16.3657 35.0146 16.4196 35.3151 16.2795L35.3123 16.2781Z" fill="#101841"/>
<path d="M24.0008 17.313C23.9723 17.2106 23.9193 17.1216 23.8431 17.0448L23.82 17.0219C23.7643 16.9626 23.699 16.9208 23.6229 16.8966C23.5495 16.8588 23.472 16.8413 23.3877 16.844C23.3034 16.8413 23.2246 16.8588 23.1525 16.8966C23.0764 16.9208 23.0112 16.9626 22.9554 17.0219L22.8603 17.1445C22.8045 17.2389 22.7773 17.3413 22.7773 17.4504C22.7841 17.5043 22.7923 17.5583 22.7991 17.6122C22.8276 17.7146 22.8807 17.8035 22.9568 17.8803C22.9649 17.8884 22.9717 17.8952 22.9799 17.9032C23.0356 17.9625 23.1009 18.0043 23.177 18.0286C23.2504 18.0663 23.3279 18.0838 23.4122 18.0811C23.4965 18.0838 23.5753 18.0663 23.6474 18.0286C23.7235 18.0043 23.7888 17.9625 23.8445 17.9032C23.8758 17.8628 23.9084 17.821 23.9397 17.7806C23.9954 17.6863 24.0226 17.5839 24.0226 17.4747C24.0158 17.4208 24.0076 17.3669 24.0008 17.313Z" fill="#101841"/>
<path d="M30.2588 16.7812C29.4717 16.7812 29.4703 17.9941 30.2588 17.9941C31.0473 17.9941 31.0473 16.7812 30.2588 16.7812Z" fill="#101841"/>
<path d="M17.4602 23.5507C18.0984 23.5507 18.6157 22.887 18.6157 22.0683C18.6157 21.2496 18.0984 20.5859 17.4602 20.5859C16.822 20.5859 16.3047 21.2496 16.3047 22.0683C16.3047 22.887 16.822 23.5507 17.4602 23.5507Z" fill="#9BDAFF"/>
<path d="M18.0024 22.0654C17.9943 22.3901 17.8339 22.9413 17.4587 22.9413C17.0835 22.9413 16.9149 22.3915 16.9149 22.0654C16.9149 21.7392 17.0767 21.2271 17.4192 21.1908C17.8203 21.1476 17.9943 21.7325 18.0024 22.0654C18.0228 22.8443 19.2463 22.847 19.2259 22.0654C19.2001 21.0789 18.5761 19.9766 17.4587 19.9766C16.3412 19.9766 15.6914 21.0776 15.6914 22.0654C15.6914 23.0532 16.3616 24.1541 17.4587 24.1541C18.5557 24.1541 19.2001 23.0518 19.2259 22.0654C19.2463 21.2851 18.0228 21.2851 18.0024 22.0654Z" fill="#101841"/>
<path d="M35.6399 23.4647C36.2781 23.4647 36.7954 22.8011 36.7954 21.9824C36.7954 21.1637 36.2781 20.5 35.6399 20.5C35.0017 20.5 34.4844 21.1637 34.4844 21.9824C34.4844 22.8011 35.0017 23.4647 35.6399 23.4647Z" fill="#9BDAFF"/>
<path d="M36.1821 21.9794C36.174 22.3042 36.0136 22.8554 35.6384 22.8554C35.2632 22.8554 35.0946 22.3055 35.0946 21.9794C35.0946 21.6533 35.2564 21.1412 35.5989 21.1048C36 21.0617 36.174 21.6466 36.1821 21.9794C36.2025 22.7583 37.426 22.761 37.4056 21.9794C37.3798 20.993 36.7558 19.8906 35.6384 19.8906C34.5209 19.8906 33.8711 20.9916 33.8711 21.9794C33.8711 22.9672 34.5413 24.0682 35.6384 24.0682C36.7354 24.0682 37.3798 22.9659 37.4056 21.9794C37.426 21.1992 36.2025 21.1992 36.1821 21.9794Z" fill="#101841"/>
<path d="M23.8032 8.19536C24.0941 6.92996 24.6923 5.7508 25.5786 4.7913C26.0163 4.31695 26.5057 3.88436 27.0794 3.57846C27.5756 3.31433 28.2336 3.10679 28.7842 3.33858C29.0887 3.46661 29.4394 3.42887 29.6216 3.12162C29.7711 2.86692 29.7086 2.42086 29.4027 2.29149C27.7483 1.59613 26.0993 2.54215 24.9356 3.70378C23.7923 4.84521 22.9834 6.30602 22.6232 7.87328C22.4478 8.63333 23.6278 8.95811 23.8032 8.19536Z" fill="#101841"/>
<path d="M28.3179 8.203C28.8834 7.0481 30.043 6.26379 31.3467 6.22876C32.1325 6.20854 32.1352 4.99435 31.3467 5.01591C29.6365 5.06173 28.0134 6.05626 27.2616 7.59119C27.1175 7.88631 27.18 8.24613 27.4805 8.42131C27.7483 8.57764 28.1724 8.49948 28.3179 8.20435V8.203Z" fill="#101841"/>
<path d="M31.9619 10.9307C32.3344 10.5075 32.9679 10.5453 33.3159 10.9778C33.5226 11.2339 33.9657 11.1908 34.1805 10.9778C34.4361 10.7245 34.3872 10.3768 34.1805 10.1208C33.4383 9.20034 31.8708 9.19361 31.096 10.0736C30.5807 10.6598 31.4426 11.5209 31.9606 10.9307H31.9619Z" fill="#101841"/>
<path d="M18.4581 14.8578C17.6479 11.5211 18.4934 7.92169 20.5462 5.182C21.1226 4.41251 21.8159 3.72658 22.5718 3.13094C22.83 2.9261 22.7865 2.48678 22.5718 2.27386C22.3162 2.02051 21.9654 2.06903 21.7072 2.27386C18.7585 4.60253 17.0198 8.29497 16.9328 12.013C16.9083 13.0776 17.028 14.1463 17.2795 15.1812C17.463 15.94 18.643 15.6192 18.4595 14.8592L18.4581 14.8578Z" fill="#101841"/>
<path d="M26.5893 1.30579C27.5654 1.1077 28.5483 1.21685 29.4741 1.57127C29.7827 1.68986 30.1456 1.44055 30.2272 1.14812C30.3224 0.805832 30.1089 0.520139 29.8003 0.401549C28.6693 -0.031033 27.4485 -0.105151 26.2644 0.13607C25.4936 0.292393 25.8199 1.46212 26.5893 1.30579Z" fill="#101841"/>
<path d="M32.5086 2.66943C33.5078 3.07776 34.3452 3.82568 34.8999 4.73936C35.305 5.40777 36.364 4.79865 35.9561 4.12754C35.2248 2.92278 34.1399 2.03336 32.8349 1.50106C32.529 1.37573 32.1619 1.63582 32.0817 1.9242C31.9852 2.27189 32.2027 2.54545 32.5086 2.67078V2.66943Z" fill="#101841"/>
<path d="M35.8338 8.68108C36.8493 10.154 37.0356 12.1134 36.2281 13.7238C35.8787 14.4205 36.9336 15.0351 37.2844 14.3356C38.2795 12.3533 38.1585 9.90875 36.8901 8.06927C36.4483 7.42916 35.3879 8.03423 35.8338 8.68108Z" fill="#101841"/>
<path d="M15.7704 27.3892C15.0336 28.9336 13.3764 29.7637 12.4588 31.1868C11.6105 32.5021 11.5901 34.3591 12.9537 35.3388C13.2215 35.5315 13.6347 35.3846 13.7911 35.1218C13.9719 34.8159 13.84 34.4844 13.5722 34.2917C13.1549 33.9925 13.0515 33.4265 13.0828 32.9508C13.1236 32.3296 13.4947 31.7582 13.8944 31.3C14.8664 30.1882 16.1742 29.3675 16.8267 28.0024C16.9681 27.7059 16.9096 27.3475 16.6078 27.1723C16.3414 27.0173 15.9132 27.0928 15.7704 27.3892Z" fill="#101841"/>
<path d="M36.7065 24.7301C36.9648 26.7286 38.5989 27.9104 39.8863 29.2971C41.1696 30.6798 42.2626 32.5678 41.4782 34.4679C41.3531 34.7711 41.6141 35.135 41.905 35.2145C42.2558 35.3101 42.5317 35.0959 42.6582 34.7913C43.4888 32.7793 42.5711 30.6272 41.2797 29.0438C40.6679 28.2945 39.9461 27.653 39.2745 26.9604C38.6791 26.3459 38.0442 25.6114 37.93 24.7314C37.8879 24.4067 37.6785 24.125 37.3183 24.125C37.0206 24.125 36.6644 24.404 36.7065 24.7314V24.7301Z" fill="#101841"/>
<path d="M36.6355 6.6191H36.8244C36.9808 6.6191 37.1466 6.55172 37.2567 6.44121C37.3165 6.38596 37.3587 6.32128 37.3831 6.24581C37.4212 6.17304 37.4389 6.09623 37.4362 6.01267C37.4294 5.85635 37.3777 5.69329 37.2567 5.58413C37.1371 5.47498 36.9903 5.40625 36.8244 5.40625H36.6355C36.4791 5.40625 36.3133 5.47363 36.2032 5.58413C36.1433 5.63939 36.1012 5.70407 36.0767 5.77954C36.0387 5.85231 36.021 5.92912 36.0237 6.01267C36.0305 6.169 36.0822 6.33206 36.2032 6.44121C36.3228 6.55037 36.4696 6.6191 36.6355 6.6191Z" fill="#101841"/>
<path d="M21.3007 30.9851C22.4277 31.9433 24.1868 31.8125 25.5775 31.8368C26.6678 31.8557 27.7513 31.791 28.8334 31.6549C29.9019 31.5201 30.9949 31.3948 31.9465 30.8584C32.6303 30.4717 32.0145 29.4232 31.3293 29.8113C30.5408 30.2561 29.5879 30.3517 28.7015 30.4595C27.686 30.5822 26.6664 30.6428 25.6428 30.6266C25.0079 30.6159 24.3731 30.6199 23.7409 30.5647C23.2271 30.5202 22.5106 30.4218 22.1667 30.1294C21.9166 29.9165 21.5481 29.8855 21.3021 30.1294C21.0819 30.3477 21.0506 30.7735 21.3021 30.9865L21.3007 30.9851Z" fill="#101841"/>
<path d="M21.7867 34.4773C23.6451 35.4058 25.7223 35.2414 27.7234 35.0042C28.051 34.9651 28.3352 34.7535 28.3352 34.3978C28.3352 34.0999 28.0537 33.7523 27.7234 33.7913C25.9752 33.9975 24.038 34.2455 22.4039 33.4302C21.7025 33.0798 21.0826 34.1255 21.7867 34.4773Z" fill="#101841"/>
<path d="M23.645 34.8618C23.3446 36.0908 23.0754 37.3279 22.8375 38.5704C22.7764 38.8925 22.9273 39.224 23.2644 39.317C23.5635 39.3979 23.955 39.2173 24.0175 38.8939C24.2541 37.6514 24.5232 36.4143 24.825 35.1852C25.0113 34.4265 23.8313 34.1031 23.645 34.8632V34.8618Z" fill="#101841"/>
<path d="M25.9328 34.8196C25.9002 35.9206 25.8689 37.0216 25.8363 38.1212C25.8132 38.9015 27.0366 38.9015 27.0598 38.1212C27.0924 37.0202 27.1236 35.9192 27.1563 34.8196C27.1794 34.0393 25.9559 34.0393 25.9328 34.8196Z" fill="#101841"/>
<path d="M30.7446 34.3808C31.4578 34.3808 32.0361 33.8076 32.0361 33.1005C32.0361 32.3935 31.4578 31.8203 30.7446 31.8203C30.0313 31.8203 29.4531 32.3935 29.4531 33.1005C29.4531 33.8076 30.0313 34.3808 30.7446 34.3808Z" fill="white"/>
<path d="M31.4228 33.0976C31.3915 33.9654 30.0633 33.9695 30.0633 33.0976C30.0633 32.2257 31.3915 32.2297 31.4228 33.0976C31.45 33.8765 32.6735 33.8792 32.6463 33.0976C32.6096 32.0734 31.8048 31.2109 30.7431 31.2109C29.6813 31.2109 28.8398 32.0721 28.8398 33.0976C28.8398 34.1231 29.7099 34.9883 30.7431 34.9842C31.8048 34.9802 32.6096 34.1245 32.6463 33.0976C32.6735 32.3173 31.45 32.3187 31.4228 33.0976Z" fill="#101841"/>
<path d="M26.7906 24.1433C26.8817 24.0948 26.796 24.1433 26.8409 24.1177C26.8531 24.1109 26.97 24.0867 26.8925 24.0988C26.811 24.1109 26.9455 24.0988 26.9646 24.1015C26.9143 24.0948 26.8776 24.0786 26.9442 24.1042C27.038 24.1392 26.9034 24.1136 26.9483 24.1042C26.9714 24.1001 27.0353 24.1797 26.9823 24.1204C26.9238 24.0543 27.1087 24.2942 27.0176 24.1527C27.0393 24.1864 27.0597 24.2187 27.0788 24.2551C27.1182 24.3319 27.0489 24.1594 27.0747 24.2416C27.0924 24.2969 27.1155 24.4748 27.1087 24.336C27.11 24.3751 27.1128 24.4141 27.1114 24.4532C27.1087 24.5354 27.1481 24.3131 27.1114 24.4532C27.1032 24.4829 27.0951 24.5125 27.0842 24.5408C27.1264 24.4303 27.1005 24.5381 27.072 24.5395C27.0298 24.5408 27.1209 24.4963 27.0774 24.5246C27.004 24.5718 27.2066 24.46 27.0625 24.5354C27.0176 24.5583 27.004 24.5651 27.0584 24.5422C27.0448 24.5475 26.9048 24.5812 26.9578 24.5732C26.9048 24.5812 26.8545 24.5651 26.811 24.5624C26.864 24.5664 26.8341 24.5772 26.7933 24.5476C26.8599 24.5961 26.7811 24.5408 26.7593 24.5112C26.6737 24.398 26.6709 24.2201 26.7919 24.146C27.4581 23.7322 26.8449 22.6825 26.1747 23.0989C25.4624 23.5409 25.2626 24.4883 25.7424 25.1796C26.2346 25.8884 27.3194 25.9976 27.9434 25.3831C28.4314 24.9033 28.4396 24.1231 28.0902 23.5638C27.6674 22.8873 26.8626 22.7337 26.1747 23.0989C25.4801 23.4668 26.0973 24.5139 26.7919 24.146L26.7906 24.1433Z" fill="#101841"/>
<path d="M28.3738 13.5925C29.0902 14.1962 29.9426 14.4239 30.8684 14.2851C31.196 14.2366 31.3754 13.8283 31.2952 13.5386C31.1987 13.1922 30.8711 13.0656 30.5421 13.1154C30.0853 13.1841 29.5864 13.0292 29.237 12.734C28.9855 12.5225 28.6185 12.4888 28.3724 12.734C28.1536 12.951 28.1196 13.3782 28.3724 13.5911L28.3738 13.5925Z" fill="#101841"/>
<path d="M18.2891 25.765C18.27 25.6855 18.2333 25.6168 18.1789 25.5588C18.1354 25.4928 18.0783 25.4402 18.0077 25.4025C17.9587 25.3823 17.9098 25.3621 17.8622 25.3419C17.8146 25.3297 17.7684 25.323 17.7208 25.3217C17.714 25.3217 17.7072 25.3217 17.7004 25.3203C17.7004 25.3203 17.6991 25.3203 17.6977 25.3203C17.6719 25.3203 17.646 25.3217 17.6202 25.3257C17.6175 25.3257 17.6161 25.3257 17.6134 25.3257C17.6039 25.3271 17.5944 25.3284 17.5849 25.3297C17.5033 25.3338 17.4272 25.358 17.3578 25.4012L17.2341 25.4955C17.158 25.571 17.1063 25.6599 17.0764 25.7637C17.0696 25.8176 17.0615 25.8715 17.0547 25.9254C17.0547 26.0345 17.0832 26.137 17.1376 26.2313L17.2328 26.3539C17.2328 26.3539 17.2328 26.3539 17.2341 26.3553C17.2749 26.389 17.3157 26.4227 17.3592 26.451C17.3592 26.451 17.3592 26.451 17.3606 26.451C17.4081 26.4739 17.4584 26.4954 17.5087 26.5129C17.5087 26.5129 17.5101 26.5129 17.5115 26.5129C17.5658 26.5251 17.6216 26.5291 17.6759 26.5345C17.6759 26.5345 17.6773 26.5345 17.6787 26.5345C17.6787 26.5345 17.68 26.5345 17.6814 26.5345C17.7371 26.5291 17.7915 26.5237 17.8459 26.5129C17.8459 26.5129 17.8472 26.5129 17.8486 26.5129C17.8989 26.4954 17.9478 26.4739 17.9968 26.451C17.9968 26.451 17.9981 26.451 17.9995 26.451C18.0403 26.42 18.0824 26.3876 18.1232 26.3566C18.1232 26.3566 18.1232 26.3566 18.1246 26.3553C18.1585 26.3148 18.1925 26.2744 18.2211 26.2313C18.2659 26.1612 18.2904 26.0871 18.2931 26.0062C18.3108 25.9254 18.3081 25.8445 18.2823 25.765H18.2891Z" fill="#101841"/>
<path d="M14.8168 31.5922C14.8902 31.3173 15.0193 31.0976 15.1838 30.9265C15.3619 30.0424 15.6732 29.1988 16.1803 28.4523C16.8369 27.486 17.6892 26.7394 18.5729 26.0212C18.7754 25.8554 19.0065 25.7436 19.2472 25.6789C19.6115 25.2827 20.037 24.9458 20.4965 24.6682C21.2347 24.2221 22.7749 24.5199 22.9299 25.6061C23.1909 27.4348 23.4587 29.2622 23.7129 31.0922C23.9535 32.8306 23.6599 34.5475 22.0993 35.4598C21.9769 35.5312 21.8355 35.5824 21.6833 35.6161C21.7784 35.9045 21.8709 36.1943 21.9633 36.4853C21.9021 36.5649 21.8654 36.6686 21.8641 36.7966C21.8641 36.833 21.8641 36.8708 21.8627 36.9085C21.754 36.9664 21.6602 37.0608 21.6071 37.205C21.3013 38.0378 20.99 38.8679 20.6338 39.6778C20.3578 39.508 19.9269 39.5565 19.8018 39.9581C19.5843 40.6575 19.2349 41.3044 18.8461 41.9256C18.6218 41.8893 18.4016 41.8515 18.1909 41.8232C17.2801 41.7006 16.4331 41.303 15.9492 40.4298C15.5114 39.6387 15.4951 38.597 15.3619 37.713L14.9174 34.7469C14.7583 33.681 14.5313 32.6581 14.814 31.5922H14.8168Z" fill="white"/>
<path d="M19.5529 42.2071C19.5978 41.9335 19.6332 41.6425 19.7419 41.3851C19.8547 41.1182 20.0573 40.8959 20.2395 40.6735C20.6323 40.1938 20.9858 39.6884 21.2686 39.1359C21.8354 38.0268 22.1481 36.818 22.1971 35.5769C22.227 34.7966 21.0035 34.798 20.9736 35.5769C20.9287 36.7143 20.616 37.8301 20.0519 38.8233C19.7745 39.3111 19.4306 39.7316 19.0853 40.1709C18.6734 40.6937 18.4804 41.2355 18.3743 41.885C18.3213 42.2085 18.4586 42.5373 18.8012 42.6316C19.0935 42.7111 19.4999 42.5332 19.5543 42.2085L19.5529 42.2071Z" fill="#101841"/>
<path d="M23.8376 25.9777C23.6377 25.1476 23.1878 24.3606 22.591 23.7488C22.3884 23.5412 22.0948 23.5399 21.8501 23.6544C19.4425 24.777 17.0051 25.9171 15.4675 28.1716C14.7035 29.2928 14.2807 30.5811 14.1965 31.9288C14.119 33.1699 14.3256 34.407 14.4969 35.632C14.5934 36.3233 14.6777 37.0173 14.7062 37.7154C14.7212 38.0806 14.7348 38.4552 14.6994 38.8204C14.6559 39.2651 14.5023 39.6991 14.3637 40.1222C14.1203 40.8661 15.3003 41.1855 15.5437 40.4443C15.7816 39.7206 15.9379 39.0199 15.9406 38.2558C15.942 37.6345 15.893 37.0133 15.8196 36.3961C15.6796 35.2034 15.4485 34.0189 15.4091 32.8168C15.3683 31.6215 15.5654 30.4518 16.1472 29.3939C16.7536 28.2902 17.6481 27.3806 18.6908 26.6758C19.8694 25.8793 21.1799 25.2999 22.4673 24.7002C22.2199 24.6692 21.9724 24.6368 21.7264 24.6059C22.1832 25.0735 22.5067 25.6678 22.659 26.2998C22.8425 27.0585 24.0225 26.7378 23.8389 25.9777H23.8376Z" fill="#101841"/>
<path d="M18.4568 28.8014C19.2616 28.4847 20.0867 28.2232 20.9296 28.0292C21.3401 27.9349 21.7548 27.8553 22.1721 27.7907C22.3679 27.761 22.565 27.7354 22.7621 27.7138C22.8668 27.7031 22.9715 27.6923 23.0775 27.6828C23.1196 27.6788 23.1618 27.6761 23.2039 27.6721C23.3589 27.6761 23.3711 27.664 23.242 27.6316L23.0231 27.4147C23.0911 27.544 23.1074 28.0022 23.1428 28.2165C23.1944 28.5305 23.2461 28.8458 23.2977 29.1598C23.3507 29.4833 23.7559 29.6638 24.0509 29.583C24.3975 29.4886 24.5307 29.1612 24.4777 28.8364C24.4233 28.5008 24.3676 28.1653 24.3132 27.8297C24.2616 27.5144 24.2616 27.1142 24.0971 26.8312C23.7341 26.2032 22.7404 26.4956 22.1626 26.5738C20.7801 26.7624 19.4301 27.1182 18.1332 27.6289C17.826 27.7502 17.6112 28.0346 17.7064 28.3755C17.7866 28.6653 18.1495 28.9213 18.4595 28.7987L18.4568 28.8014Z" fill="#101841"/>
<path d="M19.9788 30.6587C20.6068 30.532 21.2376 30.4202 21.8725 30.3258C22.1688 30.2827 22.4638 30.2436 22.7615 30.2086C22.9152 30.1911 23.0688 30.1736 23.2224 30.1574C23.3488 30.1439 23.5459 30.0873 23.6683 30.125C23.5786 30.0725 23.4888 30.0213 23.3978 29.9687C23.3393 29.8488 23.3366 29.8609 23.3883 30.0038C23.41 30.0819 23.4304 30.1601 23.4481 30.2396C23.4725 30.3447 23.4943 30.4512 23.5092 30.5576C23.5473 30.8393 23.5459 31.125 23.5296 31.408C23.4861 32.1882 24.7096 32.1855 24.7531 31.408C24.7858 30.8312 24.73 30.2369 24.5682 29.6803C24.4921 29.4202 24.3874 29.1588 24.1387 29.0146C23.8749 28.861 23.5745 28.9068 23.2863 28.9365C22.0669 29.0591 20.8529 29.2437 19.6512 29.4863C18.8804 29.6426 19.2066 30.811 19.9761 30.656L19.9788 30.6587Z" fill="#101841"/>
<path d="M21.4419 32.9088C21.8185 32.9007 22.1937 32.9115 22.5675 32.9506C22.7211 32.9668 22.8734 32.9883 23.0243 33.0153C23.1276 33.0328 23.2296 33.053 23.3315 33.0746C23.3669 33.0813 23.4008 33.0894 23.4362 33.0988C23.5001 33.1137 23.4933 33.1137 23.4172 33.0988C23.3641 33.0099 23.3125 32.921 23.2595 32.8307C23.2731 32.7417 23.2731 32.7363 23.2581 32.8158C23.2472 32.8724 23.235 32.929 23.2228 32.9856C23.2051 33.0611 23.1874 33.1352 23.167 33.2093C23.1126 33.4142 23.0474 33.615 22.974 33.8144C22.8367 34.181 22.6532 34.526 22.4479 34.8588C22.036 35.5272 23.0936 36.1363 23.5042 35.4706C23.7747 35.0313 23.9976 34.5664 24.173 34.0826C24.3321 33.646 24.5808 33.0139 24.4503 32.549C24.2899 31.9776 23.6673 31.8927 23.1643 31.8159C22.592 31.7283 22.0197 31.6852 21.4419 31.6973C20.6561 31.7135 20.6534 32.9263 21.4419 32.9102V32.9088Z" fill="#101841"/>
<path d="M19.4707 40.1478C18.5001 39.6263 17.5308 39.1047 16.5602 38.5832C16.4147 38.5051 16.2434 38.4552 16.0613 38.4323C15.8587 38.3326 15.6561 38.2342 15.4549 38.1345C14.903 37.8636 14.1771 37.8892 13.6741 38.2584C13.6483 38.2692 13.6224 38.2787 13.5966 38.2908C12.5063 38.7867 11.9802 40.1869 11.7491 41.2757C11.6594 41.6989 11.7518 42.1005 11.9802 42.4118C11.7165 42.9791 11.0721 42.1611 10.9117 42.7621C9.91524 42.4185 9.26135 43.7796 8.1806 44.0046C6.55064 44.3442 5.198 45.39 4.17026 46.65C2.11207 49.1727 1.24339 52.6576 1.18358 55.8474C1.16455 56.8972 1.21349 58.0265 1.37118 59.1504C1.39973 59.1922 1.42556 59.2393 1.44323 59.2946C1.63627 59.8822 1.86194 60.4549 2.11615 61.0141C2.99571 62.2607 4.01257 63.4048 5.10827 64.4721C6.42557 65.0489 7.88696 65.3413 9.34972 65.5179C10.0294 65.4586 10.7078 65.3885 11.3862 65.375C11.6662 65.2591 11.9422 65.1351 12.2154 65.0058C12.3391 64.8858 12.4601 64.7645 12.577 64.6365C13.7149 63.3886 14.6991 61.979 15.5447 60.4859C15.7663 60.3781 15.9539 60.2218 16.0776 60.0142C17.0971 58.3014 17.834 56.4498 18.2092 54.4944C18.269 54.1845 18.2418 53.8893 18.1371 53.632C18.5409 52.5862 18.8699 51.5149 19.1499 50.43C19.2002 50.298 19.2491 50.1659 19.2981 50.0338C17.9495 48.2469 17.7415 45.4264 18.8685 43.4413C18.8943 43.312 18.9569 43.2203 19.0398 43.1624C19.3008 42.7689 19.6175 42.4131 19.9955 42.1153C20.0621 41.9792 20.1273 41.8417 20.1912 41.7043C20.4631 41.1154 19.9737 40.416 19.4734 40.1464L19.4707 40.1478Z" fill="#C3C3C3"/>
<path d="M17.2022 45.7215C18.1728 50.1592 18.4569 55.1143 16.3049 59.273C15.439 60.9481 14.2182 62.4857 12.6725 63.5948C11.9194 64.1352 11.0942 64.5894 10.216 64.8966C9.22092 65.2443 8.14697 65.5138 7.18041 64.9573C6.28318 64.4411 5.55044 63.6016 4.82722 62.8779C4.06322 62.1138 3.32233 61.3174 2.71874 60.4199C1.60944 58.7677 1.08333 56.811 1.24103 54.8313C1.53467 51.1321 4.017 47.9208 6.11461 45.01C7.25382 43.4292 8.31282 41.8283 9.312 40.1586C9.89792 39.1789 10.5192 38.2221 11.324 37.4027C11.9384 36.7774 12.6141 36.2909 13.3822 35.8691C13.8104 35.6347 14.244 35.4096 14.6736 35.1751C15.3629 34.7978 14.747 33.7494 14.0564 34.128C13.2258 34.5835 12.3558 34.9892 11.5931 35.5565C10.666 36.2451 9.89248 37.1009 9.22636 38.0361C8.53577 39.0064 7.9784 40.0562 7.3517 41.0655C6.84735 41.8795 6.29949 42.6651 5.74348 43.4454C3.4705 46.6338 0.748912 49.957 0.129009 53.9338C-0.198616 56.032 0.115414 58.1721 1.09285 60.0695C1.63119 61.1139 2.37752 62.0505 3.17279 62.9143C3.94087 63.7471 4.75381 64.5745 5.6157 65.3117C6.57138 66.1297 7.63718 66.6283 8.92321 66.4639C10.0108 66.3237 11.0752 65.9248 12.0404 65.4181C13.8756 64.4533 15.4009 62.9655 16.5496 61.2608C19.312 57.1627 19.5295 52.0243 18.7506 47.2982C18.6459 46.6621 18.5222 46.0301 18.3835 45.4008C18.2163 44.638 17.0377 44.9615 17.2035 45.7229L17.2022 45.7215Z" fill="#101841"/>
<path d="M18.3895 45.0693C16.4699 44.0842 14.5504 43.0977 12.6295 42.1126C12.359 41.9738 12.0885 41.835 11.8193 41.6962C11.8927 41.9725 11.9661 42.2487 12.0382 42.5263C12.8511 40.9712 13.6641 39.4147 14.4756 37.8596C14.197 37.9323 13.9183 38.0051 13.6382 38.0765C15.5578 39.0616 17.4773 40.0481 19.3982 41.0332C19.6687 41.172 19.9392 41.3108 20.2084 41.4496C20.135 41.1733 20.0616 40.8971 19.9895 40.6195C19.1766 42.1746 18.3636 43.7311 17.552 45.2862C17.1904 45.9789 18.2454 46.5921 18.6083 45.8981C19.4213 44.3429 20.2342 42.7864 21.0458 41.2313C21.1913 40.9523 21.1314 40.5588 20.8269 40.4012C18.9074 39.4161 16.9879 38.4296 15.067 37.4445C14.7965 37.3057 14.5259 37.1669 14.2568 37.0281C13.9754 36.8839 13.5784 36.9432 13.4194 37.2451C12.6064 38.8002 11.7935 40.3567 10.9819 41.9118C10.8364 42.1908 10.8962 42.5843 11.2008 42.742C13.1203 43.7271 15.0398 44.7135 16.9607 45.6986C17.2312 45.8374 17.5017 45.9762 17.7709 46.115C18.4697 46.4735 19.0882 45.4277 18.3881 45.0679L18.3895 45.0693Z" fill="#101841"/>
<path d="M10.5885 42.2319C8.69618 43.5189 7.11108 45.1953 5.95828 47.1641C5.56268 47.8406 6.61896 48.4511 7.01456 47.776C8.05997 45.9917 9.48738 44.4474 11.2057 43.279C11.8514 42.8397 11.2397 41.7885 10.5885 42.2319Z" fill="#101841"/>
</g>
<defs>
<clipPath id="clip0_171_2313">
<rect width="52.53" height="66.4937" fill="white"/>
</clipPath>
</defs>
</svg>
