<svg width="47" height="70" viewBox="0 0 47 70" fill="none" xmlns="http://www.w3.org/2000/svg">
<g clip-path="url(#clip0_171_2723)">
<path d="M18.3711 31.8203C18.3377 31.8527 18.2898 31.9405 18.2578 32.0877C18.2578 32.0864 18.2605 32.0837 18.2618 32.0823C18.2845 31.9986 18.3244 31.9094 18.3724 31.8203H18.3711Z" fill="white"/>
<path d="M43.5703 41.0797C43.3345 39.7387 43.0454 38.4098 42.6964 37.0984C41.6652 36.1045 40.2104 35.5764 38.7596 35.7466C38.7143 35.7412 38.669 35.7358 38.6237 35.7344C38.2879 35.6061 37.9469 35.4859 37.6005 35.3752C36.3495 34.9741 35.1092 34.573 33.9435 33.9518C33.8315 33.8923 33.653 33.8181 33.5491 33.7343C33.5558 33.7397 33.5598 33.7424 33.5651 33.7478C33.5145 33.7087 33.4692 33.6749 33.4412 33.656C33.1894 33.4912 32.9429 33.3184 32.7018 33.1388C32.5166 33.001 32.3368 32.8565 32.1596 32.7107C31.0138 30.8578 30.6115 28.7145 30.345 26.5726C31.1484 25.2518 31.7359 23.8108 32.085 22.3064C33.7729 22.6427 35.369 21.4326 35.9711 19.8633C36.5413 18.3805 35.9565 16.7167 34.5376 16.0171C34.2379 15.8699 33.9275 15.774 33.6157 15.7254C33.5891 15.4296 33.5118 15.1312 33.3786 14.8422C32.2821 12.4585 30.8779 10.2099 29.1553 8.24091C28.1175 7.05382 26.2484 6.58114 24.9508 7.68856C24.4219 8.13962 24.0342 8.79327 23.8676 9.49148C23.8556 9.49958 23.8423 9.50498 23.8303 9.51308C21.788 10.8541 19.9282 12.418 18.3228 14.275C17.7313 14.9583 17.1677 15.6606 16.6428 16.3952C15.18 16.0103 13.3295 16.8612 12.9578 18.525C12.722 19.5811 12.9232 20.9802 13.5613 21.858C14.3607 22.9587 15.7143 22.9047 16.7121 22.251C16.7734 22.5117 16.8373 22.771 16.904 23.0303C16.9133 23.1221 16.9213 23.2139 16.9279 23.3058C16.9373 23.5543 16.9492 23.8014 16.9666 24.0499C17.0025 24.5523 17.2383 24.9331 17.5727 25.187C18.0017 26.3511 18.544 27.464 19.2474 28.4836C19.2167 28.7172 19.1848 28.9495 19.1488 29.1831C19.1062 29.4587 19.0582 29.7328 19.0036 30.0056C18.9703 30.1758 18.933 30.3446 18.893 30.5134C18.8504 30.6944 18.8477 30.7659 18.8584 30.7754C18.7718 31.0171 18.6279 31.3088 18.5853 31.4128C18.5346 31.5384 18.4454 31.6816 18.3694 31.8247C18.4161 31.7788 18.432 31.8369 18.3308 31.9827C18.3068 32.0179 18.2828 32.0516 18.2589 32.0867C18.2535 32.1043 18.2482 32.1218 18.2455 32.1394C18.2482 32.1232 18.2522 32.1083 18.2549 32.0921C18.2056 32.1651 18.1549 32.238 18.103 32.3082C18.0204 32.419 17.9271 32.5229 17.8405 32.631C17.8019 32.6647 17.7646 32.6999 17.7246 32.7323C17.6513 32.793 17.2717 33.0753 17.1584 33.1685C16.9666 33.2738 16.7614 33.3616 16.5669 33.4521C15.8888 33.7681 15.1867 34.0328 14.4912 34.3069C13.2523 34.7972 12.0119 35.2874 10.7729 35.7776C10.4132 35.8924 10.0602 36.0288 9.71512 36.1936C8.02716 36.8445 6.32321 37.4671 5.45192 39.2322C5.08954 39.9669 4.94832 40.8015 4.76581 41.597L4.19294 44.0805C3.46952 47.2164 2.74611 50.3536 2.0227 53.4895C1.49646 55.7678 0.971552 58.0461 0.445312 60.3244C0.97022 62.1178 1.62302 63.8897 2.40506 65.5913H39.5376C40.5634 63.6304 41.7465 61.7505 42.9721 59.9017C43.084 59.6262 43.1946 59.3507 43.3092 59.0765C43.3998 53.9527 43.91 48.814 43.8807 43.6997C43.7955 42.8259 43.6915 41.9548 43.5676 41.0865L43.5703 41.0797Z" fill="white"/>
<path d="M44.6807 38.5253C44.1198 37.7096 43.2539 37.2977 42.3773 36.9209C41.7937 36.3767 41.105 35.9405 40.3509 35.6164C39.9739 35.4543 39.5902 35.3192 39.1998 35.2031C38.3805 34.7736 37.5572 34.3388 36.7019 33.9998C36.2755 33.831 35.8013 33.7243 35.3443 33.5852C34.9899 33.4177 34.6342 33.2503 34.2825 33.0774C34.2412 33.0572 34.1999 33.0423 34.1586 33.0288C34.0893 32.9761 34.0214 32.9194 33.9588 32.8573C33.4925 32.3995 32.5412 32.7033 32.5945 33.4299C32.6278 33.8958 32.6492 34.3617 32.6625 34.8277C32.5719 34.9411 32.4906 35.064 32.424 35.1909C29.8114 40.1621 26.8738 44.947 23.6498 49.5319C23.5259 49.6089 23.4126 49.7021 23.3087 49.8047C23.2688 49.4941 23.1995 49.1795 23.0916 48.8661C22.5307 47.2293 21.9658 45.5939 21.3983 43.9584C21.3317 43.8976 21.2744 43.8166 21.2331 43.7099C20.1246 40.8806 19.276 37.9001 17.8838 35.1936C17.6959 35.014 17.4934 34.8506 17.2763 34.7088C17.3456 34.0376 17.1684 33.4826 16.7354 32.9248C16.5302 32.6601 16.0346 32.6169 15.7668 32.7979C13.8058 34.1308 11.4224 34.4239 9.26146 35.2882C8.18766 35.7176 7.16716 36.2646 6.32118 37.0722C5.33398 38.0135 4.67451 39.2411 4.14961 40.4917C3.00254 43.2291 2.38038 46.1462 1.98603 49.0849C1.9021 49.7102 1.82083 50.3395 1.74356 50.9729C1.33855 50.9662 0.926889 51.2268 0.92156 51.7549C0.908238 53.2148 0.902909 54.7003 0.992169 56.1751C0.876264 56.6882 0.76169 57.2014 0.647116 57.716C0.569845 58.0671 0.493907 58.4182 0.417969 58.7694C1.10141 61.4177 2.17787 63.9661 3.67533 66.2376H4.45203C4.45203 66.2376 4.46135 66.2458 4.46668 66.2498C4.57593 66.3376 4.69183 66.3903 4.80907 66.4173C6.64758 68.2323 9.11758 69.2992 11.7568 68.9751C14.6891 69.3722 17.6493 69.5072 20.5976 69.3789C25.2751 69.5788 29.946 69.2817 34.449 67.8056C34.7648 67.7016 34.9446 67.4288 34.9926 67.1371C35.0379 67.1371 35.0845 67.1357 35.1298 67.133C35.2151 67.3153 35.3736 67.4761 35.6187 67.5679C36.4501 67.8799 37.2494 67.7759 37.9702 67.4153C38.0621 67.422 38.1593 67.4126 38.2606 67.3748C39.4783 66.925 41.8128 66.7722 42.002 65.5C42.2071 65.08 42.8515 64.916 42.9648 64.5C43.1193 64.1664 43.8741 63.3309 44.002 63C44.5215 62.1586 44.4544 61.8252 45.002 61C46.502 60.5 45.4873 59.9389 45.502 59.9065C45.5512 59.3784 46.002 59.5 45.502 58.5C47.002 56.5 45.978 57.1499 46.002 57C46.5482 53.644 45.207 51.3898 45.4494 48C45.528 47.4463 44.6274 46.6351 44.6821 46.0787C46.002 46.5 44.9165 45.841 44.9672 45.6371C45.2856 44.3541 45.4601 43.0293 45.4494 41.7058C45.4401 40.6186 45.3109 39.441 44.6821 38.5253H44.6807Z" fill="#C3C3C3"/>
<path d="M23.9981 48.8645C24.0647 48.7714 24.2232 48.8848 24.3338 48.8794C24.9773 47.83 25.6328 46.7875 26.3349 45.7773C26.4787 44.3728 26.5986 42.9669 26.6932 41.5583C26.5627 41.4476 26.4894 41.2409 26.5507 40.9114C26.3096 39.569 26.0964 38.3806 25.8566 37.0382C25.4889 36.4615 25.9099 36.0496 26.2922 36.0402C26.3655 35.161 26.5067 34.2886 26.52 33.404C26.5214 33.3094 26.544 33.2284 26.5787 33.1595C26.4348 32.9084 26.2403 32.6815 26.0564 32.5383C25.6821 32.2453 25.1039 32.0616 24.6296 32.1453C24.1366 32.2317 23.6437 32.464 23.3466 32.8908C23.2627 33.0353 23.1801 33.1785 23.0962 33.323C22.9616 33.6484 22.915 33.9861 22.9589 34.3372V35.8538C22.9589 35.92 22.9683 35.9888 22.9829 36.0591C23.0562 36.1361 23.0988 36.2441 23.0948 36.3845C23.1281 36.4575 23.1668 36.529 23.2094 36.5979C23.1588 36.6398 23.1108 36.6844 23.0655 36.733C22.9882 37.5325 22.9123 38.3333 22.8364 39.1328C22.879 39.2017 22.9256 39.2665 22.9763 39.3286C22.9696 39.3732 22.9629 39.4191 22.9603 39.465C22.8324 41.8649 22.6312 44.2593 22.3568 46.6457C22.2369 47.695 23.3293 49.7896 23.9968 48.8605L23.9981 48.8645Z" fill="#FCE8A0"/>
<path d="M34.2871 5.84777C33.8341 5.23194 33.2959 4.76331 32.6564 4.41218C32.0289 3.70722 31.2269 3.16837 30.1997 2.90232C29.1339 0.903579 26.4987 0.597015 24.4884 0.894126C22.2368 1.22635 20.1146 2.38238 18.5772 4.08131C18.3853 4.20286 18.1948 4.32575 18.0083 4.4527C16.1751 5.70326 15.0533 7.5467 14.5378 9.70885C14.27 10.8325 14.1368 12.0088 14.1687 13.1648C14.2007 14.3168 14.3499 15.6173 15.4517 16.2412C16.5921 16.8868 17.9443 16.3115 18.348 15.0771C18.5918 14.333 18.7663 13.655 19.2646 13.0257C20.4983 11.4699 22.6818 10.9432 24.4684 11.8116C25.1492 12.1425 25.9791 12.002 26.3828 11.3024C26.3881 11.293 26.3935 11.2822 26.3988 11.2714C26.4947 11.2714 26.5906 11.2633 26.6879 11.2498C27.1382 11.185 27.6751 11.559 28.0228 11.7927C28.5517 12.1492 29.026 12.5868 29.5083 13.0054C30.1957 13.6023 30.8858 14.2195 31.5067 14.8948C31.5253 15.0541 31.544 15.2135 31.5586 15.3742C31.6266 16.0751 32.0382 16.6788 32.771 16.7666C33.0894 16.8044 33.4118 16.7342 33.6822 16.5748C34.2125 16.5464 34.7094 16.221 34.9012 15.5754C35.2316 14.468 35.3982 13.3147 35.4048 12.1614C35.5714 11.9439 35.6699 11.6563 35.6566 11.2957C35.5873 9.40364 35.4408 7.41705 34.2844 5.84777H34.2871Z" fill="#C3C3C3"/>
<path d="M33.3799 32.4716C32.0997 31.4115 31.0805 30.0785 30.465 28.5173C30.088 27.5612 28.5412 27.9785 28.9236 28.9481C29.5697 30.5876 30.5276 32.0448 31.8079 33.2292C31.3962 34.0233 31.0339 34.839 30.7114 35.6777C30.3371 36.6501 31.8825 37.0714 32.2529 36.1085C32.6059 35.1915 33.0282 34.311 33.5052 33.4548C33.6651 33.1671 33.6531 32.6985 33.3799 32.4729V32.4716Z" fill="white"/>
<path d="M16.7886 15.9991C16.1091 15.6587 15.3204 15.3049 14.5557 15.5683C13.767 15.8397 13.1608 16.4434 12.8664 17.2294C12.512 18.1734 12.5387 19.2943 12.7439 20.268C12.917 21.0905 13.2714 21.9035 13.8789 22.4923C14.577 23.1675 15.5149 23.4619 16.4702 23.3769C16.7926 23.3485 17.0697 23.1176 17.0697 22.7691C17.0697 22.4626 16.7952 22.1331 16.4702 22.1614C15.7161 22.2289 15.0273 22.0291 14.5317 21.424C14.0255 20.8055 13.831 19.9263 13.8043 19.143C13.7777 18.3503 13.851 17.359 14.5837 16.9026C14.6463 16.8634 14.7103 16.8256 14.7755 16.7905C14.8888 16.7283 14.7849 16.7729 14.8741 16.7418C14.9287 16.7229 14.9834 16.7067 15.0393 16.6946C14.9248 16.7175 15.0886 16.6919 15.1166 16.6919C15.427 16.6892 15.8507 16.885 16.1824 17.0511C16.8725 17.3955 17.48 16.3475 16.7872 16.0018L16.7886 15.9991Z" fill="#101841"/>
<path d="M16.0652 19.9477C16.0718 21.7101 16.5861 23.4752 17.3575 25.0431C18.2141 26.7839 19.5184 28.3829 21.225 29.3188C22.2695 29.8914 23.4245 30.1899 24.6089 30.221V29.0055H24.5569V30.221C26.6499 30.2088 28.5897 29.3296 30.0285 27.7968C31.3408 26.399 32.2281 24.5988 32.7103 22.7419C32.9475 21.833 33.0927 20.8876 33.0967 19.9463C33.0993 19.1644 31.9003 19.163 31.8977 19.9463C31.8923 21.4508 31.4966 23.0255 30.8372 24.4287C30.1031 25.9912 29.02 27.4187 27.5052 28.2614C26.598 28.7665 25.5868 29.0001 24.5556 29.0069C23.7842 29.0109 23.7829 30.2223 24.5556 30.2223H24.6076C25.3803 30.2223 25.3789 29.0271 24.6076 29.0069C20.9679 28.9096 18.5205 25.6725 17.6199 22.3799C17.3854 21.5237 17.2655 20.8147 17.2615 19.9477C17.2589 19.1657 16.0598 19.1644 16.0625 19.9477H16.0652Z" fill="#101841"/>
<path d="M33.1423 17.1764C33.7471 16.7821 34.5998 16.5403 35.0914 17.2426C35.551 17.8962 35.5417 18.9348 35.4204 19.6897C35.3098 20.3825 35.082 21.0861 34.5784 21.5885C34.0948 22.072 33.466 22.2043 32.8065 22.1449C32.4841 22.1165 32.207 22.4447 32.207 22.7526C32.207 23.1051 32.4828 23.332 32.8065 23.3603C33.7991 23.4495 34.7889 23.1254 35.4844 22.3893C36.2211 21.6087 36.5435 20.5432 36.6474 19.4898C36.7553 18.3932 36.6168 16.9995 35.7788 16.1986C34.8555 15.3168 33.5393 15.4721 32.5374 16.1257C31.8913 16.5484 32.4908 17.6005 33.1423 17.175V17.1764Z" fill="#101841"/>
<path d="M34.8307 67.0988C29.1619 68.4614 23.2973 68.9071 17.4821 68.6613C14.6457 68.5411 11.796 68.2791 8.99828 67.7808C7.72732 67.5539 6.43636 67.2527 5.28663 66.641C4.15954 66.0413 3.26027 65.1581 2.61014 64.0493C1.18596 61.6171 1.03008 58.6514 1.30853 55.9018C1.57498 53.2764 2.2411 50.6915 2.77134 48.1107C3.2656 45.7028 3.79584 43.2854 4.64715 40.976C5.04549 39.8956 5.52644 38.8422 6.12995 37.8631C6.40705 37.4134 6.67617 36.8948 7.15578 36.6517C7.73264 36.36 8.34282 36.1331 8.95299 35.9238C11.5043 35.05 14.2407 34.5598 16.5282 33.0378C17.3915 32.4638 18.1788 31.7399 18.6798 30.8121C19.1474 29.9438 19.3419 28.9782 19.4272 28.0017C19.4738 27.4642 19.4844 26.9227 19.4858 26.3838C19.4858 25.6019 18.2881 25.6005 18.2867 26.3838C18.2854 27.4008 18.2628 28.4366 17.967 29.4157C17.7059 30.2773 17.177 31.0039 16.4736 31.5873C14.4219 33.289 11.6375 33.7846 9.17681 34.5733C8.51068 34.7867 7.85255 35.0244 7.2104 35.3012C6.91464 35.4282 6.60156 35.5497 6.32845 35.7253C6.02603 35.9184 5.82619 36.179 5.61836 36.4667C4.92559 37.4215 4.3807 38.4762 3.9224 39.5647C2.9472 41.8809 2.34502 44.332 1.82411 46.7872C1.57364 47.9676 1.34316 49.1533 1.09403 50.335C0.795608 51.7544 0.475868 53.1683 0.270701 54.6066C-0.146294 57.5224 -0.192923 60.6029 0.943488 63.3687C1.44841 64.5976 2.16783 65.7537 3.16302 66.6369C4.19818 67.5552 5.45716 68.1427 6.77209 68.5236C8.08969 68.9044 9.45658 69.0962 10.8115 69.2812C12.273 69.4811 13.7384 69.6377 15.2092 69.7471C21.1511 70.1887 27.1742 69.9092 33.0254 68.7423C33.7355 68.6005 34.4443 68.4439 35.1491 68.2751C35.8991 68.0941 35.582 66.9219 34.8307 67.1028V67.0988Z" fill="#101841"/>
<path d="M7.63239 45.1963C7.63239 48.0324 7.6084 50.8684 7.59908 53.7031C7.59508 54.8659 7.59375 56.0274 7.59375 57.1901C7.59375 57.9721 8.79278 57.9734 8.79278 57.1901C8.79278 54.3541 8.81676 51.518 8.82608 48.6833C8.83008 47.5205 8.83141 46.3591 8.83141 45.1963C8.83141 44.4144 7.63239 44.413 7.63239 45.1963Z" fill="#101841"/>
<path d="M6.47345 58.3012C12.4273 59.3235 18.4477 59.9474 24.4828 60.1513C26.1855 60.2094 27.8894 60.2324 29.5934 60.2243C30.3647 60.2202 30.3661 59.0048 29.5934 59.0088C23.6302 59.0372 17.6657 58.6644 11.7518 57.8852C10.0932 57.6664 8.43985 57.4125 6.79186 57.1289C6.47345 57.0736 6.14572 57.214 6.05379 57.553C5.97519 57.8447 6.15105 58.2458 6.47212 58.3012H6.47345Z" fill="#101841"/>
<path d="M16.1057 33.4738C16.8571 35.3632 17.6085 37.2525 18.3598 39.1419C19.5562 42.1495 20.7526 45.157 21.9489 48.1646C22.222 48.8493 22.4938 49.5354 22.7669 50.2201C22.8882 50.5239 23.1666 50.7387 23.505 50.6441C23.7901 50.5644 24.0459 50.2025 23.9233 49.8959C23.1719 48.0066 22.4206 46.1172 21.6692 44.2279C20.4728 41.2203 19.2764 38.2127 18.0801 35.2052C17.807 34.5205 17.5352 33.8344 17.2621 33.1497C17.1408 32.8459 16.8624 32.6311 16.524 32.7257C16.2389 32.8053 15.9831 33.1673 16.1057 33.4738Z" fill="#101841"/>
<path d="M32.8196 33.0113C32.356 33.8081 31.8924 34.6048 31.4287 35.4003C30.315 37.3126 29.2025 39.2263 28.0888 41.1386C26.7419 43.4533 25.395 45.7681 24.0481 48.0829C22.8837 50.0843 21.7193 52.0857 20.5536 54.0872C19.9887 55.0582 19.3812 56.0157 18.8536 57.0083C18.8456 57.0218 18.8376 57.0367 18.8296 57.0502C18.4366 57.7254 19.4731 58.3372 19.8648 57.6633C20.3284 56.8665 20.792 56.0697 21.2557 55.2743C22.3694 53.362 23.4819 51.4483 24.5956 49.536C25.9425 47.2212 27.2894 44.9065 28.6363 42.5917C29.8007 40.5903 30.9651 38.5888 32.1308 36.5874C32.6957 35.6164 33.3032 34.6589 33.8308 33.6662C33.8388 33.6527 33.8468 33.6379 33.8548 33.6244C34.2478 32.9491 33.2113 32.3374 32.8196 33.0113Z" fill="#101841"/>
<path d="M39.7216 45.7809C39.7109 50.274 39.7083 54.7672 39.7136 59.2616C39.7149 60.5514 39.7176 61.8424 39.7203 63.1322C39.7216 63.9141 40.9206 63.9155 40.9193 63.1322C40.9086 58.6296 40.906 54.127 40.9126 49.6258C40.914 48.3442 40.9166 47.0639 40.9206 45.7823C40.922 45.0003 39.7229 44.999 39.7216 45.7823V45.7809Z" fill="#101841"/>
<path d="M24.0975 18.6343C24.5385 19.1434 24.4479 19.8106 24.0949 20.3305C23.8471 20.6965 23.6845 21.0895 23.7831 21.5405C23.8737 21.9551 24.1708 22.2901 24.4679 22.5723C25.0301 23.1071 25.8801 22.2496 25.3152 21.7134C25.2073 21.6108 25.0301 21.4811 24.9782 21.3339C24.9329 21.207 24.9955 21.1435 25.0714 21.0287C25.2846 20.7046 25.4711 20.3872 25.5457 19.9983C25.7002 19.1907 25.4778 18.3912 24.9449 17.7753C24.4346 17.1865 23.59 18.0481 24.0975 18.6343Z" fill="#101841"/>
<path d="M22.0208 35.5607L17.25 31.9197L17.691 29.5469L23.9579 31.7941L22.0208 35.5607Z" fill="white"/>
<path d="M22.3236 35.0311C20.9341 33.971 19.5445 32.9108 18.155 31.8493C17.9538 31.6967 17.754 31.5428 17.5528 31.3902C17.6447 31.6184 17.7367 31.848 17.8286 32.0762C17.9751 31.2848 18.123 30.4934 18.2696 29.7034C18.0231 29.8452 17.778 29.987 17.5315 30.1274C19.362 30.7838 21.1912 31.4401 23.0217 32.0965C23.2802 32.1897 23.54 32.2815 23.7984 32.3747C23.6785 32.0776 23.5599 31.7791 23.44 31.482C22.7952 32.738 22.1491 33.9939 21.5043 35.2486C21.1486 35.9414 22.1824 36.5572 22.5394 35.8617C23.1842 34.6057 23.8304 33.3497 24.4752 32.0951C24.663 31.7291 24.4925 31.3375 24.1168 31.2024C22.2863 30.5461 20.4571 29.8898 18.6266 29.2334C18.3682 29.1402 18.1084 29.0484 17.8499 28.9552C17.5621 28.8526 17.1691 29.0727 17.1118 29.3793C16.9653 30.1707 16.8174 30.9607 16.6709 31.7521C16.6162 32.0479 16.7162 32.2626 16.9466 32.4382C18.3362 33.4983 19.7257 34.5584 21.1153 35.6199C21.3164 35.7725 21.5163 35.9265 21.7174 36.0791C21.9759 36.2763 22.3876 36.121 22.5381 35.8617C22.718 35.5511 22.5821 35.2283 22.3236 35.0298V35.0311Z" fill="#101841"/>
<path d="M27.2746 35.5537L31.687 31.8885L31.2474 29.5156L24.9805 31.7629L27.2746 35.5537Z" fill="white"/>
<path d="M27.6999 35.9854C28.9868 34.9158 30.2751 33.8476 31.5621 32.778C31.7459 32.6254 31.9298 32.4728 32.1136 32.3202C32.2841 32.1784 32.3054 31.9299 32.2681 31.7287C32.1216 30.9373 31.9737 30.1459 31.8272 29.3558C31.7699 29.0493 31.3769 28.8291 31.0891 28.9318C29.2586 29.5881 27.4294 30.2445 25.5989 30.9008C25.3404 30.994 25.0806 31.0858 24.8222 31.179C24.4678 31.306 24.2493 31.7165 24.4638 32.0717C25.2285 33.3358 25.9932 34.5985 26.7579 35.8625C27.1603 36.5283 28.1981 35.9179 27.7931 35.2494C27.0284 33.9854 26.2637 32.7226 25.499 31.4586C25.3791 31.7557 25.2605 32.0541 25.1406 32.3512C26.9711 31.6949 28.8003 31.0386 30.6308 30.3822C30.8893 30.289 31.1491 30.1972 31.4075 30.104C31.161 29.9622 30.9159 29.8204 30.6694 29.6799C30.816 30.4713 30.9639 31.2627 31.1104 32.0528C31.1624 31.8556 31.213 31.6584 31.265 31.4613C29.978 32.5309 28.6897 33.5991 27.4028 34.6687C27.2189 34.8213 27.0351 34.9739 26.8512 35.1265C26.6007 35.3345 26.638 35.7707 26.8512 35.9854C27.099 36.2366 27.4481 36.1948 27.6985 35.9854H27.6999Z" fill="#101841"/>
<path d="M25.894 34.6905C25.5902 35.6872 25.2865 36.6825 24.9827 37.6792C25.1759 37.5306 25.3677 37.3821 25.5609 37.2335H23.5239C23.7171 37.3821 23.9089 37.5306 24.1021 37.6792C23.7624 36.6825 23.4227 35.6872 23.0829 34.6905C22.8325 33.9559 21.6734 34.2719 21.9265 35.0133C22.2663 36.01 22.606 37.0053 22.9457 38.002C23.0323 38.2572 23.2481 38.4476 23.5239 38.4476H25.5609C25.8314 38.4476 26.0605 38.2572 26.1391 38.002C26.4429 37.0053 26.7466 36.01 27.0504 35.0133C27.2782 34.2638 26.1218 33.9437 25.894 34.6905Z" fill="#101841"/>
<path d="M22.5258 46.6478C22.8922 44.2614 23.2572 41.8765 23.6236 39.4901C23.6756 39.1471 23.7289 38.8054 23.7808 38.4624C23.8301 38.1383 23.6995 37.8087 23.3625 37.7142C23.0787 37.6345 22.675 37.8128 22.6244 38.1383C22.2581 40.5246 21.893 42.9096 21.5266 45.2959C21.4747 45.639 21.4214 45.9806 21.3694 46.3237C21.3201 46.6478 21.4507 46.9773 21.7878 47.0718C22.0715 47.1515 22.4752 46.9732 22.5258 46.6478Z" fill="#101841"/>
<path d="M25.1742 38.2171C25.3793 40.2375 25.5845 42.2578 25.7897 44.2782C25.819 44.5618 25.847 44.8467 25.8763 45.1303C25.9096 45.4571 26.1281 45.738 26.4758 45.738C26.7742 45.738 27.1086 45.4585 27.0753 45.1303C26.8701 43.11 26.665 41.0896 26.4598 39.0693C26.4305 38.7857 26.4025 38.5007 26.3732 38.2171C26.3399 37.8903 26.1214 37.6094 25.7737 37.6094C25.4753 37.6094 25.1409 37.8889 25.1742 38.2171Z" fill="#101841"/>
<path d="M36.2847 34.9047C35.945 36.4321 35.6053 37.9582 35.2669 39.4856C35.0977 40.2473 36.2527 40.5728 36.4233 39.8084C36.763 38.281 37.1027 36.7549 37.4411 35.2275C37.6103 34.4658 36.4552 34.1403 36.2847 34.9047Z" fill="#101841"/>
<path d="M33.635 40.2361C34.8554 40.8964 36.0744 41.5568 37.2947 42.2172C37.9755 42.5859 38.5817 41.5366 37.8996 41.1679C36.6792 40.5075 35.4602 39.8471 34.2399 39.1867C33.5591 38.818 32.9529 39.8674 33.635 40.2361Z" fill="#101841"/>
<path d="M37.1759 41.2594C36.5737 41.7766 35.9702 42.2939 35.3681 42.8111C33.9119 44.0617 32.4557 45.3109 30.9996 46.5615C29.245 48.0673 27.4904 49.5731 25.7372 51.0789C24.2198 52.3821 22.701 53.684 21.1836 54.9872C20.4468 55.6193 19.6488 56.2175 18.956 56.8996C18.9467 56.909 18.9347 56.9171 18.9241 56.9266C18.6763 57.1386 18.7082 57.5681 18.9241 57.7855C19.1692 58.034 19.5236 57.9989 19.7714 57.7855C20.3736 57.2682 20.9771 56.751 21.5792 56.2338C23.0354 54.9832 24.4915 53.734 25.9477 52.4834C27.7023 50.9776 29.4569 49.4718 31.2101 47.966C32.7275 46.6627 34.2463 45.3609 35.7637 44.0576C36.5005 43.4256 37.2985 42.8273 37.9913 42.1453C38.0006 42.1359 38.0126 42.1278 38.0232 42.1183C38.271 41.9063 38.2391 41.4768 38.0232 41.2594C37.7781 41.0109 37.4237 41.046 37.1759 41.2594Z" fill="#101841"/>
<path d="M12.5761 35.6428L13.5726 40.9017C13.6339 41.2244 14.015 41.4081 14.3107 41.3257C14.6438 41.2325 14.7903 40.9017 14.729 40.5775C14.3973 38.8246 14.0642 37.0716 13.7325 35.3187C13.6712 34.9959 13.2902 34.8123 12.9944 34.8946C12.6614 34.9878 12.5148 35.3187 12.5761 35.6428Z" fill="#101841"/>
<path d="M16.0885 39.9623C14.6816 40.4255 13.2761 40.8874 11.8692 41.3506C11.1378 41.591 11.4509 42.7646 12.1876 42.5229C13.5945 42.0596 15 41.5978 16.4069 41.1345C17.1383 40.8941 16.8252 39.7206 16.0885 39.9623Z" fill="#101841"/>
<path d="M11.8623 42.7975C12.9774 43.9427 14.0925 45.0893 15.2076 46.2345C16.9688 48.0442 18.7301 49.8539 20.4913 51.6622C20.9016 52.0836 21.3106 52.5049 21.721 52.9263C22.2632 53.484 23.1119 52.6238 22.5683 52.0673C21.4532 50.9221 20.3381 49.7755 19.223 48.6303C17.4618 46.8206 15.7005 45.011 13.9393 43.2027C13.529 42.7813 13.12 42.3599 12.7096 41.9386C12.1674 41.3808 11.3188 42.2411 11.8623 42.7975Z" fill="#101841"/>
<path d="M27.575 9.79771C26.5252 8.48637 24.7999 7.91511 23.1799 8.22167C22.8615 8.28244 22.6803 8.67139 22.7616 8.96985C22.8535 9.30882 23.1799 9.45468 23.4996 9.39391C24.72 9.16297 25.9576 9.69507 26.7277 10.658C26.9315 10.9132 27.3632 10.8727 27.575 10.658C27.8241 10.4054 27.7801 10.0543 27.575 9.79906V9.79771Z" fill="#101841"/>
<path d="M24.7722 11.0113C22.8031 10.1578 20.4596 10.3644 18.737 11.6947C18.4799 11.8932 18.344 12.2187 18.5226 12.5266C18.6704 12.7832 19.0834 12.9452 19.3432 12.744C20.6995 11.6974 22.5779 11.3719 24.1686 12.0606C24.4657 12.1889 24.8108 12.1511 24.9893 11.8432C25.1372 11.588 25.0732 11.141 24.7748 11.0113H24.7722Z" fill="#101841"/>
<path d="M29.0685 12.625C29.9678 13.2057 30.6939 14.0633 31.0922 15.0694C31.2121 15.3733 31.4919 15.588 31.8303 15.4935C32.1154 15.4138 32.3699 15.0518 32.2486 14.7453C31.7277 13.4312 30.8564 12.3373 29.6734 11.5743C29.0206 11.1529 28.4184 12.205 29.0685 12.6236V12.625Z" fill="#101841"/>
<path d="M31.0206 2.18897C29.4738 0.722324 27.3382 -0.0555649 25.2226 0.0673308C24.0849 0.133505 23.067 0.473832 22.0399 0.954611C21.1339 1.38002 19.9922 1.92157 19.0703 1.24632C18.8078 1.05455 18.4028 1.2004 18.2496 1.46375C18.0724 1.77031 18.2017 2.10254 18.4641 2.29566C19.3807 2.96551 20.605 2.85207 21.6069 2.46312C22.6634 2.05257 23.6133 1.48266 24.7537 1.32465C26.6934 1.05725 28.7411 1.68928 30.1733 3.04654C30.7368 3.57999 31.5868 2.72242 31.0206 2.18762V2.18897Z" fill="#101841"/>
<path d="M18.7031 3.34114C17.2257 3.78951 16.0546 4.88071 15.2593 6.19745C14.34 7.71812 13.9536 9.49403 13.5859 11.2159C13.4234 11.979 14.5785 12.3044 14.7423 11.5387C15.3059 8.89846 16.0866 5.40336 19.0215 4.51338C19.7583 4.28919 19.4452 3.11561 18.7031 3.34114Z" fill="#101841"/>
<path d="M32.1509 4.77957C33.1807 5.59662 34.3371 6.59329 34.5116 7.99376C34.6022 8.72709 34.4837 9.47391 34.4517 10.2072C34.417 10.9959 34.4996 11.7549 34.8394 12.472C34.9793 12.7678 35.3963 12.8461 35.66 12.6895C35.9585 12.5125 36.0157 12.1547 35.8745 11.8575C35.5668 11.2066 35.6294 10.4463 35.6774 9.74672C35.732 8.94992 35.7959 8.14907 35.6094 7.36443C35.263 5.90049 34.1253 4.81468 32.9982 3.92065C32.7437 3.71807 32.3987 3.66946 32.1509 3.92065C31.9431 4.13133 31.8951 4.57699 32.1509 4.77957Z" fill="#101841"/>
<path d="M14.5156 14.1628C14.5769 14.1007 14.6395 14.0372 14.7008 13.9751C14.8101 13.8644 14.8767 13.7009 14.8767 13.5456C14.8793 13.4619 14.862 13.3836 14.8247 13.312C14.8007 13.2364 14.7594 13.1715 14.7008 13.1162C14.5862 13.0095 14.437 12.9312 14.2772 12.9379C14.1186 12.9447 13.9681 13 13.8535 13.1162C13.7922 13.1783 13.7296 13.2418 13.6683 13.3039C13.5591 13.4146 13.4925 13.578 13.4925 13.7334C13.4898 13.8171 13.5071 13.8954 13.5444 13.967C13.5684 14.0426 13.6097 14.1074 13.6683 14.1628C13.7829 14.2695 13.9321 14.3478 14.092 14.3411C14.2505 14.3343 14.401 14.279 14.5156 14.1628Z" fill="#101841"/>
<path d="M17.0529 1.21545H17.2381C17.3913 1.21545 17.5538 1.14793 17.6617 1.03719C17.7204 0.981815 17.7617 0.916991 17.7856 0.841363C17.8229 0.768436 17.8403 0.691457 17.8376 0.607726C17.8309 0.451068 17.7803 0.287657 17.6617 0.178266C17.5445 0.0688756 17.4006 0 17.2381 0H17.0529C16.8997 0 16.7372 0.0675251 16.6292 0.178266C16.5706 0.233637 16.5293 0.298461 16.5053 0.374089C16.468 0.447016 16.4507 0.523995 16.4534 0.607726C16.4601 0.764384 16.5107 0.927795 16.6292 1.03719C16.7465 1.14658 16.8904 1.21545 17.0529 1.21545Z" fill="#101841"/>
<path d="M24.4162 25.7561C24.6773 25.3604 25.3674 25.5049 25.5606 25.9398C25.6938 26.2396 26.1228 26.3112 26.3813 26.1572C26.685 25.9776 26.729 25.6265 26.5957 25.3253C26.0215 24.0302 24.1151 24.0261 23.3797 25.1417C22.9494 25.7939 23.9885 26.403 24.4148 25.7548L24.4162 25.7561Z" fill="#101841"/>
<path d="M22.7195 13.9543C22.2706 14.3541 21.6964 14.6269 21.0995 14.6971C20.7784 14.7349 20.5 14.9496 20.5 15.3048C20.5 15.6046 20.7758 15.9504 21.0995 15.9125C22.0334 15.8032 22.8594 15.4453 23.5668 14.8146C24.1477 14.2973 23.2964 13.4411 22.7195 13.9557V13.9543Z" fill="#101841"/>
<path d="M21.3617 17.6719C21.0487 17.6719 20.7476 17.9514 20.7622 18.2796C20.7769 18.6091 21.026 18.8873 21.3617 18.8873C21.6748 18.8873 21.9759 18.6078 21.9613 18.2796C21.9466 17.9501 21.6975 17.6719 21.3617 17.6719Z" fill="#101841"/>
<path d="M28.0258 17.5391C27.7127 17.5391 27.4116 17.8186 27.4263 18.1468C27.441 18.4763 27.6901 18.7545 28.0258 18.7545C28.3389 18.7545 28.64 18.475 28.6253 18.1468C28.6107 17.8173 28.3615 17.5391 28.0258 17.5391Z" fill="#101841"/>
<path d="M35.6469 13.3281C35.3338 13.3281 35.0327 13.6077 35.0474 13.9359C35.062 14.2654 35.3112 14.5436 35.6469 14.5436C35.96 14.5436 36.2611 14.264 36.2464 13.9359C36.2318 13.6063 35.9826 13.3281 35.6469 13.3281Z" fill="#101841"/>
</g>
<path d="M31.2977 35.3063C31.2259 35.0183 31.0949 34.7878 30.926 34.608C30.7529 33.6835 30.4417 32.7997 29.9265 32.0157C29.2592 30.9985 28.3864 30.2117 27.4812 29.4502C27.2729 29.2759 27.035 29.1551 26.7872 29.0849C26.4141 28.6676 25.9791 28.3107 25.5061 28.0156C24.7473 27.5407 23.1495 27.8316 22.9736 28.9612C22.6793 30.865 22.3781 32.766 22.0909 34.6712C21.8192 36.4795 22.1007 38.2737 23.7042 39.246C23.8295 39.3219 23.9759 39.3781 24.1321 39.4146C24.0294 39.7139 23.9294 40.0159 23.8309 40.3166C23.8928 40.4009 23.9308 40.5091 23.9294 40.6426C23.9294 40.6805 23.9294 40.7199 23.9294 40.7592C24.042 40.821 24.1364 40.9208 24.1899 41.0711C24.4953 41.9436 24.8065 42.8133 25.1654 43.662C25.454 43.4892 25.8989 43.5454 26.0228 43.964C26.2382 44.6961 26.5915 45.3747 26.9857 46.028C27.218 45.9929 27.4474 45.9564 27.6656 45.9297C28.6116 45.8131 29.4929 45.4112 30.0053 44.5064C30.4685 43.6873 30.4995 42.6026 30.6487 41.6823L31.147 38.5969C31.3258 37.4869 31.5736 36.4233 31.2948 35.3091L31.2977 35.3063Z" fill="white"/>
<path d="M26.9461 44.5054C25.8832 42.9613 24.7514 41.3258 24.871 39.3658C24.9203 38.5537 23.6533 38.5565 23.6041 39.3658C23.4703 41.5535 24.6613 43.4137 25.8523 45.1433C26.3112 45.8093 27.4092 45.1784 26.9461 44.5054Z" fill="#101841"/>
<path d="M23.1841 29.8234C23.3699 29.3836 23.4755 28.8891 23.7176 28.4774C23.8077 28.3257 23.8303 28.3004 23.9527 28.2723C24.1315 28.2315 24.1977 28.3004 24.4455 28.4114C25.7012 28.972 26.8738 29.6829 27.948 30.5456C28.4435 30.9446 28.8813 31.3521 29.2586 31.8649C29.5894 32.3159 29.8893 32.7978 30.1103 33.3135C30.6438 34.5583 30.7283 35.9774 30.6354 37.3136C30.5791 38.1327 30.4425 38.9406 30.2947 39.7485C30.2187 40.1588 30.0976 40.5817 30.0695 40.9976C30.0399 41.4275 30.0667 41.8645 30.0469 42.2958C30.0089 43.1093 31.2759 43.1079 31.3139 42.2958C31.3322 41.9066 31.3111 41.5118 31.3365 41.124C31.3646 40.6899 31.4885 40.2487 31.5659 39.8201C31.7109 39.0123 31.8376 38.1987 31.8981 37.3796C32.0122 35.8411 31.87 34.2352 31.259 32.8063C30.9986 32.1951 30.6579 31.6303 30.2567 31.1006C30.0512 30.828 29.8414 30.5386 29.6007 30.2955C29.3135 30.0047 28.97 29.7518 28.649 29.5003C27.4341 28.5462 26.1446 27.8114 24.7481 27.1609C24.1174 26.8672 23.3277 26.9684 22.8547 27.5234C22.4422 28.0053 22.331 28.6249 22.0917 29.1897C21.9579 29.5045 21.9974 29.867 22.3183 30.0552C22.5844 30.2098 23.0504 30.1452 23.1855 29.829L23.1841 29.8234Z" fill="#101841"/>
<path d="M27.9089 31.1219C26.5743 30.5725 25.1792 30.1805 23.7518 29.9684C23.1774 29.8827 22.1455 29.5679 21.7654 30.189C21.5894 30.477 21.5824 30.869 21.5247 31.1935C21.4599 31.5645 21.3938 31.9354 21.329 32.3063C21.2699 32.6421 21.4191 32.9878 21.771 33.0847C22.0765 33.169 22.4904 32.9807 22.5509 32.6435C22.6087 32.3162 22.6664 31.9888 22.7241 31.6614C22.7635 31.4366 22.786 30.9645 22.8592 30.8268C22.7832 30.9027 22.7072 30.9786 22.6326 31.053C22.4904 31.1444 22.6241 31.0938 22.7382 31.105C22.8466 31.1163 22.955 31.1275 23.0634 31.1402C23.2675 31.164 23.4702 31.1935 23.6743 31.2273C24.1276 31.3017 24.5767 31.3931 25.023 31.5026C25.8944 31.7162 26.7447 31.9986 27.5738 32.34C27.8906 32.4707 28.2707 32.1995 28.3537 31.8989C28.4537 31.5364 28.2285 31.2511 27.9117 31.1205L27.9089 31.1219Z" fill="#101841"/>
<path d="M26.3056 33.0441C25.0639 32.7743 23.811 32.5692 22.5483 32.4259C22.2512 32.3921 21.9401 32.3416 21.6656 32.5003C21.408 32.6507 21.2996 32.9218 21.2179 33.1916C21.0434 33.7691 20.98 34.3887 21.0054 34.99C21.0392 35.8007 22.3075 35.8049 22.2724 34.99C22.2611 34.709 22.2611 34.4252 22.3005 34.1456C22.3188 34.0206 22.3456 33.8955 22.3737 33.7719C22.3934 33.689 22.4145 33.6075 22.4399 33.526C22.4934 33.3771 22.492 33.3644 22.4342 33.4909C22.3413 33.5457 22.2484 33.5991 22.1541 33.6539C22.3864 33.5864 22.7848 33.7143 23.0255 33.7452C23.3549 33.7873 23.6843 33.8365 24.0123 33.8899C24.6684 33.9953 25.3202 34.1203 25.9677 34.2608C26.7631 34.4336 27.1024 33.2141 26.3042 33.0413L26.3056 33.0441Z" fill="#101841"/>
<path d="M24.4295 35.318C23.8523 35.2983 23.2808 35.332 22.7092 35.4121C22.1715 35.4866 21.4845 35.5526 21.3085 36.1736C21.1762 36.6429 21.4113 37.2752 21.5605 37.7192C21.7379 38.246 21.973 38.7533 22.2559 39.231C22.6712 39.9307 23.7679 39.2942 23.3498 38.5931C23.1414 38.2432 22.9584 37.8807 22.8204 37.4972C22.7529 37.3089 22.6937 37.1164 22.6431 36.9225C22.6177 36.8256 22.5938 36.7286 22.5741 36.6303C22.5656 36.5909 22.5586 36.5516 22.5501 36.5122C22.5234 36.3689 22.5206 36.3549 22.5417 36.4673C22.4868 36.56 22.4333 36.6528 22.3784 36.7469C22.3432 36.7904 22.2939 36.7623 22.4051 36.7399C22.5107 36.7188 22.6177 36.6977 22.7233 36.6794C22.9021 36.6485 23.0809 36.6261 23.2625 36.6092C23.651 36.5741 24.0396 36.567 24.4281 36.5811C25.2432 36.6092 25.2432 35.3447 24.4281 35.3166L24.4295 35.318Z" fill="#101841"/>
<path d="M40.1675 68.1368C40.3505 68.0919 40.5208 68.0343 40.6827 67.9668C43.3631 65.2369 43.5912 60.2856 43.6024 56.707C43.3758 55.9679 43.0914 55.2556 42.7507 54.5868C42.6832 54.4547 42.6733 54.3255 42.6972 54.2089C42.6297 54.1161 42.5635 54.0234 42.4931 53.9321C42.0074 53.2942 41.2219 53.1157 40.5729 53.3237C40.2435 52.8361 39.8916 52.3669 39.5143 51.9159C38.0981 49.4191 36.4679 47.0503 34.6434 44.8289C34.6336 43.8201 33.8987 42.5064 32.9837 42.7579C31.8068 43.0811 30.2681 44.0576 29.1602 44.805C28.8702 44.8163 28.5872 44.8781 28.3155 44.9793C28.1508 44.9722 27.9903 44.9849 27.8467 45.02C27.1851 45.183 26.7754 45.6621 26.6994 46.2578C26.5389 46.4854 26.4066 46.7299 26.3081 46.9814C25.7379 48.4398 26.4193 49.9263 27.0246 51.2457C27.461 52.1955 27.9312 53.1284 28.407 54.0585C28.697 54.9535 29.0307 55.8359 29.4248 56.6957C29.8753 57.6793 30.3807 58.6361 30.972 59.5381C31.5224 60.9544 32.0489 62.3805 32.8147 63.6942C33.8565 65.4799 35.3093 67.1084 37.0718 68.224C38.0939 68.3068 39.1652 68.3841 40.1661 68.1382L40.1675 68.1368Z" fill="#C3C3C3"/>
<path d="M39.4688 53.2231C37.7232 49.3607 35.979 45.4982 34.2333 41.6344C34.1263 41.3984 33.7589 41.2579 33.5182 41.3436C31.9471 41.9042 30.4155 42.5758 28.9472 43.3654C28.218 43.7574 27.5042 44.1775 26.8088 44.6257C26.1514 45.0486 25.3532 45.48 25.2025 46.3174C25.0646 47.0747 25.3306 47.9275 25.4799 48.6694C25.646 49.4941 25.836 50.3133 26.0486 51.1282C26.4597 52.6948 26.9566 54.2389 27.5366 55.7507C28.6741 58.7111 30.0804 61.6672 31.9232 64.2609C32.7974 65.4917 33.8068 66.6242 35.0569 67.4868C36.3295 68.365 37.9583 68.993 39.5139 68.5912C40.9104 68.2301 42.0549 67.071 42.9741 66.0158C43.8103 65.0548 44.5241 63.9897 45.0801 62.8432C46.1866 60.5573 46.6906 58.0479 46.8328 55.5259C47.12 50.4383 46.0205 45.3887 45.1294 40.4093C44.9 39.1251 44.6522 37.6287 43.6879 36.6621C43.0473 36.0186 42.1759 35.6069 41.3524 35.2542C39.2872 34.3705 37.108 33.7986 34.9499 33.1902C34.5853 33.0877 34.2193 32.9837 33.8575 32.8685C33.079 32.6226 32.7453 33.8422 33.521 34.0881C35.3483 34.6669 37.215 35.1053 39.0324 35.7207C39.9643 36.0354 40.8963 36.3782 41.7635 36.8475C41.9451 36.9459 42.1238 37.0498 42.2956 37.1622C42.5054 37.2999 42.511 37.3013 42.6729 37.4447C42.732 37.498 42.7911 37.5528 42.846 37.6119C42.8826 37.6512 42.9868 37.7847 42.9052 37.6723C43.1107 37.9519 43.274 38.2708 43.3951 38.5968C43.8343 39.7854 43.9694 41.0963 44.1975 42.3383C44.4101 43.4947 44.6212 44.6496 44.8141 45.8088C45.2083 48.1776 45.525 50.5648 45.5954 52.9687C45.7319 57.6306 44.8197 62.4484 41.3918 65.8556C40.923 66.3207 40.4289 66.7801 39.8475 67.1019C39.2309 67.4433 38.5383 67.529 37.8499 67.3843C36.4956 67.0991 35.3173 66.2279 34.3671 65.2543C33.3915 64.2539 32.6116 63.0891 31.9007 61.892C31.1194 60.5755 30.4084 59.2155 29.7707 57.8231C28.4883 55.0243 27.5155 52.0822 26.8567 49.0768C26.7018 48.3715 26.523 47.6493 26.4442 46.9314C26.4118 46.6307 26.4371 46.434 26.6779 46.2359C26.9608 46.0041 27.3001 45.8144 27.6084 45.6177C28.9331 44.7761 30.3226 44.0328 31.7585 43.3963C32.4455 43.0914 33.1465 42.8175 33.8547 42.5646C33.6167 42.4676 33.3774 42.3707 33.1395 42.2737C34.8851 46.1361 36.6294 49.9999 38.375 53.8623C38.5158 54.1743 38.969 54.2487 39.2422 54.0885C39.5631 53.9017 39.611 53.5364 39.4688 53.2231Z" fill="#101841"/>
<defs>
<clipPath id="clip0_171_2723">
<rect width="46" height="69.9452" fill="white"/>
</clipPath>
</defs>
</svg>
